<svg width="22" height="19" viewBox="0 0 22 19" fill="none" xmlns="http://www.w3.org/2000/svg">
<path d="M12.3242 0.519531C7.35422 0.519531 3.32422 4.54953 3.32422 9.51953H0.324219L4.21422 13.4095L4.28422 13.5495L8.32422 9.51953H5.32422C5.32422 5.64953 8.45422 2.51953 12.3242 2.51953C16.1942 2.51953 19.3242 5.64953 19.3242 9.51953C19.3242 13.3895 16.1942 16.5195 12.3242 16.5195C10.3942 16.5195 8.64422 15.7295 7.38422 14.4595L5.96422 15.8795C7.59422 17.5095 9.83422 18.5195 12.3242 18.5195C17.2942 18.5195 21.3242 14.4895 21.3242 9.51953C21.3242 4.54953 17.2942 0.519531 12.3242 0.519531ZM11.3242 5.51953V10.5195L15.5742 13.0395L16.3442 11.7595L12.8242 9.66953V5.51953H11.3242Z" fill="black"/>
</svg>
