<svg width="24" height="24" viewBox="0 0 24 24" fill="none" xmlns="http://www.w3.org/2000/svg">
<path d="M17.2714 15.7714C16.1797 16.8632 14.7951 18.1651 13.1157 19.6782C13.1156 19.6783 13.1155 19.6784 13.1153 19.6785L12 20.6785L10.8847 19.6785C10.8845 19.6784 10.8844 19.6783 10.8843 19.6782C9.20494 18.1651 7.82026 16.8632 6.72855 15.7714C5.63918 14.6821 4.78211 13.7134 4.15137 12.8643C3.52024 12.0147 3.09558 11.2552 2.85909 10.5839C2.61929 9.90314 2.5 9.20927 2.5 8.5C2.5 7.05783 2.97791 5.8792 3.92855 4.92855C4.8792 3.97791 6.05783 3.5 7.5 3.5C8.29356 3.5 9.04619 3.6673 9.76303 4.00285C10.4807 4.33876 11.0982 4.81113 11.619 5.42382L12 5.87202L12.381 5.42382C12.9018 4.81113 13.5193 4.33876 14.237 4.00285C14.9538 3.6673 15.7064 3.5 16.5 3.5C17.9422 3.5 19.1208 3.97791 20.0714 4.92855C21.0221 5.8792 21.5 7.05783 21.5 8.5C21.5 9.20927 21.3807 9.90314 21.1409 10.5839C20.9044 11.2552 20.4798 12.0147 19.8486 12.8643C19.2179 13.7134 18.3608 14.6821 17.2714 15.7714Z" stroke="#999999"/>
</svg>
