<svg width="126" height="28" viewBox="0 0 126 28" fill="none" xmlns="http://www.w3.org/2000/svg">
<rect width="126" height="28" rx="4" fill="#D4F9C3"/>
<path d="M11.7851 24.4L9.9887 21.3524L6.58506 20.5905L6.91597 17.0667L4.59961 14.4L6.91597 11.7334L6.58506 8.20955L9.9887 7.44764L11.7851 4.40002L14.9996 5.78098L18.2142 4.40002L20.0105 7.44764L23.4142 8.20955L23.0832 11.7334L25.3996 14.4L23.0832 17.0667L23.4142 20.5905L20.0105 21.3524L18.2142 24.4L14.9996 23.0191L11.7851 24.4ZM14.0069 17.781L19.3487 12.4L18.0251 11.0191L14.0069 15.0667L11.9742 13.0667L10.6505 14.4L14.0069 17.781Z" fill="#169B00"/>
<path d="M33.4229 17.1816L36.041 9.04688H37.9346L34.3662 19H33.0879L33.4229 17.1816ZM31.0029 9.04688L33.6006 17.1816L33.9561 19H32.6709L29.1162 9.04688H31.0029ZM41.8447 19.1367C41.2979 19.1367 40.8034 19.0479 40.3613 18.8701C39.9238 18.6878 39.5501 18.4349 39.2402 18.1113C38.9349 17.7878 38.7002 17.4072 38.5361 16.9697C38.3721 16.5322 38.29 16.0605 38.29 15.5547V15.2812C38.29 14.7025 38.3743 14.1784 38.543 13.709C38.7116 13.2396 38.9463 12.8385 39.2471 12.5059C39.5479 12.1686 39.9033 11.9111 40.3135 11.7334C40.7236 11.5557 41.168 11.4668 41.6465 11.4668C42.1751 11.4668 42.6377 11.5557 43.0342 11.7334C43.4307 11.9111 43.7588 12.1618 44.0186 12.4854C44.2829 12.8044 44.4788 13.1849 44.6064 13.627C44.7386 14.069 44.8047 14.5566 44.8047 15.0898V15.7939H39.0898V14.6113H43.1777V14.4814C43.1686 14.1852 43.1094 13.9072 43 13.6475C42.8952 13.3877 42.7334 13.1781 42.5146 13.0186C42.2959 12.859 42.0042 12.7793 41.6396 12.7793C41.3662 12.7793 41.1224 12.8385 40.9082 12.957C40.6986 13.071 40.5231 13.2373 40.3818 13.4561C40.2406 13.6748 40.1312 13.9391 40.0537 14.249C39.9808 14.5544 39.9443 14.8984 39.9443 15.2812V15.5547C39.9443 15.8783 39.9876 16.179 40.0742 16.457C40.1654 16.7305 40.2975 16.9697 40.4707 17.1748C40.6439 17.3799 40.8535 17.5417 41.0996 17.6602C41.3457 17.7741 41.626 17.8311 41.9404 17.8311C42.3369 17.8311 42.6901 17.7513 43 17.5918C43.3099 17.4323 43.5788 17.2067 43.8066 16.915L44.6748 17.7559C44.5153 17.9883 44.3079 18.2116 44.0527 18.4258C43.7975 18.6354 43.4854 18.8063 43.1162 18.9385C42.7516 19.0706 42.3278 19.1367 41.8447 19.1367ZM47.7441 13.0117V19H46.0967V11.6035H47.6689L47.7441 13.0117ZM50.0068 11.5557L49.9932 13.0869C49.8929 13.0687 49.7835 13.055 49.665 13.0459C49.5511 13.0368 49.4372 13.0322 49.3232 13.0322C49.0407 13.0322 48.7923 13.0732 48.5781 13.1553C48.3639 13.2327 48.1839 13.3467 48.0381 13.4971C47.8968 13.6429 47.7874 13.8206 47.71 14.0303C47.6325 14.2399 47.5869 14.4746 47.5732 14.7344L47.1973 14.7617C47.1973 14.2969 47.2428 13.8662 47.334 13.4697C47.4251 13.0732 47.5618 12.7246 47.7441 12.4238C47.931 12.123 48.1634 11.8883 48.4414 11.7197C48.724 11.5511 49.0498 11.4668 49.4189 11.4668C49.5192 11.4668 49.6263 11.4759 49.7402 11.4941C49.8587 11.5124 49.9476 11.5329 50.0068 11.5557ZM52.8027 11.6035V19H51.1484V11.6035H52.8027ZM51.0391 9.66211C51.0391 9.41146 51.1211 9.2041 51.2852 9.04004C51.4538 8.87142 51.6862 8.78711 51.9824 8.78711C52.2741 8.78711 52.5042 8.87142 52.6729 9.04004C52.8415 9.2041 52.9258 9.41146 52.9258 9.66211C52.9258 9.9082 52.8415 10.1133 52.6729 10.2773C52.5042 10.4414 52.2741 10.5234 51.9824 10.5234C51.6862 10.5234 51.4538 10.4414 51.2852 10.2773C51.1211 10.1133 51.0391 9.9082 51.0391 9.66211ZM56.7266 19H55.0723V11.125C55.0723 10.528 55.1908 10.0244 55.4277 9.61426C55.6693 9.2041 56.0133 8.89193 56.46 8.67773C56.9111 8.46354 57.4466 8.35645 58.0664 8.35645C58.431 8.35645 58.7819 8.39518 59.1191 8.47266C59.4609 8.55013 59.8141 8.64811 60.1787 8.7666L59.9258 10.1064C59.6934 10.029 59.4359 9.95605 59.1533 9.8877C58.8708 9.81478 58.5449 9.77832 58.1758 9.77832C57.679 9.77832 57.3122 9.89225 57.0752 10.1201C56.8428 10.3434 56.7266 10.6784 56.7266 11.125V19ZM58.21 11.6035V12.8066H53.9375V11.6035H58.21ZM60.958 11.6035V19H59.3105V11.6035H60.958ZM66.0576 19.1367C65.5107 19.1367 65.0163 19.0479 64.5742 18.8701C64.1367 18.6878 63.763 18.4349 63.4531 18.1113C63.1478 17.7878 62.9131 17.4072 62.749 16.9697C62.585 16.5322 62.5029 16.0605 62.5029 15.5547V15.2812C62.5029 14.7025 62.5872 14.1784 62.7559 13.709C62.9245 13.2396 63.1592 12.8385 63.46 12.5059C63.7607 12.1686 64.1162 11.9111 64.5264 11.7334C64.9365 11.5557 65.3809 11.4668 65.8594 11.4668C66.388 11.4668 66.8506 11.5557 67.2471 11.7334C67.6436 11.9111 67.9717 12.1618 68.2314 12.4854C68.4958 12.8044 68.6917 13.1849 68.8193 13.627C68.9515 14.069 69.0176 14.5566 69.0176 15.0898V15.7939H63.3027V14.6113H67.3906V14.4814C67.3815 14.1852 67.3223 13.9072 67.2129 13.6475C67.1081 13.3877 66.9463 13.1781 66.7275 13.0186C66.5088 12.859 66.2171 12.7793 65.8525 12.7793C65.5791 12.7793 65.3353 12.8385 65.1211 12.957C64.9115 13.071 64.736 13.2373 64.5947 13.4561C64.4535 13.6748 64.3441 13.9391 64.2666 14.249C64.1937 14.5544 64.1572 14.8984 64.1572 15.2812V15.5547C64.1572 15.8783 64.2005 16.179 64.2871 16.457C64.3783 16.7305 64.5104 16.9697 64.6836 17.1748C64.8568 17.3799 65.0664 17.5417 65.3125 17.6602C65.5586 17.7741 65.8389 17.8311 66.1533 17.8311C66.5498 17.8311 66.903 17.7513 67.2129 17.5918C67.5228 17.4323 67.7917 17.2067 68.0195 16.915L68.8877 17.7559C68.7282 17.9883 68.5208 18.2116 68.2656 18.4258C68.0104 18.6354 67.6982 18.8063 67.3291 18.9385C66.9645 19.0706 66.5407 19.1367 66.0576 19.1367ZM74.8145 17.4688V8.5H76.4688V19H74.9717L74.8145 17.4688ZM70.002 15.3838V15.2402C70.002 14.6797 70.068 14.1693 70.2002 13.709C70.3324 13.2441 70.5238 12.8454 70.7744 12.5127C71.0251 12.1755 71.3304 11.918 71.6904 11.7402C72.0505 11.5579 72.4561 11.4668 72.9072 11.4668C73.3538 11.4668 73.7458 11.5534 74.083 11.7266C74.4202 11.8997 74.7074 12.1481 74.9443 12.4717C75.1813 12.7907 75.3704 13.1735 75.5117 13.6201C75.653 14.0622 75.7533 14.5544 75.8125 15.0967V15.5547C75.7533 16.0833 75.653 16.5664 75.5117 17.0039C75.3704 17.4414 75.1813 17.8197 74.9443 18.1387C74.7074 18.4577 74.418 18.7038 74.0762 18.877C73.7389 19.0501 73.3447 19.1367 72.8936 19.1367C72.4469 19.1367 72.0436 19.0433 71.6836 18.8564C71.3281 18.6696 71.0251 18.4076 70.7744 18.0703C70.5238 17.7331 70.3324 17.3366 70.2002 16.8809C70.068 16.4206 70.002 15.9215 70.002 15.3838ZM71.6494 15.2402V15.3838C71.6494 15.721 71.679 16.0355 71.7383 16.3271C71.8021 16.6188 71.9001 16.8763 72.0322 17.0996C72.1644 17.3184 72.3353 17.4915 72.5449 17.6191C72.7591 17.7422 73.0143 17.8037 73.3105 17.8037C73.6842 17.8037 73.9919 17.7217 74.2334 17.5576C74.4749 17.3936 74.6641 17.1725 74.8008 16.8945C74.9421 16.612 75.0378 16.2975 75.0879 15.9512V14.7139C75.0605 14.445 75.0036 14.1943 74.917 13.9619C74.835 13.7295 74.7233 13.5267 74.582 13.3535C74.4408 13.1758 74.2653 13.0391 74.0557 12.9434C73.8506 12.8431 73.6068 12.793 73.3242 12.793C73.0234 12.793 72.7682 12.8568 72.5586 12.9844C72.349 13.112 72.1758 13.2874 72.0391 13.5107C71.9069 13.734 71.8089 13.9938 71.7451 14.29C71.6813 14.5863 71.6494 14.903 71.6494 15.2402ZM85.6221 15.2881H83.0312V13.9277H85.6221C86.0732 13.9277 86.4378 13.8548 86.7158 13.709C86.9938 13.5632 87.1966 13.3626 87.3242 13.1074C87.4564 12.8477 87.5225 12.5514 87.5225 12.2188C87.5225 11.9043 87.4564 11.6104 87.3242 11.3369C87.1966 11.0589 86.9938 10.8356 86.7158 10.667C86.4378 10.4984 86.0732 10.4141 85.6221 10.4141H83.5576V19H81.8418V9.04688H85.6221C86.3923 9.04688 87.0462 9.18359 87.584 9.45703C88.1263 9.72591 88.5387 10.0996 88.8213 10.5781C89.1038 11.0521 89.2451 11.5944 89.2451 12.2051C89.2451 12.8477 89.1038 13.3991 88.8213 13.8594C88.5387 14.3197 88.1263 14.6729 87.584 14.9189C87.0462 15.165 86.3923 15.2881 85.6221 15.2881ZM92.2734 13.0117V19H90.626V11.6035H92.1982L92.2734 13.0117ZM94.5361 11.5557L94.5225 13.0869C94.4222 13.0687 94.3128 13.055 94.1943 13.0459C94.0804 13.0368 93.9665 13.0322 93.8525 13.0322C93.57 13.0322 93.3216 13.0732 93.1074 13.1553C92.8932 13.2327 92.7132 13.3467 92.5674 13.4971C92.4261 13.6429 92.3167 13.8206 92.2393 14.0303C92.1618 14.2399 92.1162 14.4746 92.1025 14.7344L91.7266 14.7617C91.7266 14.2969 91.7721 13.8662 91.8633 13.4697C91.9544 13.0732 92.0911 12.7246 92.2734 12.4238C92.4603 12.123 92.6927 11.8883 92.9707 11.7197C93.2533 11.5511 93.5791 11.4668 93.9482 11.4668C94.0485 11.4668 94.1556 11.4759 94.2695 11.4941C94.388 11.5124 94.4769 11.5329 94.5361 11.5557ZM95.0762 15.3838V15.2266C95.0762 14.6934 95.1536 14.1989 95.3086 13.7432C95.4635 13.2829 95.6868 12.8841 95.9785 12.5469C96.2747 12.2051 96.6348 11.9408 97.0586 11.7539C97.487 11.5625 97.9701 11.4668 98.5078 11.4668C99.0501 11.4668 99.5332 11.5625 99.957 11.7539C100.385 11.9408 100.748 12.2051 101.044 12.5469C101.34 12.8841 101.566 13.2829 101.721 13.7432C101.876 14.1989 101.953 14.6934 101.953 15.2266V15.3838C101.953 15.917 101.876 16.4115 101.721 16.8672C101.566 17.3229 101.34 17.7217 101.044 18.0635C100.748 18.4007 100.388 18.665 99.9639 18.8564C99.54 19.0433 99.0592 19.1367 98.5215 19.1367C97.9792 19.1367 97.4938 19.0433 97.0654 18.8564C96.6416 18.665 96.2816 18.4007 95.9854 18.0635C95.6891 17.7217 95.4635 17.3229 95.3086 16.8672C95.1536 16.4115 95.0762 15.917 95.0762 15.3838ZM96.7236 15.2266V15.3838C96.7236 15.7165 96.7578 16.0309 96.8262 16.3271C96.8945 16.6234 97.0016 16.8831 97.1475 17.1064C97.2933 17.3298 97.4801 17.5052 97.708 17.6328C97.9359 17.7604 98.207 17.8242 98.5215 17.8242C98.8268 17.8242 99.0911 17.7604 99.3145 17.6328C99.5423 17.5052 99.7292 17.3298 99.875 17.1064C100.021 16.8831 100.128 16.6234 100.196 16.3271C100.269 16.0309 100.306 15.7165 100.306 15.3838V15.2266C100.306 14.8984 100.269 14.5885 100.196 14.2969C100.128 14.0007 100.019 13.7386 99.8682 13.5107C99.7223 13.2829 99.5355 13.1051 99.3076 12.9775C99.0843 12.8454 98.8177 12.7793 98.5078 12.7793C98.1979 12.7793 97.929 12.8454 97.7012 12.9775C97.4779 13.1051 97.2933 13.2829 97.1475 13.5107C97.0016 13.7386 96.8945 14.0007 96.8262 14.2969C96.7578 14.5885 96.7236 14.8984 96.7236 15.2266ZM105.453 19H103.799V11.125C103.799 10.528 103.917 10.0244 104.154 9.61426C104.396 9.2041 104.74 8.89193 105.187 8.67773C105.638 8.46354 106.173 8.35645 106.793 8.35645C107.158 8.35645 107.508 8.39518 107.846 8.47266C108.188 8.55013 108.541 8.64811 108.905 8.7666L108.652 10.1064C108.42 10.029 108.162 9.95605 107.88 9.8877C107.597 9.81478 107.271 9.77832 106.902 9.77832C106.406 9.77832 106.039 9.89225 105.802 10.1201C105.569 10.3434 105.453 10.6784 105.453 11.125V19ZM106.937 11.6035V12.8066H102.664V11.6035H106.937ZM109.685 11.6035V19H108.037V11.6035H109.685ZM113.287 8.5V19H111.633V8.5H113.287ZM118.353 19.1367C117.806 19.1367 117.311 19.0479 116.869 18.8701C116.432 18.6878 116.058 18.4349 115.748 18.1113C115.443 17.7878 115.208 17.4072 115.044 16.9697C114.88 16.5322 114.798 16.0605 114.798 15.5547V15.2812C114.798 14.7025 114.882 14.1784 115.051 13.709C115.219 13.2396 115.454 12.8385 115.755 12.5059C116.056 12.1686 116.411 11.9111 116.821 11.7334C117.231 11.5557 117.676 11.4668 118.154 11.4668C118.683 11.4668 119.146 11.5557 119.542 11.7334C119.938 11.9111 120.267 12.1618 120.526 12.4854C120.791 12.8044 120.987 13.1849 121.114 13.627C121.246 14.069 121.312 14.5566 121.312 15.0898V15.7939H115.598V14.6113H119.686V14.4814C119.676 14.1852 119.617 13.9072 119.508 13.6475C119.403 13.3877 119.241 13.1781 119.022 13.0186C118.804 12.859 118.512 12.7793 118.147 12.7793C117.874 12.7793 117.63 12.8385 117.416 12.957C117.206 13.071 117.031 13.2373 116.89 13.4561C116.748 13.6748 116.639 13.9391 116.562 14.249C116.489 14.5544 116.452 14.8984 116.452 15.2812V15.5547C116.452 15.8783 116.495 16.179 116.582 16.457C116.673 16.7305 116.805 16.9697 116.979 17.1748C117.152 17.3799 117.361 17.5417 117.607 17.6602C117.854 17.7741 118.134 17.8311 118.448 17.8311C118.845 17.8311 119.198 17.7513 119.508 17.5918C119.818 17.4323 120.087 17.2067 120.314 16.915L121.183 17.7559C121.023 17.9883 120.816 18.2116 120.561 18.4258C120.305 18.6354 119.993 18.8063 119.624 18.9385C119.259 19.0706 118.836 19.1367 118.353 19.1367Z" fill="#216F14"/>
</svg>
