<svg width="53" height="49" viewBox="0 0 53 49" fill="none" xmlns="http://www.w3.org/2000/svg">
<path d="M4.76528 48.0523C3.45476 48.0523 2.33288 47.5818 1.39963 46.6408C0.46638 45.6998 -0.000244141 44.5685 -0.000244141 43.2471V14.4157C-0.000244141 13.0943 0.46638 11.963 1.39963 11.022C2.33288 10.081 3.45476 9.61047 4.76528 9.61047H12.271L16.6791 4.80523H30.9756V9.61047H18.764L14.4155 14.4157H4.76528V43.2471H42.8894V21.6236H47.655V43.2471C47.655 44.5685 47.1883 45.6998 46.2551 46.6408C45.3218 47.5818 44.2 48.0523 42.8894 48.0523H4.76528ZM42.8894 14.4157V9.61047H38.1239V4.80523H42.8894V0H47.655V4.80523H52.4205V9.61047H47.655V14.4157H42.8894ZM23.8274 39.6432C26.8058 39.6432 29.3375 38.592 31.4224 36.4897C33.5073 34.3875 34.5498 31.8347 34.5498 28.8314C34.5498 25.8281 33.5073 23.2754 31.4224 21.1731C29.3375 19.0708 26.8058 18.0196 23.8274 18.0196C20.8489 18.0196 18.3172 19.0708 16.2323 21.1731C14.1474 23.2754 13.1049 25.8281 13.1049 28.8314C13.1049 31.8347 14.1474 34.3875 16.2323 36.4897C18.3172 38.592 20.8489 39.6432 23.8274 39.6432ZM23.8274 34.8379C22.1594 34.8379 20.7496 34.2573 19.598 33.0961C18.4463 31.9348 17.8705 30.5132 17.8705 28.8314C17.8705 27.1496 18.4463 25.728 19.598 24.5668C20.7496 23.4055 22.1594 22.8249 23.8274 22.8249C25.4953 22.8249 26.9051 23.4055 28.0568 24.5668C29.2084 25.728 29.7843 27.1496 29.7843 28.8314C29.7843 30.5132 29.2084 31.9348 28.0568 33.0961C26.9051 34.2573 25.4953 34.8379 23.8274 34.8379Z" fill="white"/>
</svg>
