<svg width="84" height="76" viewBox="0 0 84 76" fill="none" xmlns="http://www.w3.org/2000/svg">
<path d="M60.7205 17.3898C59.0021 12.8837 56.3107 9.36806 52.6463 6.84271C48.9819 4.31736 44.471 3.05469 39.1134 3.05469C32.189 3.05469 26.4651 5.27056 21.9415 9.7023C17.4179 14.134 14.9286 19.717 14.4737 26.4513C11.0874 27.5407 8.30751 29.608 6.13416 32.6533C3.96082 35.6985 2.87415 39.1276 2.87415 42.9403C2.87415 47.5949 4.49152 51.6305 7.72627 55.0472C10.961 58.4638 14.8023 60.1721 19.2501 60.1721H21.3729C21.7267 60.1721 22.0552 60.1102 22.3584 59.9864C22.6617 59.8626 22.9144 59.6893 23.1166 59.4665C23.3188 59.2437 23.483 58.9837 23.6094 58.6866C23.7357 58.3895 23.7989 58.0924 23.7989 57.7953C23.7989 57.1516 23.5715 56.5945 23.1166 56.1241C22.6617 55.6537 22.0805 55.4185 21.3729 55.4185H19.2501C16.1164 55.4185 13.3997 54.1806 11.1 51.7048C8.8003 49.2289 7.65045 46.3075 7.65045 42.9403C7.65045 39.9693 8.5855 37.2954 10.4556 34.9186C12.3257 32.5418 14.6001 31.1306 17.2789 30.685L19.4775 30.3136L19.3259 28.0853H19.2501C19.2501 22.1929 21.0696 17.3402 24.7087 13.5275C28.3478 9.71467 33.1494 7.80828 39.1134 7.80828C48.1606 7.80828 53.9983 11.9924 56.6266 20.3608L57.1573 21.9948L58.901 22.0691C61.883 22.1186 64.6629 22.8613 67.2406 24.2973C69.8183 25.7333 71.8905 27.7016 73.4574 30.2022C75.0242 32.7028 75.8076 35.389 75.8076 38.261C75.8076 39.6475 75.656 41.0216 75.3527 42.3833C75.0495 43.745 74.6325 45.0572 74.1018 46.3198C73.5711 47.5825 72.8887 48.7709 72.0548 49.885C71.2208 50.9992 70.3111 51.9647 69.3255 52.7818C68.3399 53.5988 67.2153 54.2425 65.9517 54.7129C64.6881 55.1833 63.374 55.4185 62.0094 55.4185H61.327C61.0238 55.4185 60.7205 55.4804 60.4173 55.6042C60.114 55.728 59.8487 55.9013 59.6212 56.1241C59.3938 56.347 59.2169 56.5945 59.0905 56.8669C58.9642 57.1392 58.901 57.4487 58.901 57.7953C58.901 58.439 59.1411 58.9961 59.6212 59.4665C60.1014 59.9369 60.67 60.1721 61.327 60.1721C64.2585 60.0731 66.9626 59.3675 69.4392 58.0553C71.9158 56.7431 73.9375 55.0348 75.5043 52.9303C77.0712 50.8259 78.2968 48.511 79.1813 45.9856C80.0658 43.4603 80.5081 40.8854 80.5081 38.261C80.5081 32.8637 78.6001 28.1844 74.7841 24.223C70.9681 20.2617 66.2803 17.984 60.7205 17.3898ZM51.8502 55.6414C51.547 55.2947 51.1553 55.1214 50.6751 55.1214C50.195 55.1214 49.778 55.2947 49.4242 55.6414L44.1172 61.4348V37.5183C44.1172 37.3697 44.0919 37.2088 44.0414 37.0355C43.9908 36.8622 43.9403 36.7136 43.8897 36.5898C43.8392 36.466 43.7634 36.3299 43.6623 36.1813C43.5612 36.0328 43.4601 35.909 43.359 35.8099C43.2579 35.7109 43.1442 35.6243 43.0179 35.55C42.8915 35.4757 42.7525 35.4014 42.6009 35.3272C42.4493 35.2529 42.2976 35.2034 42.146 35.1786C41.9944 35.1538 41.8427 35.1415 41.6911 35.1415C40.9835 35.1415 40.4023 35.3767 39.9474 35.8471C39.4925 36.3175 39.2651 36.8745 39.2651 37.5183V61.4348L34.1097 55.7899C33.7559 55.4433 33.3389 55.2576 32.8587 55.2328C32.3786 55.2081 31.9616 55.3443 31.6078 55.6414L31.0013 56.0127C30.6475 56.3593 30.4706 56.7802 30.4706 57.2754C30.4706 57.7706 30.6475 58.1915 31.0013 58.5381L39.7958 67.971V68.0453L40.4023 68.6395C40.7561 68.9861 41.173 69.1594 41.6532 69.1594C42.1334 69.1594 42.5503 68.9861 42.9041 68.6395L43.5107 68.0453V67.971L52.4568 58.3895C53.2149 57.6468 53.2149 56.904 52.4568 56.1613L51.8502 55.6414Z" fill="#959595"/>
<path d="M45.2863 53.8067V34.6912L38.0979 34.6912V53.8067H27.3154L41.6921 71.5063L56.0688 53.8067H45.2863Z" fill="#959595"/>
</svg>
