<svg width="60" height="60" viewBox="0 0 60 60" fill="none" xmlns="http://www.w3.org/2000/svg">
<circle cx="30" cy="30" r="29.5" stroke="white"/>
<g clip-path="url(#clip0_5030_1811)">
<path d="M25.125 45.6375C23.975 45.6375 22.9438 45.3375 22.0312 44.7375C21.1188 44.1375 20.4125 43.3125 19.9125 42.2625C19.5125 42.7875 19.0063 43.1937 18.3938 43.4812C17.7812 43.7687 17.15 43.9125 16.5 43.9125C15.225 43.9125 14.1562 43.475 13.2938 42.6C12.4313 41.725 12 40.6625 12 39.4125C12 38.3375 12.35 37.3687 13.05 36.5062C13.75 35.6437 14.6375 35.15 15.7125 35.025C15.3625 34.525 15.0938 33.9937 14.9062 33.4312C14.7188 32.8687 14.625 32.275 14.625 31.65C14.625 30.65 14.8813 29.7125 15.3938 28.8375C15.9063 27.9625 16.625 27.25 17.55 26.7C17.675 27.15 17.8438 27.6312 18.0563 28.1437C18.2688 28.6562 18.5125 29.1 18.7875 29.475C18.4375 29.75 18.1625 30.0812 17.9625 30.4687C17.7625 30.8562 17.6625 31.2625 17.6625 31.6875C17.6625 33.0875 18.2375 33.95 19.3875 34.275C20.5375 34.6 21.625 34.8625 22.65 35.0625L23.3625 36.2625C23.0875 37.0625 22.85 37.7437 22.65 38.3062C22.45 38.8687 22.35 39.375 22.35 39.825C22.35 40.575 22.6188 41.2312 23.1562 41.7937C23.6938 42.3562 24.35 42.6375 25.125 42.6375C26.075 42.6375 26.8625 42.2125 27.4875 41.3625C28.1125 40.5125 28.625 39.5125 29.025 38.3625C29.425 37.2125 29.7313 36.05 29.9438 34.875C30.1562 33.7 30.325 32.8 30.45 32.175L33.375 32.9625C33.15 34.0875 32.875 35.375 32.55 36.825C32.225 38.275 31.7688 39.6562 31.1813 40.9687C30.5938 42.2812 29.8188 43.3875 28.8563 44.2875C27.8938 45.1875 26.65 45.6375 25.125 45.6375ZM16.5 40.9125C16.925 40.9125 17.2812 40.7687 17.5688 40.4812C17.8563 40.1937 18 39.8375 18 39.4125C18 38.9875 17.8563 38.6312 17.5688 38.3437C17.2812 38.0562 16.925 37.9125 16.5 37.9125C16.075 37.9125 15.7188 38.0562 15.4313 38.3437C15.1438 38.6312 15 38.9875 15 39.4125C15 39.8375 15.1438 40.1937 15.4313 40.4812C15.7188 40.7687 16.075 40.9125 16.5 40.9125ZM27.15 34.9875C26 33.9625 24.9563 33.0062 24.0188 32.1187C23.0813 31.2312 22.275 30.3687 21.6 29.5312C20.925 28.6937 20.4062 27.8562 20.0438 27.0187C19.6813 26.1812 19.5 25.3125 19.5 24.4125C19.5 22.7875 20.0563 21.4187 21.1688 20.3062C22.2812 19.1937 23.65 18.6375 25.275 18.6375C25.375 18.6375 25.4625 18.6437 25.5375 18.6562C25.6125 18.6687 25.7 18.675 25.8 18.675C25.7 18.425 25.625 18.175 25.575 17.925C25.525 17.675 25.5 17.4125 25.5 17.1375C25.5 15.8875 25.9375 14.825 26.8125 13.95C27.6875 13.075 28.75 12.6375 30 12.6375C31.25 12.6375 32.3125 13.075 33.1875 13.95C34.0625 14.825 34.5 15.8875 34.5 17.1375C34.5 17.4125 34.475 17.6687 34.425 17.9062C34.375 18.1437 34.3 18.3875 34.2 18.6375H34.725C36.225 18.6375 37.5 19.1187 38.55 20.0812C39.6 21.0437 40.225 22.2375 40.425 23.6625C39.975 23.5875 39.4688 23.55 38.9063 23.55C38.3438 23.55 37.825 23.575 37.35 23.625C37.175 23.05 36.8563 22.575 36.3938 22.2C35.9313 21.825 35.375 21.6375 34.725 21.6375C33.85 21.6375 33.1688 21.8937 32.6813 22.4062C32.1938 22.9187 31.525 23.6625 30.675 24.6375H29.2875C28.4125 23.6125 27.7313 22.8562 27.2438 22.3687C26.7563 21.8812 26.1 21.6375 25.275 21.6375C24.475 21.6375 23.8125 21.9 23.2875 22.425C22.7625 22.95 22.5 23.6125 22.5 24.4125C22.5 24.9875 22.6625 25.5812 22.9875 26.1937C23.3125 26.8062 23.7688 27.4562 24.3563 28.1437C24.9438 28.8312 25.6563 29.5625 26.4938 30.3375C27.3313 31.1125 28.2625 31.95 29.2875 32.85L27.15 34.9875ZM30 18.6375C30.425 18.6375 30.7812 18.4937 31.0688 18.2062C31.3563 17.9187 31.5 17.5625 31.5 17.1375C31.5 16.7125 31.3563 16.3562 31.0688 16.0687C30.7812 15.7812 30.425 15.6375 30 15.6375C29.575 15.6375 29.2188 15.7812 28.9313 16.0687C28.6438 16.3562 28.5 16.7125 28.5 17.1375C28.5 17.5625 28.6438 17.9187 28.9313 18.2062C29.2188 18.4937 29.575 18.6375 30 18.6375ZM34.8375 45.6375C34.2875 45.6375 33.7438 45.5625 33.2063 45.4125C32.6688 45.2625 32.15 45.025 31.65 44.7C31.925 44.35 32.2 43.9375 32.475 43.4625C32.75 42.9875 33 42.55 33.225 42.15C33.5 42.325 33.775 42.45 34.05 42.525C34.325 42.6 34.6 42.6375 34.875 42.6375C35.675 42.6375 36.3438 42.3562 36.8813 41.7937C37.4188 41.2312 37.6875 40.5625 37.6875 39.7875C37.6875 39.3125 37.5875 38.8 37.3875 38.25C37.1875 37.7 36.95 37.025 36.675 36.225L37.3875 35.025C38.4375 34.825 39.5313 34.5625 40.6688 34.2375C41.8063 33.9125 42.375 33.05 42.375 31.65C42.375 30.65 42.0063 29.925 41.2688 29.475C40.5313 29.025 39.725 28.8 38.85 28.8C37.8 28.8 36.575 29 35.175 29.4C33.775 29.8 32.1375 30.3125 30.2625 30.9375L29.475 28.0125C31.425 27.3875 33.1625 26.8625 34.6875 26.4375C36.2125 26.0125 37.6125 25.8 38.8875 25.8C40.6125 25.8 42.125 26.3125 43.425 27.3375C44.725 28.3625 45.375 29.8 45.375 31.65C45.375 32.275 45.2812 32.8687 45.0938 33.4312C44.9062 33.9937 44.6375 34.525 44.2875 35.025C45.3625 35.15 46.25 35.6437 46.95 36.5062C47.65 37.3687 48 38.3375 48 39.4125C48 40.6625 47.5688 41.725 46.7063 42.6C45.8438 43.475 44.775 43.9125 43.5 43.9125C42.85 43.9125 42.2188 43.7687 41.6063 43.4812C40.9938 43.1937 40.4875 42.7875 40.0875 42.2625C39.5875 43.3125 38.8813 44.1375 37.9688 44.7375C37.0563 45.3375 36.0125 45.6375 34.8375 45.6375ZM43.5375 40.9125C43.9625 40.9125 44.3125 40.7687 44.5875 40.4812C44.8625 40.1937 45 39.8375 45 39.4125C45 38.9875 44.8563 38.625 44.5688 38.325C44.2812 38.025 43.925 37.875 43.5 37.875C43.075 37.875 42.7188 38.0187 42.4313 38.3062C42.1438 38.5937 42 38.95 42 39.375C42 39.8 42.15 40.1625 42.45 40.4625C42.75 40.7625 43.1125 40.9125 43.5375 40.9125Z" fill="white"/>
</g>
<defs>
<clipPath id="clip0_5030_1811">
<rect width="36" height="36" fill="white" transform="translate(12 12)"/>
</clipPath>
</defs>
</svg>
