<svg width="60" height="60" viewBox="0 0 60 60" fill="none" xmlns="http://www.w3.org/2000/svg">
<circle cx="30" cy="30" r="29.5" stroke="white"/>
<path d="M18 44C17.175 44 16.4687 43.7062 15.8812 43.1187C15.2937 42.5312 15 41.825 15 41V24.5C15 23.675 15.2937 22.9687 15.8812 22.3812C16.4687 21.7937 17.175 21.5 18 21.5H25.5V17C25.5 16.175 25.7937 15.4687 26.3812 14.8812C26.9687 14.2937 27.675 14 28.5 14H31.5C32.325 14 33.0312 14.2937 33.6187 14.8812C34.2062 15.4687 34.5 16.175 34.5 17V21.5H42C42.825 21.5 43.5312 21.7937 44.1187 22.3812C44.7062 22.9687 45 23.675 45 24.5V41C45 41.825 44.7062 42.5312 44.1187 43.1187C43.5312 43.7062 42.825 44 42 44H18ZM18 41H42V24.5H34.5C34.5 25.325 34.2062 26.0312 33.6187 26.6187C33.0312 27.2062 32.325 27.5 31.5 27.5H28.5C27.675 27.5 26.9687 27.2062 26.3812 26.6187C25.7937 26.0312 25.5 25.325 25.5 24.5H18V41ZM21 38H30V37.325C30 36.9 29.8812 36.5062 29.6437 36.1437C29.4062 35.7812 29.075 35.5 28.65 35.3C28.15 35.075 27.6437 34.9062 27.1312 34.7937C26.6187 34.6812 26.075 34.625 25.5 34.625C24.925 34.625 24.3812 34.6812 23.8687 34.7937C23.3562 34.9062 22.85 35.075 22.35 35.3C21.925 35.5 21.5937 35.7812 21.3562 36.1437C21.1187 36.5062 21 36.9 21 37.325V38ZM33 35.75H39V33.5H33V35.75ZM25.5 33.5C26.125 33.5 26.6562 33.2812 27.0937 32.8437C27.5312 32.4062 27.75 31.875 27.75 31.25C27.75 30.625 27.5312 30.0938 27.0937 29.6562C26.6562 29.2187 26.125 29 25.5 29C24.875 29 24.3437 29.2187 23.9062 29.6562C23.4687 30.0938 23.25 30.625 23.25 31.25C23.25 31.875 23.4687 32.4062 23.9062 32.8437C24.3437 33.2812 24.875 33.5 25.5 33.5ZM33 31.25H39V29H33V31.25ZM28.5 24.5H31.5V17H28.5V24.5Z" fill="white"/>
</svg>
