<svg width="39" height="39" viewBox="0 0 39 39" fill="none" xmlns="http://www.w3.org/2000/svg">
<path d="M38.4822 19.2386C38.4822 29.8642 29.8678 38.478 19.2412 38.478C8.61436 38.478 0 29.8642 0 19.2386C0 8.61382 8.61436 0 19.2412 0C29.8678 0 38.4822 8.61382 38.4822 19.2386Z" fill="#505050"/>
<path d="M21.3694 31.4924V20.7708H24.9449L25.6252 16.3355H21.3694V13.4575C21.3694 12.2441 21.9635 11.0615 23.8697 11.0615H25.8049V7.28493C25.8049 7.28493 24.0488 6.98543 22.37 6.98543C18.8649 6.98543 16.5739 9.10942 16.5739 12.9554V16.3355H12.6777V20.7708H16.5739V31.4924H21.3694Z" fill="#A2A2A2"/>
</svg>
