<svg width="18" height="20" viewBox="0 0 18 20" fill="none" xmlns="http://www.w3.org/2000/svg">
<path d="M11.4358 17.1482C10.3897 18.4646 9.02432 19.2072 7.33964 19.3759C5.65497 19.5447 4.13563 19.091 2.78164 18.0151C1.42764 16.9391 0.642583 15.5615 0.426458 13.8822C0.210334 12.203 0.625317 10.7051 1.67141 9.38876L7.25391 2.36382C8.00831 1.41451 8.99129 0.879172 10.2029 0.757814C11.4145 0.636456 12.5085 0.963751 13.4849 1.7397C14.4613 2.51564 15.0273 3.50746 15.1827 4.71514C15.3381 5.92283 15.0387 7.00132 14.2843 7.95064L9.00352 14.5958C8.54083 15.1781 7.94024 15.5062 7.20175 15.5802C6.46326 15.6541 5.79458 15.4532 5.19569 14.9773C4.59681 14.5013 4.25 13.8953 4.15526 13.1592C4.06052 12.4231 4.2445 11.7639 4.70719 11.1817L10.2897 4.15675L11.852 5.39826L6.26949 12.4232C6.13873 12.5877 6.08593 12.7678 6.1111 12.9633C6.13626 13.1588 6.23347 13.3239 6.40272 13.4584C6.57197 13.5929 6.75468 13.6503 6.95084 13.6306C7.147 13.611 7.31046 13.5189 7.44122 13.3543L12.722 6.70913C13.1314 6.16716 13.2965 5.56522 13.2171 4.90329C13.1378 4.24136 12.8247 3.69313 12.2779 3.2586C11.7311 2.82407 11.123 2.64032 10.4538 2.70736C9.78453 2.7744 9.23867 3.07372 8.81621 3.60534L3.23371 10.6303C2.50653 11.5186 2.21947 12.5347 2.37253 13.6785C2.52559 14.8224 3.0643 15.7616 3.98867 16.4962C4.90001 17.2204 5.9236 17.5227 7.05944 17.4031C8.19528 17.2835 9.13329 16.7847 9.87349 15.9067L15.7578 8.50205L17.3201 9.74356L11.4358 17.1482Z" fill="black"/>
</svg>
