<svg width="48" height="48" viewBox="0 0 48 48" fill="none" xmlns="http://www.w3.org/2000/svg">
<circle opacity="0.8" cx="24" cy="24" r="24" fill="#969696"/>
<path d="M22.75 31.4086H25.25V26.3965L27.25 28.3173L29 26.6066L24 21.8045L19 26.6066L20.7812 28.2873L22.75 26.3965V31.4086ZM16.5 35.0101C15.8125 35.0101 15.224 34.775 14.7344 34.3048C14.2448 33.8346 14 33.2694 14 32.6091V13.401C14 12.7407 14.2448 12.1755 14.7344 11.7053C15.224 11.2351 15.8125 11 16.5 11H26.5L34 18.203V32.6091C34 33.2694 33.7552 33.8346 33.2656 34.3048C32.776 34.775 32.1875 35.0101 31.5 35.0101H16.5ZM25.25 19.4035V13.401H16.5V32.6091H31.5V19.4035H25.25Z" fill="white"/>
</svg>
