<svg width="60" height="60" viewBox="0 0 60 60" fill="none" xmlns="http://www.w3.org/2000/svg">
<circle cx="30" cy="30" r="29.5" stroke="white"/>
<path d="M13.5 30C13.5 27.7 13.9313 25.55 14.7938 23.55C15.6562 21.55 16.8375 19.8062 18.3375 18.3187C19.8375 16.8312 21.5875 15.6562 23.5875 14.7937C25.5875 13.9312 27.725 13.5 30 13.5C32.275 13.5 34.4125 13.9312 36.4125 14.7937C38.4125 15.6562 40.1625 16.8312 41.6625 18.3187C43.1625 19.8062 44.3438 21.55 45.2063 23.55C46.0688 25.55 46.5 27.7 46.5 30H43.5C43.5 28.125 43.1438 26.3687 42.4313 24.7312C41.7188 23.0937 40.75 21.6625 39.525 20.4375C38.3 19.2125 36.8688 18.25 35.2313 17.55C33.5938 16.85 31.85 16.5 30 16.5C28.15 16.5 26.4063 16.85 24.7688 17.55C23.1313 18.25 21.7 19.2125 20.475 20.4375C19.25 21.6625 18.2812 23.0937 17.5688 24.7312C16.8563 26.3687 16.5 28.125 16.5 30H13.5ZM19.5 30C19.5 27.05 20.525 24.5625 22.575 22.5375C24.625 20.5125 27.1 19.5 30 19.5C32.9 19.5 35.375 20.5125 37.425 22.5375C39.475 24.5625 40.5 27.05 40.5 30H37.5C37.5 27.925 36.7688 26.1562 35.3063 24.6937C33.8438 23.2312 32.075 22.5 30 22.5C27.925 22.5 26.1563 23.2312 24.6938 24.6937C23.2313 26.1562 22.5 27.925 22.5 30H19.5ZM25.5 45.6L23.4 43.5L28.5 38.4V33.45C27.825 33.15 27.2813 32.6875 26.8688 32.0625C26.4563 31.4375 26.25 30.75 26.25 30C26.25 28.95 26.6125 28.0625 27.3375 27.3375C28.0625 26.6125 28.95 26.25 30 26.25C31.05 26.25 31.9375 26.6125 32.6625 27.3375C33.3875 28.0625 33.75 28.95 33.75 30C33.75 30.75 33.5438 31.4375 33.1313 32.0625C32.7188 32.6875 32.175 33.15 31.5 33.45V38.4L36.6 43.5L34.5 45.6L30 41.1L25.5 45.6Z" fill="white"/>
</svg>
