<svg width="60" height="60" viewBox="0 0 60 60" fill="none" xmlns="http://www.w3.org/2000/svg">
<circle cx="30" cy="30" r="29.5" stroke="white"/>
<path d="M30 45C28.175 44.775 26.3625 44.2812 24.5625 43.5187C22.7625 42.7562 21.1562 41.6625 19.7437 40.2375C18.3312 38.8125 17.1875 37.0125 16.3125 34.8375C15.4375 32.6625 15 30.05 15 27V25.5H16.5C17.775 25.5 19.0875 25.6625 20.4375 25.9875C21.7875 26.3125 23.05 26.8 24.225 27.45C24.525 25.3 25.2062 23.0937 26.2687 20.8312C27.3312 18.5687 28.575 16.625 30 15C31.425 16.625 32.6687 18.5687 33.7312 20.8312C34.7937 23.0937 35.475 25.3 35.775 27.45C36.95 26.8 38.2125 26.3125 39.5625 25.9875C40.9125 25.6625 42.225 25.5 43.5 25.5H45V27C45 30.05 44.5625 32.6625 43.6875 34.8375C42.8125 37.0125 41.6687 38.8125 40.2562 40.2375C38.8437 41.6625 37.2437 42.7562 35.4562 43.5187C33.6687 44.2812 31.85 44.775 30 45ZM29.925 41.925C29.65 37.775 28.4187 34.6375 26.2312 32.5125C24.0437 30.3875 21.325 29.075 18.075 28.575C18.35 32.85 19.6187 36.0375 21.8812 38.1375C24.1437 40.2375 26.825 41.5 29.925 41.925ZM30 32.4C30.375 31.85 30.8312 31.2812 31.3687 30.6937C31.9062 30.1062 32.425 29.6 32.925 29.175C32.875 27.75 32.5937 26.2625 32.0812 24.7125C31.5687 23.1625 30.875 21.65 30 20.175C29.125 21.65 28.4312 23.1625 27.9187 24.7125C27.4062 26.2625 27.125 27.75 27.075 29.175C27.575 29.6 28.1 30.1062 28.65 30.6937C29.2 31.2812 29.65 31.85 30 32.4ZM32.925 41.25C33.85 40.95 34.8125 40.5125 35.8125 39.9375C36.8125 39.3625 37.7437 38.5812 38.6062 37.5937C39.4687 36.6062 40.2062 35.375 40.8187 33.9C41.4312 32.425 41.8 30.65 41.925 28.575C39.575 28.925 37.5125 29.7062 35.7375 30.9187C33.9625 32.1312 32.6 33.675 31.65 35.55C31.95 36.35 32.2062 37.225 32.4187 38.175C32.6312 39.125 32.8 40.15 32.925 41.25Z" fill="white"/>
</svg>
