<svg width="20" height="19" viewBox="0 0 20 19" fill="none" xmlns="http://www.w3.org/2000/svg">
<path d="M15.2714 12.7714C14.1797 13.8632 12.7951 15.1651 11.1157 16.6782C11.1156 16.6783 11.1155 16.6784 11.1153 16.6785L10 17.6785L8.88469 16.6785C8.88454 16.6784 8.8844 16.6783 8.88426 16.6782C7.20494 15.1651 5.82026 13.8632 4.72855 12.7714C3.63918 11.6821 2.78211 10.7134 2.15137 9.86434C1.52024 9.01474 1.09558 8.25518 0.859094 7.58387C0.619291 6.90314 0.5 6.20927 0.5 5.5C0.5 4.05783 0.977907 2.8792 1.92855 1.92855C2.8792 0.977907 4.05783 0.5 5.5 0.5C6.29356 0.5 7.04619 0.667301 7.76303 1.00285C8.48066 1.33876 9.09824 1.81113 9.61903 2.42382L10 2.87202L10.381 2.42382C10.9018 1.81113 11.5193 1.33876 12.237 1.00285C12.9538 0.667301 13.7064 0.5 14.5 0.5C15.9422 0.5 17.1208 0.977907 18.0714 1.92855C19.0221 2.8792 19.5 4.05783 19.5 5.5C19.5 6.20927 19.3807 6.90314 19.1409 7.58387C18.9044 8.25518 18.4798 9.01474 17.8486 9.86434C17.2179 10.7134 16.3608 11.6821 15.2714 12.7714Z" stroke="white"/>
</svg>
