<svg width="39" height="39" viewBox="0 0 39 39" fill="none" xmlns="http://www.w3.org/2000/svg">
<path d="M38.4823 19.2386C38.4823 29.8642 29.8675 38.478 19.2407 38.478C8.61477 38.478 0 29.8642 0 19.2386C0 8.61382 8.61477 0 19.2407 0C29.8675 0 38.4823 8.61382 38.4823 19.2386Z" fill="#505050"/>
<path d="M24.5431 12.802C23.8947 12.802 23.3691 13.3275 23.3691 13.9758C23.3691 14.624 23.8947 15.1504 24.5431 15.1504C25.1914 15.1504 25.717 14.624 25.717 13.9758C25.717 13.3275 25.1914 12.802 24.5431 12.802Z" fill="#A2A2A2"/>
<path d="M19.3231 22.3974C17.5816 22.3974 16.1638 20.9806 16.1638 19.2384C16.1638 17.4971 17.5816 16.0803 19.3231 16.0803C21.0654 16.0803 22.4824 17.4971 22.4824 19.2384C22.4824 20.9806 21.0654 22.3974 19.3231 22.3974ZM19.3231 14.3075C16.6038 14.3075 14.3916 16.5194 14.3916 19.2384C14.3916 21.9582 16.6038 24.1702 19.3231 24.1702C22.0424 24.1702 24.2554 21.9582 24.2554 19.2384C24.2554 16.5194 22.0424 14.3075 19.3231 14.3075Z" fill="#A2A2A2"/>
<path d="M15.2435 11.1106C12.9651 11.1106 11.1121 12.9634 11.1121 15.2415V23.2362C11.1121 25.5143 12.9651 27.3671 15.2435 27.3671H23.239C25.5166 27.3671 27.3704 25.5143 27.3704 23.2362V15.2415C27.3704 12.9634 25.5166 11.1106 23.239 11.1106H15.2435ZM23.239 29.2505H15.2435C11.9268 29.2505 9.22852 26.5525 9.22852 23.2362V15.2415C9.22852 11.9252 11.9268 9.2272 15.2435 9.2272H23.239C26.5557 9.2272 29.254 11.9252 29.254 15.2415V23.2362C29.254 26.5525 26.5557 29.2505 23.239 29.2505Z" fill="#A2A2A2"/>
</svg>
