<svg width="24" height="24" viewBox="0 0 24 24" fill="none" xmlns="http://www.w3.org/2000/svg">
<path d="M17.2381 22H7.71429V9L14.381 2L15.5714 3.25C15.6825 3.36667 15.7738 3.525 15.8452 3.725C15.9167 3.925 15.9524 4.11667 15.9524 4.3V4.65L14.9048 9H20.0952C20.6032 9 21.0476 9.2 21.4286 9.6C21.8095 10 22 10.4667 22 11V13C22 13.1167 21.9881 13.2417 21.9643 13.375C21.9405 13.5083 21.9048 13.6333 21.8571 13.75L19 20.8C18.8571 21.1333 18.619 21.4167 18.2857 21.65C17.9524 21.8833 17.6032 22 17.2381 22ZM5.80952 9V22H2V9H5.80952Z" fill="#5F6368"/>
</svg>
