<svg width="108" height="241" viewBox="0 0 108 241" fill="none" xmlns="http://www.w3.org/2000/svg">
<path d="M26.908 213.105C27.3408 216.396 29.3315 218.907 31.3222 220.552C33.3129 222.197 35.217 222.89 35.217 222.89C35.217 222.89 35.6498 222.37 36.1691 221.418C36.6884 220.552 37.3809 219.167 38.0733 217.695C38.6791 216.222 39.285 214.491 39.6312 212.759C39.8909 211.027 39.8909 209.122 39.4581 207.477C38.5926 204.186 36.1691 202.021 34.1784 200.636C32.1012 199.25 30.2836 198.558 30.2836 198.558C30.2836 198.558 30.0239 199.077 29.6777 199.943C29.3315 200.809 28.8122 201.935 28.2929 203.32C27.3408 206.005 26.4753 209.815 26.908 213.105Z" fill="white"/>
<path d="M41.9679 201.153C42.92 204.271 45.1703 206.435 47.3341 207.648C49.4979 208.947 51.3155 209.293 51.3155 209.293C51.3155 209.293 52.4407 206.955 53.3062 203.924C53.6524 202.366 53.9987 200.72 54.0852 198.902C53.9987 197.17 53.739 195.438 53.1331 193.88C51.7483 190.849 49.1517 189.117 46.9879 188.078C44.8241 187.039 43.0065 186.692 43.0065 186.692C43.0065 186.692 42.8334 187.212 42.6603 188.078C42.4007 189.03 42.141 190.156 41.7948 191.542C41.2755 194.313 41.0158 198.036 41.9679 201.153Z" fill="white"/>
<path d="M54.6051 187.213C56.0764 190.157 58.4999 191.802 60.7503 192.668C62.9141 193.534 64.7317 193.62 64.7317 193.62C64.7317 193.62 65.5106 191.196 65.8568 188.165C66.2031 185.134 65.8568 181.324 64.1258 178.553C62.4813 175.782 59.7116 174.57 57.4613 173.877C55.2109 173.185 53.4799 173.185 53.4799 173.185C53.4799 173.185 53.3933 173.704 53.3068 174.57C53.2202 175.436 53.1337 176.648 53.0471 178.034C52.9606 180.718 53.1337 184.268 54.6051 187.213Z" fill="white"/>
<path d="M64.6442 171.714C66.4618 174.312 69.0584 175.524 71.2222 176.043C73.4725 176.563 75.2036 176.39 75.2036 176.39C75.2036 176.39 75.5498 173.965 75.4632 171.021C75.4632 168.077 74.5112 164.44 72.5205 162.016C70.4432 159.591 67.6735 158.812 65.4232 158.465C63.1728 158.119 61.5283 158.379 61.5283 158.379C61.5283 158.379 61.5283 158.898 61.5283 159.764C61.6149 160.543 61.788 161.756 61.8745 163.141C62.1342 165.739 62.8266 169.116 64.6442 171.714Z" fill="white"/>
<path d="M71.9148 155.088C73.992 157.34 76.6752 158.205 78.839 158.379C81.0028 158.552 82.7338 158.119 82.7338 158.119C82.7338 158.119 82.6473 155.781 82.128 152.923C81.8683 151.538 81.5221 149.979 80.8297 148.594C80.0507 147.122 79.1852 145.736 78.06 144.784C75.7231 142.705 72.9534 142.272 70.7896 142.272C68.6258 142.272 67.0679 142.792 67.0679 142.792C67.0679 142.792 67.0679 143.225 67.241 144.091C67.5006 144.87 67.7603 145.996 68.0199 147.295C68.7124 149.719 69.8375 152.923 71.9148 155.088Z" fill="white"/>
<path d="M76.5015 137.943C78.7519 139.761 81.3485 140.194 83.5123 140.107C85.6761 140.021 87.1475 139.415 87.1475 139.415C87.1475 139.415 86.8013 137.163 85.8492 134.479C84.8971 131.881 83.4257 128.85 80.9157 127.205C78.4057 125.56 75.7226 125.473 73.6453 125.733C71.5681 126.08 70.0967 126.686 70.0967 126.686C70.0967 126.686 70.2698 127.205 70.5294 127.985C70.7891 128.677 71.1353 129.716 71.6546 130.929C72.6067 133.267 74.1646 136.124 76.5015 137.943Z" fill="white"/>
<path d="M78.3201 120.623C80.657 122.095 83.2536 122.182 85.2443 121.749C87.3215 121.402 88.7063 120.623 88.7063 120.623C88.7063 120.623 88.5332 120.103 88.2736 119.237C88.0139 118.458 87.4946 117.332 86.8022 116.12C85.5039 113.696 83.6863 111.011 81.1763 109.712C78.5797 108.413 75.9832 108.76 73.9925 109.279C72.0883 109.799 70.79 110.665 70.79 110.665C70.79 110.665 70.9631 111.098 71.3094 111.79C71.6556 112.483 72.0883 113.436 72.7807 114.475C73.9925 116.553 76.0697 119.151 78.3201 120.623Z" fill="white"/>
<path d="M77.6262 103.566C80.0496 104.605 82.5596 104.432 84.3772 103.825C86.2814 103.219 87.4931 102.267 87.4931 102.267C87.4931 102.267 87.32 101.834 86.9738 101.055C86.6276 100.275 86.0217 99.2361 85.1562 98.197C83.5983 96.0322 81.4345 93.6942 78.9244 92.8282C76.3279 91.8757 73.8179 92.4819 72.0868 93.2612C70.3558 93.9539 69.144 94.9065 69.144 94.9065C69.144 94.9065 70.0096 96.4651 71.481 98.3701C73.0389 100.189 75.2027 102.44 77.6262 103.566Z" fill="white"/>
<path d="M74.511 87.1131C77.021 87.8924 79.3579 87.2862 81.0889 86.5069C82.7334 85.7276 83.8586 84.6885 83.8586 84.6885C83.8586 84.6885 83.5989 84.2555 83.0796 83.6494C82.6469 82.9566 82.041 82.0041 81.0889 81.1382C79.3579 79.2332 76.9344 77.3281 74.3379 76.722C71.8278 76.1158 69.5775 76.9818 67.933 77.9343C66.2885 78.8868 65.3364 79.9259 65.3364 79.9259C65.3364 79.9259 66.3751 81.3114 68.0195 82.87C68.8851 83.736 69.9237 84.5153 71.0489 85.2946C72.0875 86.074 73.2992 86.6801 74.511 87.1131Z" fill="white"/>
<path d="M69.2314 71.612C71.7415 72.0449 73.9053 71.2656 75.4632 70.3131C76.9346 69.3606 77.8001 68.2349 77.8001 68.2349C77.8001 68.2349 76.6749 66.7628 74.8573 65.1176C72.8666 63.5589 70.3566 62.0002 67.7601 61.7405C65.25 61.4807 63.2593 62.5198 61.788 63.6455C60.4031 64.6846 59.5376 65.8103 59.5376 65.8103C59.5376 65.8103 60.7493 67.0226 62.5669 68.3215C64.4711 69.6204 66.7214 71.179 69.2314 71.612Z" fill="white"/>
<path d="M62.0479 57.2384C64.4713 57.3249 66.462 56.3724 67.7603 55.3333C69.1451 54.2942 69.8376 53.1685 69.8376 53.1685C69.8376 53.1685 68.5393 51.8696 66.5486 50.4842C64.731 49.1853 61.8748 48.0596 59.4513 48.0596C57.0278 48.1462 55.2102 49.3585 53.912 50.4842C52.7002 51.6964 52.0078 52.8221 52.0078 52.8221C52.0078 52.8221 53.3061 53.8613 55.2102 54.9004C57.2009 55.8529 59.5379 57.1518 62.0479 57.2384Z" fill="white"/>
<path d="M53.1328 44.2503C55.4697 44.0771 57.2873 42.9514 58.4125 41.8257C59.6242 40.7 60.1436 39.5743 60.1436 39.5743C60.1436 39.5743 58.7587 38.4486 56.6815 37.4961C55.7294 36.9765 54.6042 36.457 53.3925 36.1106C52.0942 35.8508 50.8825 35.7642 49.6707 35.8508C47.3338 36.1972 45.6893 37.4961 44.6507 38.795C43.5255 40.0073 43.0928 41.133 43.0928 41.133C43.0928 41.133 44.3911 41.9989 46.3818 42.6916C48.2859 43.5575 50.7959 44.4235 53.1328 44.2503Z" fill="white"/>
<path d="M42.8324 32.8187C45.0828 32.3857 46.6407 31.0869 47.6793 29.9612C48.718 28.7489 49.0642 27.6232 49.0642 27.6232C49.0642 27.6232 47.5928 26.7572 45.5155 26.0645C43.4383 25.2852 40.9283 24.679 38.6779 25.1986C36.4275 25.7181 34.9562 27.1902 34.0906 28.4891C33.2251 29.7014 32.8789 30.8271 32.8789 30.8271C32.8789 30.8271 33.2251 31.0003 33.831 31.26C34.4368 31.4332 35.2158 31.7796 36.1679 32.0394C38.072 32.6455 40.5821 33.1651 42.8324 32.8187Z" fill="white"/>
<path d="M31.4082 22.9478C33.4855 22.3416 34.8703 21.0427 35.6493 19.8304C36.5148 18.6181 36.861 17.4924 36.861 17.4924C36.861 17.4924 36.4282 17.3193 35.8224 17.0595C35.2165 16.7997 34.351 16.5399 33.3124 16.2802C31.2351 15.8472 28.7251 15.5874 26.6478 16.2802C24.5706 16.8863 23.3588 18.3584 22.6664 19.6573C21.8875 20.9561 21.7144 22.0818 21.7144 22.0818C21.7144 22.0818 23.0126 22.6014 24.9168 22.9478C26.8209 23.2941 29.3309 23.4673 31.4082 22.9478Z" fill="white"/>
<path d="M41.4481 234.145C38.1591 232.586 36.6877 229.729 35.9953 227.391C35.2163 224.966 35.2163 222.974 35.2163 222.974C35.2163 222.974 35.9087 222.801 36.9474 222.455C37.8994 222.195 39.3708 221.849 41.0153 221.589C42.6598 221.329 44.5639 221.069 46.4681 221.069C48.3722 221.069 50.1898 221.156 51.9209 221.762C55.2099 222.801 57.2006 225.399 58.1526 227.824C59.1047 230.162 59.1913 232.326 59.1913 232.326C59.1913 232.326 58.4989 232.673 57.3737 233.106C56.2485 233.539 54.604 234.058 52.7864 234.405C49.0647 235.27 44.7371 235.703 41.4481 234.145Z" fill="white"/>
<path d="M59.364 219.078C55.902 218.126 54.0844 215.701 52.9592 213.536C51.834 211.372 51.4878 209.38 51.4878 209.38C51.4878 209.38 53.6516 208.254 56.7675 207.129C58.3254 206.609 60.143 206.176 61.9606 205.83C63.6917 205.397 65.5093 205.224 67.1537 205.483C70.6158 206.003 72.8662 208.081 74.1645 210.246C75.5493 212.324 75.9821 214.316 75.9821 214.316C75.9821 214.316 75.3762 214.749 74.3376 215.355C73.3855 216.048 71.9141 216.74 70.1831 217.433C66.8075 218.819 62.653 219.858 59.364 219.078Z" fill="white"/>
<path d="M74.0764 201.587C70.7874 201.327 68.4505 199.249 67.0657 197.43C65.5943 195.525 64.9019 193.793 64.9019 193.793C64.9019 193.793 66.8926 192.235 69.6622 190.763C72.605 189.29 75.9805 187.559 79.3561 187.472C82.7316 187.385 85.2416 189.031 86.7996 190.763C88.4441 192.494 89.223 194.399 89.223 194.399C89.223 194.399 88.7037 194.832 87.8382 195.612C86.9727 196.391 85.7609 197.344 84.203 198.296C81.1737 200.114 77.3654 201.846 74.0764 201.587Z" fill="white"/>
<path d="M85.5018 182.449C82.2994 182.795 79.876 181.237 78.1449 179.678C76.5004 178.119 75.5483 176.561 75.5483 176.561C75.5483 176.561 77.1063 174.829 79.6163 172.924C82.1263 171.019 85.1556 168.767 88.3581 168.161C91.4739 167.555 94.1571 168.681 95.9747 170.066C97.7923 171.452 98.8309 173.097 98.8309 173.097C98.8309 173.097 98.3981 173.703 97.7057 174.482C97.0133 175.348 96.0612 176.561 94.6764 177.6C92.0798 179.851 88.7043 182.103 85.5018 182.449Z" fill="white"/>
<path d="M93.5509 162.187C90.6082 163.053 88.0116 162.014 86.1075 160.801C84.2899 159.589 83.0781 158.29 83.0781 158.29C83.0781 158.29 84.3764 156.385 86.3671 154.134C87.4057 153.008 88.704 151.882 89.9157 150.843C91.1275 149.717 92.5123 148.765 93.9837 148.245C96.9265 147.12 99.6961 147.812 101.6 148.852C103.591 149.804 104.803 151.19 104.803 151.19C104.803 151.19 104.543 151.796 104.024 152.748C103.418 153.614 102.725 154.913 101.6 156.125C99.4365 158.636 96.5803 161.321 93.5509 162.187Z" fill="white"/>
<path d="M98.311 141.492C95.5413 142.791 92.8582 142.184 90.954 141.405C88.9633 140.539 87.665 139.5 87.665 139.5C87.665 139.5 88.6171 137.422 90.1751 134.997C91.733 132.573 94.0699 129.715 96.5799 128.243C99.1765 126.684 101.86 126.858 103.85 127.55C105.928 128.157 107.312 129.282 107.312 129.282C107.312 129.282 107.139 129.888 106.793 130.841C106.36 131.793 105.668 133.092 104.889 134.478C103.331 137.162 100.994 140.193 98.311 141.492Z" fill="white"/>
<path d="M99.6973 120.882C97.1873 122.527 94.5907 122.44 92.6 121.921C90.6959 121.488 89.311 120.622 89.311 120.622C89.311 120.622 89.4841 120.102 89.8303 119.237C90.09 118.457 90.5228 117.245 91.0421 116.033C92.1673 113.435 93.8983 110.404 96.1487 108.499C98.399 106.681 100.996 106.421 102.986 106.767C105.064 107.027 106.535 107.806 106.535 107.806C106.535 107.806 106.448 108.412 106.189 109.452C105.929 110.404 105.496 111.703 104.977 113.088C103.852 115.946 102.294 119.15 99.6973 120.882Z" fill="white"/>
<path d="M98.1391 100.793C95.9752 102.698 93.5518 103.044 91.5611 102.871C89.6569 102.785 88.1855 102.178 88.1855 102.178C88.1855 102.178 88.2721 101.659 88.4452 100.793C88.7049 99.927 88.878 98.8013 89.2242 97.5024C89.9166 94.9046 91.0418 91.7873 92.9459 89.6225C94.9366 87.4577 97.2735 86.8515 99.2642 86.8515C101.255 86.7649 102.726 87.2845 102.726 87.2845C102.726 87.2845 102.64 89.7091 102.034 92.5666C101.428 95.4242 100.303 98.8013 98.1391 100.793Z" fill="white"/>
<path d="M93.7253 81.5709C91.9943 83.8223 89.7439 84.515 87.8398 84.6882C86.0222 84.8614 84.5508 84.515 84.5508 84.515C84.5508 84.515 84.5508 83.9954 84.6373 83.1295C84.6373 82.3502 84.8104 81.1379 84.897 79.9256C85.1566 77.3278 85.7625 74.1239 87.2339 71.7859C88.7918 69.5345 90.9556 68.4954 92.8598 68.1491C94.6774 67.8027 96.1488 68.1491 96.1488 68.1491C96.1488 68.1491 96.4084 70.4005 96.2353 73.1714C96.1488 74.6435 95.9757 76.1155 95.6295 77.5876C95.1967 79.0597 94.5908 80.4452 93.7253 81.5709Z" fill="white"/>
<path d="M86.8872 63.7317C85.5889 66.0697 83.5117 67.1088 81.7806 67.5418C80.0496 67.9748 78.6647 67.8882 78.6647 67.8882C78.6647 67.8882 78.3185 65.9831 78.3185 63.472C78.1454 60.9608 78.232 57.8435 79.3572 55.4189C80.4823 52.9943 82.3865 51.6954 84.1175 51.0893C85.762 50.4831 87.1469 50.5697 87.1469 50.5697C87.1469 50.5697 87.7527 52.6479 88.0124 55.3323C88.3586 58.0166 88.0989 61.3071 86.8872 63.7317Z" fill="white"/>
<path d="M77.7995 47.3667C76.934 49.8779 75.1164 51.0902 73.5585 51.783C72.0005 52.4757 70.7023 52.6489 70.7023 52.6489C70.7023 52.6489 70.0964 50.8304 69.6636 48.4924C69.3174 46.0679 68.8847 43.1237 69.5771 40.6991C70.2695 38.188 71.914 36.7159 73.3854 35.85C74.8568 35.0706 76.2416 34.8975 76.2416 34.8975C76.2416 34.8975 77.1071 36.8025 77.713 39.2271C78.492 41.7382 78.5785 45.0288 77.7995 47.3667Z" fill="white"/>
<path d="M66.8931 32.9045C66.4603 35.3291 64.989 36.8011 63.6041 37.6671C62.2193 38.533 61.0076 38.8793 61.0076 38.8793C61.0076 38.8793 60.142 37.3207 59.4496 35.0693C59.1034 33.9436 58.7572 32.7313 58.4975 31.4324C58.2379 30.1335 58.1513 28.8346 58.3244 27.6223C58.5841 25.1978 59.8824 23.5525 61.1807 22.5134C62.4789 21.5609 63.6907 21.1279 63.6907 21.1279C63.6907 21.1279 64.8159 22.8598 65.7679 25.1112C66.6334 27.4492 67.3259 30.3933 66.8931 32.9045Z" fill="white"/>
<path d="M54.5173 20.1753C54.5173 22.5998 53.3056 24.1585 52.1804 25.2842C50.9687 26.3233 49.8435 26.7563 49.8435 26.7563C49.8435 26.7563 48.8914 25.3708 47.8528 23.3792C46.8142 21.4741 45.8621 18.7898 45.7756 16.4518C45.689 14.1138 46.7276 12.382 47.7663 11.2563C48.8049 10.044 49.9301 9.52441 49.9301 9.52441C49.9301 9.52441 50.1897 9.87078 50.709 10.4769C51.1418 11.0831 51.7477 12.0356 52.3535 13.0747C53.4787 15.1529 54.6039 17.8373 54.5173 20.1753Z" fill="white"/>
<path d="M41.0145 9.52515C41.2741 11.8631 40.4086 13.595 39.4565 14.7207C38.5045 15.8464 37.5524 16.4525 37.5524 16.4525C37.5524 16.4525 37.2927 16.1928 36.86 15.5866C36.4272 15.0671 35.9079 14.3743 35.2155 13.5084C34.0038 11.7765 32.7055 9.52515 32.2727 7.18716C31.9265 4.93576 32.6189 3.11732 33.3979 1.90503C34.2634 0.692738 35.2155 0 35.2155 0C35.2155 0 36.5138 1.29888 37.8986 3.11732C39.2834 4.93576 40.7548 7.18716 41.0145 9.52515Z" fill="white"/>
<path d="M0.941688 238.821C23.878 231.461 44.4775 217.173 59.6241 198.556C74.8573 180.025 84.7242 156.992 87.1477 133.006C89.7443 109.106 85.5032 84.5139 74.6842 62.9524C63.9517 41.4775 46.8144 23.2065 26.1284 10.997C25.5225 10.6507 25.1763 9.87132 25.5225 9.35177C25.8687 8.83221 26.6477 8.65903 27.2536 9.0054C48.3723 21.4747 65.7693 40.092 76.6749 61.9999C87.667 83.8211 92.0812 108.933 89.398 133.265C86.888 157.598 76.848 181.064 61.3551 200.028C45.9488 218.905 25.0032 233.539 1.63411 240.899C0.941688 241.159 0.24927 240.899 0.0761659 240.293C-0.183491 239.687 0.24927 238.994 0.941688 238.821Z" fill="white"/>
<path d="M22.3198 3.46393C24.7432 4.84941 26.4743 6.92763 27.5994 8.57288C28.2053 9.4388 28.6381 10.1315 28.8112 10.7377C29.0708 11.2572 29.1574 11.6036 29.1574 11.6036C29.1574 11.6036 28.8112 11.6902 28.2053 11.6902C27.686 11.6036 26.8205 11.6902 25.7818 11.6036C23.7911 11.4304 21.2811 10.9975 18.9442 9.69858C16.6073 8.48629 14.7897 6.66785 13.578 5.10919C12.2797 3.55053 11.6738 2.25164 11.6738 2.25164C11.6738 2.25164 12.9721 1.90527 15.0494 1.90527C17.0401 1.90527 19.8097 2.16505 22.3198 3.46393Z" fill="white"/>
</svg>
