<svg width="108" height="241" viewBox="0 0 108 241" fill="none" xmlns="http://www.w3.org/2000/svg">
<path d="M65.8663 234.145C69.1552 232.586 70.5401 229.729 71.319 227.391C72.098 224.966 72.098 222.974 72.098 222.974C72.098 222.974 71.4056 222.801 70.367 222.455C69.3283 222.195 67.9435 221.849 66.299 221.589C64.568 221.329 62.7504 221.069 60.8462 221.069C58.9421 221.069 57.1245 221.156 55.3934 221.762C52.0179 222.801 50.1137 225.399 49.1617 227.824C48.2096 230.162 48.123 232.326 48.123 232.326C48.123 232.326 48.8155 232.673 49.9406 233.106C51.0658 233.539 52.7103 234.058 54.5279 234.405C58.2497 235.27 62.4907 235.703 65.8663 234.145Z" fill="white"/>
<path d="M47.9496 219.078C51.3251 218.126 53.2293 215.701 54.3544 213.536C55.4796 211.372 55.8258 209.38 55.8258 209.38C55.8258 209.38 53.662 208.254 50.5461 207.129C48.9882 206.609 47.1706 206.176 45.353 205.83C43.622 205.397 41.8044 205.224 40.0733 205.483C36.6978 206.003 34.4474 208.081 33.1491 210.246C31.7643 212.324 31.3315 214.316 31.3315 214.316C31.3315 214.316 31.9374 214.749 32.976 215.355C33.9281 216.048 35.3995 216.74 37.1305 217.433C40.5061 218.819 44.6606 219.858 47.9496 219.078Z" fill="white"/>
<path d="M33.2355 201.587C36.5245 201.327 38.7748 199.249 40.2462 197.43C41.7176 195.525 42.3235 193.793 42.3235 193.793C42.3235 193.793 40.4193 192.235 37.5631 190.763C34.7069 189.29 31.2448 187.559 27.9558 187.472C24.5803 187.385 22.0703 189.031 20.4258 190.763C18.8678 192.494 18.0889 194.399 18.0889 194.399C18.0889 194.399 18.6082 194.832 19.4737 195.612C20.3392 196.391 21.551 197.344 23.0223 198.296C26.0517 200.114 29.9465 201.846 33.2355 201.587Z" fill="white"/>
<path d="M21.8115 182.449C25.0139 182.795 27.4374 181.237 29.1684 179.678C30.8129 178.119 31.765 176.561 31.765 176.561C31.765 176.561 30.1205 174.829 27.697 172.924C25.187 171.019 22.1577 168.767 18.9552 168.161C15.8394 167.555 13.1562 168.681 11.3386 170.066C9.52105 171.452 8.48242 173.097 8.48242 173.097C8.48242 173.097 8.91518 173.703 9.6076 174.482C10.3 175.348 11.2521 176.561 12.5504 177.6C15.1469 179.851 18.5225 182.103 21.8115 182.449Z" fill="white"/>
<path d="M13.676 162.187C16.7053 163.053 19.3019 162.014 21.206 160.801C23.0236 159.589 24.2353 158.29 24.2353 158.29C24.2353 158.29 22.9371 156.385 20.8598 154.134C19.9077 153.008 18.6095 151.882 17.3977 150.843C16.0994 149.717 14.7146 148.765 13.3298 148.245C10.387 147.12 7.61732 147.812 5.71317 148.852C3.72247 149.804 2.51074 151.19 2.51074 151.19C2.51074 151.19 2.7704 151.796 3.28971 152.748C3.80903 153.614 4.588 154.913 5.71317 156.125C7.79043 158.636 10.7332 161.321 13.676 162.187Z" fill="white"/>
<path d="M9.00143 141.492C11.7711 142.791 14.4542 142.184 16.3584 141.405C18.2625 140.539 19.5608 139.5 19.5608 139.5C19.5608 139.5 18.6953 137.422 17.1373 134.997C15.5794 132.573 13.2425 129.715 10.7325 128.243C8.13591 126.684 5.45279 126.858 3.37554 127.55C1.38484 128.157 0 129.282 0 129.282C0 129.282 0.173104 129.888 0.519313 130.841C0.952074 131.793 1.55794 133.092 2.33691 134.478C3.9814 137.162 6.31831 140.193 9.00143 141.492Z" fill="white"/>
<path d="M7.61692 120.882C10.1269 122.527 12.7235 122.44 14.6277 121.921C16.6184 121.488 18.0032 120.622 18.0032 120.622C18.0032 120.622 17.8301 120.102 17.4839 119.237C17.2242 118.457 16.7915 117.245 16.2721 116.033C15.147 113.435 13.4159 110.404 11.1656 108.499C8.91521 106.681 6.31864 106.421 4.24139 106.767C2.25068 107.027 0.779297 107.806 0.779297 107.806C0.779297 107.806 0.865849 108.412 1.12551 109.452C1.38516 110.404 1.81792 111.703 2.33724 113.088C3.46242 115.946 5.02036 119.15 7.61692 120.882Z" fill="white"/>
<path d="M9.17418 100.793C11.338 102.698 13.7614 103.044 15.7521 102.871C17.6563 102.785 19.0411 102.178 19.0411 102.178C19.0411 102.178 19.0411 101.659 18.7815 100.793C18.6084 99.927 18.4353 98.8013 18.0891 97.5024C17.3966 94.9046 16.2715 91.7873 14.2808 89.6225C12.3766 87.4577 10.0397 86.8515 8.049 86.8515C6.0583 86.7649 4.58691 87.2845 4.58691 87.2845C4.58691 87.2845 4.67347 89.7091 5.27933 92.5666C5.8852 95.4242 7.01038 98.8013 9.17418 100.793Z" fill="white"/>
<path d="M13.5886 81.5709C15.2331 83.8223 17.57 84.515 19.3876 84.6882C21.2917 84.8614 22.6765 84.515 22.6765 84.515C22.6765 84.515 22.6765 83.9954 22.6765 83.1295C22.6765 82.3502 22.5034 81.1379 22.4169 79.9256C22.1572 77.3278 21.5514 74.1239 19.9934 71.7859C18.522 69.5345 16.2717 68.4954 14.4541 68.1491C12.6365 67.8027 11.1651 68.1491 11.1651 68.1491C11.1651 68.1491 10.9054 70.4005 11.0785 73.1714C11.1651 74.6435 11.3382 76.1155 11.6844 77.5876C12.1172 79.0597 12.723 80.4452 13.5886 81.5709Z" fill="white"/>
<path d="M20.4266 63.7317C21.7249 66.0697 23.8022 67.1088 25.5332 67.5418C27.2642 67.9748 28.6491 67.8882 28.6491 67.8882C28.6491 67.8882 28.9953 65.9831 28.9953 63.472C29.1684 60.9608 29.0818 57.8435 27.9567 55.4189C26.8315 52.9943 24.9273 51.6954 23.1963 51.0893C21.5518 50.4831 20.0804 50.5697 20.0804 50.5697C20.0804 50.5697 19.5611 52.6479 19.3014 55.3323C18.9552 58.0166 19.1283 61.3071 20.4266 63.7317Z" fill="white"/>
<path d="M29.5138 47.3667C30.3793 49.8779 32.1969 51.0902 33.7548 51.783C35.3128 52.4757 36.611 52.6489 36.611 52.6489C36.611 52.6489 37.2169 50.8304 37.5631 48.4924C37.9093 46.0679 38.4286 43.1237 37.7362 40.6991C37.0438 38.188 35.3993 36.7159 33.9279 35.85C32.37 35.0706 31.0717 34.8975 31.0717 34.8975C31.0717 34.8975 30.2062 36.8025 29.5138 39.2271C28.8213 41.7382 28.6482 45.0288 29.5138 47.3667Z" fill="white"/>
<path d="M40.4201 32.9045C40.8529 35.3291 42.3242 36.8011 43.7091 37.6671C45.0939 38.533 46.3057 38.8793 46.3057 38.8793C46.3057 38.8793 47.0846 37.3207 47.8636 35.0693C48.2098 33.9436 48.556 32.7313 48.7291 31.4324C49.0753 30.1335 49.1619 28.8346 48.9888 27.6223C48.7291 25.1978 47.4308 23.5525 46.1325 22.5134C44.8343 21.5609 43.6225 21.1279 43.6225 21.1279C43.6225 21.1279 42.4974 22.8598 41.5453 25.1112C40.6798 27.4492 39.9008 30.3933 40.4201 32.9045Z" fill="white"/>
<path d="M52.71 20.1753C52.7965 22.5998 54.0082 24.1585 55.1334 25.2842C56.2586 26.3233 57.3838 26.7563 57.3838 26.7563C57.3838 26.7563 58.4224 25.3708 59.461 23.3792C60.4131 21.4741 61.4517 18.7898 61.5383 16.4518C61.6248 14.1138 60.5862 12.382 59.5476 11.2563C58.509 10.044 57.3838 9.52441 57.3838 9.52441C57.3838 9.52441 57.0376 9.87078 56.6048 10.4769C56.0855 11.0831 55.5662 12.0356 54.9603 13.0747C53.8351 15.1529 52.71 17.8373 52.71 20.1753Z" fill="white"/>
<path d="M66.2991 9.52515C66.0395 11.8631 66.905 13.595 67.8571 14.7207C68.8091 15.8464 69.7612 16.4525 69.7612 16.4525C69.7612 16.4525 70.0209 16.1928 70.4536 15.5866C70.7998 15.0671 71.4057 14.3743 72.0116 13.5084C73.3098 11.7765 74.6081 9.52515 75.0409 7.18716C75.3871 4.93576 74.6947 3.11732 73.8292 1.90503C73.0502 0.692738 72.0981 0 72.0981 0C72.0981 0 70.7998 1.29888 69.415 3.11732C68.0302 4.93576 66.5588 7.18716 66.2991 9.52515Z" fill="white"/>
<path d="M80.408 213.105C79.8887 216.396 77.898 218.907 75.9938 220.552C74.0031 222.197 72.099 222.89 72.099 222.89C72.099 222.89 71.6662 222.37 71.1469 221.418C70.6276 220.552 69.9352 219.167 69.2428 217.695C68.6369 216.222 68.031 214.491 67.6848 212.759C67.3386 211.027 67.4252 209.122 67.8579 207.477C68.7234 204.186 71.0604 202.021 73.1376 200.636C75.2149 199.25 77.0325 198.558 77.0325 198.558C77.0325 198.558 77.2921 199.077 77.6383 199.943C77.9845 200.809 78.5038 201.935 79.0232 203.32C79.9752 206.005 80.8408 209.815 80.408 213.105Z" fill="white"/>
<path d="M65.3483 201.153C64.3962 204.271 62.0593 206.435 59.982 207.648C57.8182 208.947 55.9141 209.293 55.9141 209.293C55.9141 209.293 54.7889 206.955 54.0099 203.924C53.6637 202.366 53.231 200.72 53.231 198.902C53.3175 197.17 53.5772 195.438 54.183 193.88C55.5679 190.849 58.0779 189.117 60.3282 188.078C62.492 187.039 64.3096 186.692 64.3096 186.692C64.3096 186.692 64.4827 187.212 64.6558 188.078C64.829 189.03 65.1752 190.156 65.4348 191.542C66.0407 194.313 66.3003 198.036 65.3483 201.153Z" fill="white"/>
<path d="M52.7113 187.213C51.2399 190.157 48.8164 191.802 46.5661 192.668C44.4023 193.534 42.5847 193.62 42.5847 193.62C42.5847 193.62 41.8057 191.196 41.4595 188.165C41.0267 185.134 41.4595 181.324 43.104 178.553C44.835 175.782 47.6047 174.57 49.8551 173.877C52.1054 173.185 53.8365 173.185 53.8365 173.185C53.8365 173.185 53.923 173.704 54.0096 174.57C54.0961 175.436 54.0961 176.648 54.1827 178.034C54.3558 180.718 54.0961 184.268 52.7113 187.213Z" fill="white"/>
<path d="M42.6714 171.714C40.8538 174.312 38.2573 175.524 36.0935 176.043C33.8431 176.563 32.1121 176.39 32.1121 176.39C32.1121 176.39 31.6793 173.965 31.8524 171.021C31.8524 168.077 32.8045 164.44 34.7952 162.016C36.8724 159.591 39.6421 158.812 41.8925 158.465C44.0563 158.119 45.7873 158.379 45.7873 158.379C45.7873 158.379 45.7873 158.898 45.7873 159.764C45.7007 160.543 45.5276 161.756 45.4411 163.141C45.1814 165.739 44.489 169.116 42.6714 171.714Z" fill="white"/>
<path d="M35.4001 155.088C33.2363 157.34 30.6397 158.205 28.4759 158.379C26.3121 158.552 24.5811 158.119 24.5811 158.119C24.5811 158.119 24.5811 155.781 25.1869 152.923C25.4466 151.538 25.7928 149.979 26.4852 148.594C27.1776 147.122 28.1297 145.736 29.2549 144.784C31.5052 142.705 34.2749 142.272 36.5253 142.272C38.6891 142.272 40.247 142.792 40.247 142.792C40.247 142.792 40.1605 143.225 39.9873 144.091C39.8142 144.87 39.5546 145.996 39.2949 147.295C38.6025 149.719 37.4773 152.923 35.4001 155.088Z" fill="white"/>
<path d="M30.8134 137.943C28.563 139.761 25.8799 140.194 23.8027 140.107C21.6389 140.021 20.1675 139.415 20.1675 139.415C20.1675 139.415 20.5137 137.163 21.4658 134.479C22.4178 131.881 23.8892 128.85 26.3992 127.205C28.9093 125.56 31.5924 125.473 33.6696 125.733C35.7469 126.08 37.2183 126.686 37.2183 126.686C37.2183 126.686 37.0452 127.205 36.7855 127.985C36.4393 128.677 36.1796 129.716 35.6603 130.929C34.7083 133.267 33.1503 136.124 30.8134 137.943Z" fill="white"/>
<path d="M28.9956 120.623C26.6587 122.095 24.0622 122.182 21.9849 121.749C19.9942 121.402 18.6094 120.623 18.6094 120.623C18.6094 120.623 18.6959 120.103 18.9556 119.237C19.3018 118.458 19.8211 117.332 20.427 116.12C21.7253 113.696 23.6294 111.011 26.1394 109.712C28.736 108.413 31.3326 108.76 33.2367 109.279C35.2274 109.799 36.5257 110.665 36.5257 110.665C36.5257 110.665 36.3526 111.098 36.0064 111.79C35.6602 112.483 35.2274 113.436 34.535 114.475C33.3233 116.553 31.246 119.151 28.9956 120.623Z" fill="white"/>
<path d="M29.6878 103.566C27.2643 104.605 24.7543 104.432 22.8501 103.825C21.0325 103.219 19.8208 102.267 19.8208 102.267C19.8208 102.267 19.9939 101.834 20.3401 101.055C20.6863 100.275 21.2922 99.2361 22.0712 98.197C23.6291 96.0322 25.8795 93.6942 28.3895 92.8282C30.986 91.8757 33.4961 92.4819 35.2271 93.2612C36.9581 93.9539 38.1699 94.9065 38.1699 94.9065C38.1699 94.9065 37.3043 96.4651 35.833 98.3701C34.275 100.189 32.1112 102.44 29.6878 103.566Z" fill="white"/>
<path d="M32.8027 87.1131C30.2927 87.8924 27.9558 87.2862 26.2247 86.5069C24.5803 85.7276 23.4551 84.6885 23.4551 84.6885C23.4551 84.6885 23.7147 84.2555 24.1475 83.6494C24.6668 82.9566 25.2727 82.0041 26.2247 81.1382C27.9558 79.2332 30.3793 77.3281 32.9758 76.722C35.4858 76.1158 37.7362 76.9818 39.3807 77.9343C41.0252 78.8868 41.9773 79.9259 41.9773 79.9259C41.9773 79.9259 40.9386 81.3114 39.2941 82.87C38.4286 83.736 37.39 84.5153 36.2648 85.2946C35.2262 86.074 34.0144 86.6801 32.8027 87.1131Z" fill="white"/>
<path d="M38.0844 71.612C35.5744 72.0449 33.4106 71.2656 31.8527 70.3131C30.3813 69.3606 29.4292 68.2349 29.4292 68.2349C29.4292 68.2349 30.6409 66.7628 32.4585 65.1176C34.3627 63.5589 36.9592 62.0002 39.4693 61.7405C42.0658 61.4807 44.0565 62.5198 45.5279 63.6455C46.9127 64.6846 47.7783 65.8103 47.7783 65.8103C47.7783 65.8103 46.5665 67.0226 44.7489 68.3215C42.8448 69.6204 40.5944 71.179 38.0844 71.612Z" fill="white"/>
<path d="M45.2667 57.2384C42.8433 57.3249 40.8526 56.3724 39.4678 55.3333C38.1695 54.2942 37.4771 53.1685 37.4771 53.1685C37.4771 53.1685 38.7753 51.8696 40.6795 50.4842C42.5836 49.1853 45.3533 48.0596 47.8633 48.0596C50.2868 48.1462 52.1044 49.3585 53.4027 50.4842C54.6144 51.6964 55.2203 52.8221 55.2203 52.8221C55.2203 52.8221 54.0085 53.8613 52.0178 54.9004C50.0271 55.8529 47.7768 57.1518 45.2667 57.2384Z" fill="white"/>
<path d="M54.1821 44.2503C51.8452 44.0771 50.0276 42.9514 48.8159 41.8257C47.6907 40.7 47.1714 39.5743 47.1714 39.5743C47.1714 39.5743 48.5562 38.4486 50.5469 37.4961C51.5855 36.9765 52.7107 36.457 53.9225 36.1106C55.1342 35.8508 56.4325 35.7642 57.6442 35.8508C59.9811 36.1972 61.6256 37.4961 62.6642 38.795C63.7029 40.0073 64.2222 41.133 64.2222 41.133C64.2222 41.133 62.8373 41.9989 60.9332 42.6916C59.029 43.5575 56.519 44.4235 54.1821 44.2503Z" fill="white"/>
<path d="M64.4818 32.8187C62.1448 32.3857 60.5869 31.0869 59.6348 29.9612C58.5962 28.7489 58.25 27.6232 58.25 27.6232C58.25 27.6232 59.7214 26.7572 61.7986 26.0645C63.8759 25.2852 66.3859 24.679 68.6363 25.1986C70.8866 25.7181 72.2715 27.1902 73.2235 28.4891C74.0891 29.7014 74.4353 30.8271 74.4353 30.8271C74.4353 30.8271 74.0891 31.0003 73.4832 31.26C72.8773 31.4332 72.0984 31.7796 71.1463 32.0394C69.2421 32.6455 66.7321 33.1651 64.4818 32.8187Z" fill="white"/>
<path d="M75.9074 22.9478C73.8301 22.3416 72.4453 21.0427 71.5798 19.8304C70.8008 18.6181 70.4546 17.4924 70.4546 17.4924C70.4546 17.4924 70.8874 17.3193 71.4932 17.0595C72.0125 16.7997 72.9646 16.5399 74.0032 16.2802C75.9939 15.8472 78.5905 15.5874 80.6678 16.2802C82.745 16.8863 83.9567 18.3584 84.6492 19.6573C85.3416 20.9561 85.6012 22.0818 85.6012 22.0818C85.6012 22.0818 84.2164 22.6014 82.3122 22.9478C80.4946 23.2941 77.9846 23.4673 75.9074 22.9478Z" fill="white"/>
<path d="M105.68 240.9C82.3114 233.453 61.4523 218.905 45.9594 199.942C30.4666 181.064 20.4265 157.598 18.0031 133.266C15.3199 108.933 19.6476 83.908 30.6397 62.0001C41.6318 40.0923 58.9423 21.4749 80.061 9.09224C80.6669 8.74587 81.5324 8.83246 81.792 9.43861C82.1383 9.95816 81.8786 10.6509 81.1862 11.0839C60.5002 23.2068 43.4494 41.4777 32.7169 63.0392C21.8979 84.5141 17.5703 109.106 20.2534 133.006C22.6769 156.905 32.5438 179.939 47.6905 198.556C62.9237 217.087 83.4365 231.461 106.373 238.735C107.065 238.995 107.498 239.687 107.238 240.294C107.065 240.813 106.373 241.16 105.68 240.9Z" fill="white"/>
<path d="M88.283 9.78484C85.9461 11.0837 83.4361 11.4301 81.4454 11.5167C80.4067 11.6033 79.5412 11.5167 79.0219 11.5167C78.416 11.5167 78.0698 11.5167 78.0698 11.5167C78.0698 11.5167 78.1564 11.1703 78.416 10.6508C78.6757 10.0446 79.1085 9.26528 79.7143 8.48595C80.8395 6.8407 82.6571 4.84908 85.1671 3.4636C87.6771 2.25131 90.4468 2.07812 92.4375 2.07812C94.4282 2.16472 95.7265 2.51109 95.7265 2.51109C95.7265 2.51109 95.0341 3.80997 93.8223 5.36863C92.524 6.92729 90.7064 8.65914 88.283 9.78484Z" fill="white"/>
</svg>
