<svg width="60" height="60" viewBox="0 0 60 60" fill="none" xmlns="http://www.w3.org/2000/svg">
<circle cx="30" cy="30" r="29.5" stroke="white"/>
<path d="M30 42C31.875 42 33.4687 41.3437 34.7812 40.0312C36.0937 38.7187 36.75 37.125 36.75 35.25C36.75 33.375 36.0937 31.7812 34.7812 30.4687C33.4687 29.1562 31.875 28.5 30 28.5C28.125 28.5 26.5312 29.1562 25.2187 30.4687C23.9062 31.7812 23.25 33.375 23.25 35.25C23.25 37.125 23.9062 38.7187 25.2187 40.0312C26.5312 41.3437 28.125 42 30 42ZM25.6125 26.55C26.1125 26.275 26.6437 26.0562 27.2062 25.8937C27.7687 25.7312 28.3375 25.625 28.9125 25.575L25.125 18H21.375L25.6125 26.55ZM34.3875 26.55L38.6625 18H34.875L31.6875 24.375L32.4 25.8C32.75 25.9 33.0875 26.0062 33.4125 26.1187C33.7375 26.2312 34.0625 26.375 34.3875 26.55ZM21.6 40.2C21.175 39.475 20.8437 38.6937 20.6062 37.8562C20.3687 37.0187 20.25 36.15 20.25 35.25C20.25 34.35 20.3687 33.4812 20.6062 32.6437C20.8437 31.8062 21.175 31.025 21.6 30.3C20.55 30.65 19.6875 31.2687 19.0125 32.1562C18.3375 33.0437 18 34.075 18 35.25C18 36.425 18.3375 37.4562 19.0125 38.3437C19.6875 39.2312 20.55 39.85 21.6 40.2ZM38.4 40.2C39.45 39.85 40.3125 39.2312 40.9875 38.3437C41.6625 37.4562 42 36.425 42 35.25C42 34.075 41.6625 33.0437 40.9875 32.1562C40.3125 31.2687 39.45 30.65 38.4 30.3C38.825 31.025 39.1562 31.8062 39.3937 32.6437C39.6312 33.4812 39.75 34.35 39.75 35.25C39.75 36.15 39.6312 37.0187 39.3937 37.8562C39.1562 38.6937 38.825 39.475 38.4 40.2ZM30 45C29 45 28.0437 44.8562 27.1312 44.5687C26.2187 44.2812 25.375 43.8875 24.6 43.3875C24.375 43.4375 24.15 43.4687 23.925 43.4812C23.7 43.4937 23.4625 43.5 23.2125 43.5C20.9375 43.5 19 42.7 17.4 41.1C15.8 39.5 15 37.5625 15 35.2875C15 33.1125 15.725 31.25 17.175 29.7C18.625 28.15 20.4125 27.2875 22.5375 27.1125L16.5 15H27L30 21L33 15H43.5L37.5 27.0375C39.625 27.2375 41.4062 28.1125 42.8437 29.6625C44.2812 31.2125 45 33.075 45 35.25C45 37.55 44.2 39.5 42.6 41.1C41 42.7 39.05 43.5 36.75 43.5C36.525 43.5 36.2937 43.4937 36.0562 43.4812C35.8187 43.4687 35.5875 43.4375 35.3625 43.3875C34.5875 43.8875 33.75 44.2812 32.85 44.5687C31.95 44.8562 31 45 30 45ZM27.225 39.375L28.275 35.9625L25.5 33.975H28.9125L30 30.375L31.0875 33.975H34.5L31.725 35.9625L32.775 39.375L30 37.275L27.225 39.375Z" fill="white"/>
</svg>
