<svg width="60" height="60" viewBox="0 0 60 60" fill="none" xmlns="http://www.w3.org/2000/svg">
<circle cx="30" cy="30" r="29.5" stroke="white"/>
<path d="M36 28.5C36.425 28.5 36.7812 28.3563 37.0687 28.0688C37.3562 27.7813 37.5 27.425 37.5 27C37.5 26.575 37.3562 26.2188 37.0687 25.9313C36.7812 25.6438 36.425 25.5 36 25.5C35.575 25.5 35.2187 25.6438 34.9312 25.9313C34.6437 26.2188 34.5 26.575 34.5 27C34.5 27.425 34.6437 27.7813 34.9312 28.0688C35.2187 28.3563 35.575 28.5 36 28.5ZM24 25.5H31.5V22.5H24V25.5ZM18.75 43.5C17.9 40.65 17.0625 37.8063 16.2375 34.9688C15.4125 32.1313 15 29.225 15 26.25C15 23.95 15.8 22 17.4 20.4C19 18.8 20.95 18 23.25 18H30.75C31.475 17.05 32.3562 16.3125 33.3937 15.7875C34.4312 15.2625 35.55 15 36.75 15C37.375 15 37.9062 15.2188 38.3437 15.6562C38.7812 16.0938 39 16.625 39 17.25C39 17.4 38.9812 17.55 38.9437 17.7C38.9062 17.85 38.8625 17.9875 38.8125 18.1125C38.7125 18.3875 38.6187 18.6688 38.5312 18.9563C38.4437 19.2438 38.375 19.5375 38.325 19.8375L41.7375 23.25H45V33.7125L40.7625 35.1L38.25 43.5H30V40.5H27V43.5H18.75ZM21 40.5H24V37.5H33V40.5H36L38.325 32.775L42 31.5375V26.25H40.5L35.25 21C35.25 20.5 35.2812 20.0188 35.3437 19.5563C35.4062 19.0938 35.5 18.625 35.625 18.15C34.9 18.35 34.2625 18.6938 33.7125 19.1813C33.1625 19.6688 32.7625 20.275 32.5125 21H23.25C21.8 21 20.5625 21.5125 19.5375 22.5375C18.5125 23.5625 18 24.8 18 26.25C18 28.7 18.3375 31.0938 19.0125 33.4313C19.6875 35.7688 20.35 38.125 21 40.5Z" fill="white"/>
</svg>
