<svg width="11" height="16" viewBox="0 0 11 16" fill="none" xmlns="http://www.w3.org/2000/svg">
<path d="M10.5436 4.60784L10.0672 6.24417H0.456379L0.932778 4.60784H10.5436ZM6.23531 16L0.756718 9.59968L0.746361 8.31547H3.27335C4.00521 8.31547 4.60934 8.19464 5.08574 7.95299C5.56904 7.70443 5.93152 7.36957 6.17317 6.94841C6.41483 6.52724 6.53565 6.0543 6.53565 5.52957C6.53565 4.9427 6.42173 4.42832 6.19389 3.98645C5.96604 3.53766 5.60702 3.18899 5.11681 2.94044C4.63351 2.68498 3.99831 2.55725 3.21121 2.55725H0.477092L0.963848 0.920919H3.21121C4.41257 0.920919 5.40334 1.10388 6.18353 1.46981C6.97062 1.82884 7.55749 2.35357 7.94414 3.044C8.33078 3.73444 8.5241 4.56986 8.5241 5.55028C8.5241 6.39261 8.36185 7.14863 8.03735 7.81836C7.71975 8.48117 7.19156 9.00245 6.4528 9.38219C5.72094 9.76193 4.73362 9.9518 3.49084 9.9518L8.58624 15.8757V16H6.23531ZM10.5436 0.920919L10.0672 2.55725H2.32055L2.79695 0.920919H10.5436Z" fill="#FFE600"/>
</svg>
