<svg width="224" height="225" viewBox="0 0 224 225" fill="none" xmlns="http://www.w3.org/2000/svg">
<path d="M130.159 221.096C129.199 221.145 128.35 220.722 127.755 219.888C127.328 219.289 126.931 218.641 126.668 217.958C126.084 216.437 125.51 214.904 125.079 213.334C123.782 208.617 122.55 203.88 121.303 199.148C120.293 195.313 119.288 191.475 118.303 187.632C118.102 186.845 117.978 186.035 117.856 185.23C117.759 184.596 117.853 183.967 118.095 183.374C118.204 183.106 118.36 182.838 118.556 182.627C118.924 182.229 119.412 182.196 119.862 182.514C120.071 182.661 120.265 182.845 120.425 183.045C120.702 183.392 120.966 183.753 121.202 184.129C121.597 184.757 121.993 185.386 122.338 186.042C126.262 193.489 130.173 200.944 133.468 208.7C134.076 210.133 134.669 211.574 135.21 213.034C135.505 213.829 135.732 214.66 135.892 215.494C136.17 216.949 135.726 218.204 134.663 219.237C133.552 220.318 131.705 221.095 130.159 221.096Z" fill="white"/>
<path d="M91.6855 36.3603C91.8452 33.2379 92.0853 28.2717 92.3639 23.307C92.422 22.2734 92.5877 21.2415 92.7696 20.2204C92.8657 19.68 93.0547 19.1418 93.2867 18.6421C93.7738 17.5906 94.5755 16.8319 95.6595 16.4077C96.6703 16.0123 97.7223 15.8027 98.8145 15.8488C100.325 15.9124 101.364 16.8199 101.451 18.3238C101.516 19.428 101.483 20.5566 101.328 21.6515C101.027 23.78 100.636 25.8966 100.238 28.0104C99.085 34.133 97.9086 40.2518 96.7458 46.3728C96.3786 48.3036 96.0386 50.2404 95.6536 52.1674C95.5308 52.7822 95.3277 53.385 95.1153 53.9765C94.9377 54.4696 94.6352 54.896 94.2067 55.2186C93.2801 55.916 92.2656 55.633 91.9006 54.5435C91.761 54.1264 91.6861 53.6767 91.6567 53.2368C91.6024 52.4226 91.5802 51.6047 91.5845 50.7889C91.6068 46.5955 91.6415 42.4015 91.6855 36.3603Z" fill="white"/>
<path d="M25.4873 68.1087C25.569 67.4331 25.6148 66.7645 25.7414 66.1117C25.8176 65.719 25.9784 65.3274 26.1745 64.9765C26.4628 64.46 26.9338 64.1456 27.5397 64.1624C28.0158 64.1749 28.5111 64.2075 28.959 64.3519C29.6612 64.5779 30.351 64.8663 31.0095 65.1998C32.3317 65.87 33.6407 66.5679 34.9351 67.2902C41.2495 70.8129 47.5155 74.4192 53.6832 78.1934C54.4723 78.6762 55.2408 79.2014 55.9751 79.7636C56.7589 80.3626 57.1276 81.1968 57.0994 82.1918C57.0956 82.3396 57.0891 82.49 57.057 82.6339C56.9327 83.1966 56.5476 83.5491 55.967 83.5643C55.6015 83.5741 55.2283 83.5181 54.8666 83.4508C52.3074 82.9718 49.8352 82.1799 47.415 81.2457C43.5094 79.738 39.6307 78.1624 35.7425 76.6096C33.7811 75.8265 31.8202 75.0417 29.8681 74.2362C29.1841 73.9538 28.5129 73.6328 27.8613 73.2825C26.6352 72.6226 25.9315 71.5711 25.7205 70.2035C25.6129 69.5083 25.5628 68.8045 25.4873 68.1087Z" fill="white"/>
<path d="M100.623 184.284C100.513 186.589 100.163 188.866 99.8385 191.143C99.4453 193.898 99.0108 196.647 98.5459 199.391C98.3112 200.779 98.0022 202.157 97.6633 203.524C97.5134 204.128 97.2636 204.726 96.9583 205.269C96.4472 206.18 95.6369 206.638 94.5659 206.609C93.2765 206.574 92.0735 206.223 90.9536 205.61C89.97 205.072 89.5599 204.192 89.6892 203.092C89.7495 202.579 89.8614 202.061 90.0324 201.575C90.6473 199.826 91.2398 198.067 91.9448 196.354C93.5964 192.34 95.3024 188.349 97.0001 184.354C97.2608 183.741 97.5634 183.142 97.9066 182.572C98.1125 182.23 98.3987 181.913 98.7115 181.663C99.4246 181.092 100.293 181.399 100.529 182.288C100.604 182.571 100.608 182.876 100.62 183.171C100.634 183.542 100.623 183.913 100.623 184.284Z" fill="white"/>
<path d="M81.2416 57.4745C81.2416 57.5119 81.2426 57.5489 81.2416 57.5858C81.2204 58.1756 81.0602 58.7003 80.473 58.9594C79.8599 59.2304 79.3797 58.9078 78.9827 58.5004C78.5699 58.0768 78.1816 57.6189 77.847 57.1317C76.5642 55.2672 75.2607 53.4141 74.0517 51.5018C72.2268 48.6145 70.6692 45.5736 69.0827 42.5506C68.6857 41.794 68.3528 41.013 68.1616 40.1712C67.9731 39.3429 68.0356 38.5429 68.3538 37.77C68.8187 36.6403 69.6019 35.7491 70.5915 35.0571C71.435 34.4673 72.2915 34.5461 73.0122 35.2722C73.3734 35.6361 73.6911 36.0668 73.9349 36.5176C74.3923 37.3649 74.8121 38.236 75.195 39.1197C76.9243 43.1073 78.2805 47.2301 79.5937 51.3676C80.0309 52.7466 80.4698 54.125 80.8755 55.5138C81.0612 56.1503 81.1693 56.8097 81.3133 57.4593C81.2894 57.4641 81.2655 57.4696 81.2416 57.4745Z" fill="white"/>
<path d="M109.014 184.78C108.793 186.243 108.589 187.6 108.383 188.958C107.869 192.332 107.357 195.707 106.84 199.082C106.272 202.786 105.692 206.488 105.132 210.193C104.494 214.413 103.873 218.634 103.238 222.854C103.172 223.293 103.094 223.736 102.962 224.159C102.766 224.783 102.276 225.048 101.667 224.918C101.08 224.794 100.722 224.328 100.784 223.692C100.841 223.101 100.949 222.516 101.037 221.929C101.601 218.186 102.162 214.444 102.732 210.702C103.122 208.134 103.531 205.569 103.921 203.001C104.417 199.736 104.902 196.47 105.394 193.204C105.791 190.562 106.19 187.921 106.596 185.28C106.646 184.951 106.711 184.619 106.818 184.305C107.029 183.686 107.477 183.441 108.123 183.548C108.652 183.635 108.986 184.054 109.014 184.664C109.017 184.738 109.014 184.812 109.014 184.78Z" fill="#FABD47"/>
<path d="M84.7855 40.5185C84.7855 40.9905 84.8099 41.2528 84.7801 41.5086C84.7268 41.9659 84.4357 42.231 84.0045 42.3526C83.6069 42.4656 83.2783 42.339 82.9899 42.0604C82.6755 41.7568 82.5799 41.3587 82.5239 40.953C82.4229 40.2187 82.3431 39.4811 82.2562 38.7447C81.939 36.0557 81.6256 33.3661 81.3046 30.6777C80.9668 27.842 80.6176 25.0075 80.2819 22.1713C80.0196 19.9613 79.773 17.7498 79.5145 15.5398C79.2777 13.5134 79.0349 11.4881 78.7938 9.46227C78.7715 9.27815 78.7242 9.09511 78.721 8.91153C78.708 8.24132 79.1392 7.71832 79.7383 7.65804C80.2798 7.60318 80.8115 7.98551 80.9554 8.58349C81.0591 9.01527 81.1194 9.459 81.1726 9.90056C81.5452 12.9936 81.9173 16.0867 82.2779 19.1814C82.6125 22.0551 82.9226 24.9314 83.2631 27.8046C83.5857 30.5299 83.9393 33.2521 84.2684 35.9764C84.4596 37.5596 84.6296 39.1455 84.7855 40.5185Z" fill="#FABD47"/>
<path d="M33.967 81.9469C34.1249 81.9844 34.4527 82.0468 34.7707 82.1413C38.5734 83.2759 42.3748 84.4143 46.1761 85.5527C48.5919 86.2761 51.0077 86.999 53.4219 87.7279C53.7396 87.824 54.0682 87.9147 54.356 88.0727C54.8541 88.3448 55.0393 88.8939 54.8628 89.4094C54.7172 89.8341 54.2208 90.1524 53.7103 90.1084C53.455 90.0866 53.2014 90.0101 52.9532 89.9357C48.5827 88.6294 44.2138 87.3189 39.8437 86.0116C37.9607 85.4484 36.0757 84.8917 34.1928 84.3279C33.8737 84.2323 33.5461 84.1449 33.2499 83.9982C32.6899 83.7207 32.4586 83.227 32.6058 82.7284C32.7672 82.182 33.1525 81.9268 33.967 81.9469Z" fill="#FABD47"/>
<path d="M80.9413 188.636C80.0462 188.648 79.5069 187.778 79.9919 187.016C80.4074 186.362 80.919 185.767 81.4073 185.162C84.1756 181.732 86.9487 178.305 89.7225 174.879C90.0722 174.447 90.428 174.02 90.7957 173.603C91.0824 173.278 91.4431 173.11 91.8879 173.211C92.6113 173.376 92.9806 174.071 92.6852 174.751C92.5836 174.985 92.4299 175.203 92.2681 175.403C89.2814 179.085 86.2888 182.764 83.3001 186.444C82.8563 186.991 82.4316 187.552 81.983 188.095C81.6392 188.51 81.3801 188.63 80.9413 188.636Z" fill="#FABD47"/>
<path d="M115.052 209.794C115.052 210.165 115.086 210.539 115.044 210.904C114.978 211.452 114.531 211.854 114.005 211.902C113.497 211.949 113.005 211.608 112.858 211.046C112.774 210.728 112.76 210.388 112.74 210.057C112.604 207.763 112.472 205.47 112.345 203.176C112.313 202.584 112.317 201.99 112.286 201.397C112.247 200.657 112.177 199.919 112.145 199.179C112.125 198.7 112.1 198.212 112.169 197.741C112.254 197.167 112.733 196.787 113.241 196.784C113.788 196.779 114.317 197.207 114.379 197.808C114.486 198.839 114.55 199.876 114.6 200.912C114.709 203.133 114.789 205.356 114.898 207.577C114.934 208.316 115.023 209.053 115.088 209.791C115.076 209.793 115.064 209.794 115.052 209.794Z" fill="#FABD47"/>
<path d="M66.0772 77.0561C66.0381 77.9913 65.1751 78.4877 64.4609 78.0875C64.0421 77.8528 63.6522 77.5617 63.2677 77.2722C61.4607 75.9128 59.6575 74.5485 57.8598 73.1771C57.567 72.9539 57.2765 72.7133 57.0402 72.4336C56.7263 72.0621 56.7426 71.5629 57.0142 71.1969C57.3118 70.795 57.8538 70.6054 58.2976 70.7792C58.5007 70.8591 58.6924 70.9845 58.8684 71.116C60.9464 72.6704 63.0227 74.2264 65.0931 75.7911C65.3576 75.991 65.6145 76.2169 65.8171 76.476C65.9675 76.6683 66.0251 76.9333 66.0772 77.0561Z" fill="#FABD47"/>
<path d="M133.502 79.1828C133.67 78.8666 133.94 78.6841 134.281 78.6047C134.751 78.4954 135.225 78.403 135.694 78.2895C137.929 77.7462 140.167 77.2145 142.396 76.6496C146.539 75.5992 150.592 74.2562 154.597 72.7764C157.275 71.7865 159.918 70.6975 162.566 69.6255C167.112 67.7861 171.499 65.6069 175.868 63.3901C181.1 60.7344 186.232 57.8964 191.122 54.6453C192.666 53.6187 194.138 52.4845 195.642 51.3982C195.882 51.2241 196.103 51.0203 196.354 50.8634C196.972 50.4761 197.629 50.5472 197.951 51.0159C198.315 51.5447 198.249 52.123 197.693 52.5973C196.932 53.2471 196.161 53.8927 195.345 54.4715C191.465 57.2238 187.411 59.6998 183.249 61.9974C179.09 64.2935 174.854 66.4424 170.567 68.4929C167.586 69.9186 164.559 71.2368 161.511 72.5066C160.141 73.0776 158.748 73.5928 157.361 74.1213C156.008 74.6368 154.656 75.1534 153.294 75.641C149.936 76.8432 146.518 77.8544 143.08 78.7868C140.503 79.486 137.888 80.0426 135.287 80.6506C134.966 80.7259 134.623 80.7829 134.299 80.753C133.503 80.681 133.112 79.8789 133.502 79.1828Z" fill="#FABD47"/>
<path d="M122.142 75.254C122.219 74.9044 122.431 74.6561 122.738 74.4884C123.161 74.2573 123.593 74.0411 124.014 73.8063C126.022 72.6842 128.036 71.5725 130.032 70.4311C133.742 68.3094 137.287 65.9298 140.75 63.4312C143.065 61.76 145.32 60.0029 147.584 58.2607C151.471 55.271 155.114 51.9962 158.729 48.6902C163.059 44.73 167.243 40.6211 171.084 36.1789C172.296 34.7763 173.411 33.2891 174.568 31.8398C174.753 31.6077 174.911 31.3522 175.111 31.1338C175.603 30.5951 176.255 30.4876 176.69 30.853C177.183 31.2649 177.274 31.8397 176.866 32.4455C176.307 33.2755 175.737 34.104 175.106 34.8802C172.105 38.5712 168.862 42.0427 165.467 45.3713C162.075 48.6976 158.57 51.9026 154.989 55.0265C152.498 57.1986 149.936 59.2793 147.339 61.3193C146.172 62.2363 144.967 63.1059 143.773 63.9868C142.608 64.8456 141.443 65.7056 140.261 66.5402C137.349 68.5978 134.327 70.4876 131.264 72.3069C128.968 73.6707 126.598 74.9077 124.255 76.1901C123.966 76.3486 123.65 76.4955 123.33 76.5536C122.544 76.6973 121.953 76.0292 122.142 75.254Z" fill="#FABD47"/>
<path d="M207.617 173.407C207.892 173.98 207.852 174.359 207.566 174.714C207.278 175.073 206.898 175.203 206.475 175.071C206.2 174.986 205.943 174.813 205.705 174.643C204.199 173.558 202.701 172.462 201.201 171.369C197.118 168.398 192.981 165.504 188.741 162.763C185.592 160.728 182.424 158.72 179.221 156.774C175.381 154.44 171.415 152.331 167.363 150.386C166.661 150.049 165.939 149.753 165.231 149.427C164.997 149.319 164.759 149.203 164.556 149.047C164.155 148.737 164.039 148.274 164.222 147.859C164.405 147.442 164.828 147.162 165.294 147.213C165.583 147.245 165.878 147.331 166.147 147.446C167.239 147.913 168.341 148.361 169.404 148.888C174.33 151.329 179.135 153.99 183.79 156.915C189.072 160.233 194.282 163.66 199.35 167.298C201.883 169.116 204.403 170.953 206.922 172.79C207.216 173.004 207.47 173.275 207.617 173.407Z" fill="#FABD47"/>
<path d="M223.321 29.2549C223.217 29.3837 223.023 29.6548 222.798 29.8976C219.163 33.8136 215.358 37.5535 211.299 41.033C210.146 42.022 209.016 43.0396 207.871 44.0395C207.649 44.2333 207.426 44.4396 207.17 44.5803C206.67 44.8555 206.079 44.7282 205.765 44.3205C205.433 43.8904 205.439 43.3315 205.811 42.8896C205.976 42.6924 206.185 42.5319 206.38 42.3605C208.767 40.248 211.191 38.1751 213.534 36.0146C216.015 33.7277 218.411 31.3521 220.695 28.866C221.046 28.4845 221.41 28.113 221.792 27.7631C222.047 27.5286 222.367 27.4358 222.722 27.5262C223.453 27.7124 223.739 28.3789 223.321 29.2549Z" fill="#FABD47"/>
<path d="M207.811 207.216C208.026 208.026 207.918 208.52 207.537 208.934C207.154 209.353 206.704 209.45 206.25 209.194C205.955 209.028 205.694 208.75 205.454 208.478C203.939 206.751 202.433 205.012 200.925 203.276C196.821 198.554 192.642 193.924 188.322 189.477C185.114 186.175 181.88 182.905 178.595 179.71C174.659 175.879 170.544 172.32 166.304 168.962C165.569 168.38 164.806 167.849 164.062 167.281C163.816 167.093 163.568 166.892 163.365 166.647C162.965 166.159 162.912 165.524 163.186 165.01C163.46 164.495 163.983 164.207 164.499 164.365C164.82 164.463 165.137 164.633 165.42 164.838C166.572 165.668 167.739 166.475 168.849 167.377C173.99 171.561 178.959 176.013 183.716 180.783C189.113 186.195 194.412 191.738 199.515 197.533C202.065 200.429 204.598 203.346 207.131 206.264C207.426 206.605 207.667 207.012 207.811 207.216Z" fill="#FABD47"/>
<path d="M195.305 3.09134C195.239 3.24316 195.124 3.55649 194.972 3.85068C192.519 8.59728 189.855 13.2197 186.877 17.6593C186.03 18.9211 185.215 20.2042 184.379 21.4741C184.217 21.7205 184.057 21.979 183.849 22.183C183.441 22.5821 182.838 22.6176 182.425 22.3091C181.99 21.9837 181.847 21.4434 182.086 20.9181C182.193 20.6839 182.351 20.4732 182.493 20.2561C184.227 17.5812 186.007 14.9347 187.686 12.2255C189.463 9.35787 191.136 6.42708 192.67 3.42003C192.906 2.95858 193.158 2.50298 193.431 2.06366C193.615 1.76932 193.898 1.59429 194.264 1.58626C195.018 1.56983 195.473 2.13535 195.305 3.09134Z" fill="#FABD47"/>
<path d="M140.074 136.574C140.23 136.568 140.561 136.515 140.881 136.551C141.17 136.585 141.452 136.704 141.731 136.804C144.982 137.962 148.176 139.261 151.352 140.608C153.435 141.491 155.514 142.382 157.593 143.272C157.865 143.388 158.148 143.495 158.393 143.654C158.835 143.941 159.009 144.482 158.843 144.918C158.647 145.434 158.164 145.719 157.599 145.623C157.384 145.585 157.174 145.497 156.971 145.412C154.064 144.193 151.17 142.942 148.249 141.758C145.74 140.741 143.2 139.803 140.677 138.82C140.335 138.686 139.976 138.547 139.693 138.324C139.118 137.869 139.25 136.994 140.074 136.574Z" fill="#FABD47"/>
<path d="M137.868 145.403C138.045 145.424 138.425 145.419 138.78 145.529C139.1 145.63 139.398 145.842 139.695 146.028C143.163 148.19 146.544 150.528 149.896 152.925C152.094 154.497 154.287 156.078 156.481 157.659C156.767 157.866 157.068 158.062 157.318 158.32C157.768 158.784 157.875 159.534 157.616 160.078C157.31 160.722 156.719 161.006 156.099 160.768C155.863 160.677 155.641 160.52 155.427 160.367C152.356 158.192 149.305 155.977 146.213 153.844C143.557 152.013 140.853 150.279 138.176 148.489C137.813 148.246 137.432 147.992 137.15 147.642C136.578 146.929 136.871 145.798 137.868 145.403Z" fill="#FABD47"/>
<path d="M219.471 182.681C219.677 183.161 219.613 183.546 219.348 183.898C219.101 184.224 218.749 184.361 218.366 184.261C218.052 184.178 217.74 184.031 217.468 183.85C216.728 183.361 216.002 182.849 215.287 182.322C215.056 182.152 214.819 181.941 214.687 181.693C214.295 180.956 214.856 180.127 215.688 180.19C215.901 180.206 216.137 180.266 216.314 180.382C217.242 180.989 218.16 181.613 219.069 182.248C219.245 182.371 219.368 182.569 219.471 182.681Z" fill="#FABD47"/>
<path d="M219.621 221.78C219.773 222.454 219.638 222.951 219.282 223.364C218.95 223.748 218.531 223.86 218.116 223.654C217.776 223.484 217.45 223.228 217.174 222.937C216.422 222.146 215.688 221.328 214.97 220.493C214.739 220.223 214.507 219.897 214.4 219.544C214.08 218.494 214.848 217.506 215.774 217.75C216.012 217.813 216.268 217.939 216.447 218.127C217.392 219.109 218.321 220.112 219.24 221.128C219.418 221.325 219.524 221.611 219.621 221.78Z" fill="#FABD47"/>
<path d="M46.3777 110.37C48.4416 108.445 50.3751 106.391 52.1403 104.194C55.9758 99.4203 60.0182 94.832 64.1916 90.3534C66.9756 87.3662 69.5283 84.1846 71.9468 80.895C72.384 80.2997 72.8668 79.7381 73.3285 79.1608C73.5028 79.3498 73.4773 79.5491 73.3991 79.7783C73.1368 80.5495 72.8587 81.3186 72.648 82.105C72.0516 84.3248 71.5411 86.5581 71.2989 88.8566C71.1158 90.588 70.866 92.3092 70.9051 94.0564C70.9105 94.2786 70.9263 94.5078 70.8823 94.7228C70.5635 96.2669 70.7422 97.8295 70.7025 99.3834C70.6965 99.6049 70.6938 99.8363 70.7487 100.048C70.9388 100.778 70.8986 101.52 70.9111 102.261C70.9236 103.003 70.9116 103.747 70.9681 104.485C71.0762 105.886 71.2261 107.284 71.3575 108.683C71.4509 109.678 71.5215 110.675 71.6421 111.667C71.8251 113.173 72.031 114.677 72.2488 116.178C72.4932 117.864 72.7197 119.553 73.0287 121.228C73.4659 123.596 73.9238 125.963 74.4609 128.31C74.9649 130.513 75.5596 132.697 76.1652 134.876C76.3667 135.6 76.5128 136.309 76.4933 137.061C76.458 138.436 76.6475 139.796 76.893 141.143C77.0989 142.271 77.3541 143.395 77.6713 144.498C78.1123 146.03 78.6321 147.54 79.3115 148.988C80.3864 151.278 81.6247 153.47 83.1465 155.496C83.2171 155.59 83.2149 155.739 83.2589 155.909C82.4915 155.889 81.9544 155.631 81.603 155.039C80.9789 153.987 80.3549 152.935 79.7422 151.877C79.3523 151.203 78.9873 150.515 78.6011 149.839C78.53 149.714 78.4181 149.611 78.3127 149.509C78.215 149.415 77.9673 149.478 77.9369 149.61C77.8967 149.786 77.838 149.978 77.8717 150.147C77.9651 150.619 78.0645 151.096 78.2296 151.546C78.5093 152.311 78.8428 153.056 79.1491 153.811C79.242 154.041 79.4294 154.27 79.1497 154.585C78.9058 154.531 78.6207 154.487 78.348 154.403C77.497 154.141 76.6589 153.832 75.7992 153.605C75.2191 153.452 74.7775 153.168 74.512 152.64C73.9471 151.514 73.3176 150.412 72.862 149.244C72.3237 147.865 71.9457 146.423 71.4873 145.012C71.3619 144.625 71.2098 144.245 71.0463 143.872C70.9991 143.765 70.8703 143.693 70.7731 143.599C70.4646 143.922 70.4853 144.263 70.476 144.593C70.4456 145.638 70.6493 146.659 70.8421 147.676C71.1055 149.066 71.5677 150.397 72.1782 151.676C72.2835 151.895 72.4736 152.13 72.1695 152.416C71.9511 152.367 71.697 152.33 71.4574 152.251C69.4843 151.598 67.51 150.948 65.5434 150.277C64.7363 150.001 63.9249 149.723 63.152 149.366C61.2658 148.497 59.3719 147.636 57.5351 146.669C55.5304 145.614 53.6083 144.417 52.0756 142.695C51.6319 142.197 51.1127 141.766 50.67 141.267C50.0308 140.548 49.3845 139.828 48.8207 139.05C47.1142 136.696 45.7722 134.147 44.7348 131.424C43.7094 128.732 43.1744 125.943 42.8208 123.104C42.6747 121.928 42.5107 120.755 42.3543 119.581C42.3141 119.276 42.1175 119.138 41.832 119.096C41.9557 117.215 42.3108 115.396 43.2944 113.75C43.7393 113.22 44.1835 112.689 44.6283 112.159L44.6164 112.168C44.6946 112.089 44.7728 112.01 44.851 111.931L44.8396 111.945C45.3523 111.42 45.865 110.895 46.3777 110.37Z" fill="white"/>
<path d="M36.1687 121.298C36.1554 121.077 36.1635 120.852 36.1246 120.635C36.0323 120.119 35.7328 119.745 35.2329 119.595C34.7568 119.452 34.3595 119.686 34.0359 120.013C33.8851 120.166 33.7748 120.372 33.6899 120.573C33.4056 121.246 33.4135 121.951 33.5611 122.647C33.6118 122.887 33.7584 123.133 33.9258 123.317C34.3332 123.765 34.8379 123.77 35.3012 123.373C35.9379 122.828 36.2135 122.131 36.1687 121.298ZM32.1454 131.275C32.1021 132.752 32.3747 134.214 32.6 135.678C33.0882 138.846 34.2422 141.754 36.1028 144.374C36.6688 145.171 37.3679 145.825 38.2012 146.339C38.6276 146.601 39.0832 146.716 39.5809 146.684C40.2345 146.641 40.7074 146.338 40.9577 145.725C41.1998 145.131 41.31 144.527 41.1871 143.877C40.9457 142.596 40.6098 141.347 40.118 140.138C39.4472 138.488 38.773 136.839 38.1484 135.171C37.2482 132.768 36.6338 130.283 36.153 127.764C36.0423 127.184 35.8723 126.61 35.6742 126.053C35.4926 125.543 35.1587 125.141 34.5621 125.092C33.9568 125.042 33.5743 125.415 33.3248 125.885C33.0483 126.405 32.801 126.957 32.6463 127.523C32.3139 128.742 32.1055 129.986 32.1454 131.275ZM16.5404 117.742C18.2073 116.856 19.995 116.281 21.7875 115.722C21.9543 115.67 22.1486 115.708 22.3302 115.704C22.0476 115.869 21.7697 116.043 21.4817 116.199C20.6352 116.656 19.7824 117.103 18.9378 117.564C18.7759 117.653 18.6399 117.788 18.7473 118.069C19.2838 118.105 19.8138 117.945 20.3414 117.816C22.2852 117.342 24.2262 116.857 26.1658 116.366C30.554 115.254 35.0028 114.499 39.5109 114.093C39.6744 114.079 39.8422 114.112 40.083 114.129C39.9778 114.498 39.9093 114.782 39.8164 115.057C38.9921 117.504 38.7108 120.041 38.6308 122.6C38.5774 124.305 38.8237 125.996 39.0305 127.686C39.3649 130.421 40.065 133.07 40.9429 135.668C41.6545 137.775 42.5448 139.81 43.6875 141.735C44.5233 143.143 45.4825 144.456 46.4943 145.734C46.7914 146.109 47.1645 146.425 47.5094 146.762C47.7571 147.003 48.0417 147.164 48.4083 147.098C48.7781 147.69 49.148 148.282 49.5184 148.874C49.2246 149.024 48.9438 149.21 48.6353 149.316C45.722 150.322 42.7788 151.23 39.7675 151.896C37.9224 152.304 36.0718 152.701 34.1668 152.718C33.9462 152.72 33.727 152.791 33.5057 152.802C32.7668 152.84 32.0226 152.931 31.2892 152.879C30.3684 152.814 29.4508 152.656 28.5411 152.488C24.4972 151.744 21.3509 149.618 19.0672 146.221C18.155 144.863 17.4675 143.385 16.8877 141.852C15.7066 138.73 15.2641 135.46 15.0133 132.17C14.8357 129.841 14.9524 127.497 15.2548 125.177C15.4894 123.376 15.8112 121.586 16.2926 119.832C16.4806 119.146 16.5856 118.453 16.5404 117.742Z" fill="#EF2968"/>
<path d="M51.5573 151.295C52.422 152.273 53.3415 153.179 54.6211 153.607C54.8199 153.799 55.0534 153.873 55.3255 153.812L55.3071 153.805C55.4157 153.895 55.5118 154.009 55.6351 154.07C55.8654 154.183 56.1179 154.252 56.3493 154.363C57.2949 154.819 57.3829 155.644 56.4959 156.229C55.9175 156.61 55.2745 156.925 54.6195 157.151C53.4382 157.558 52.2259 157.876 51.0256 158.229C50.6726 158.333 50.3179 158.43 49.9649 158.53C48.6392 158.699 47.3329 158.964 46.0561 159.366C45.5412 159.406 45.0203 159.41 44.5131 159.494C43.1596 159.721 41.8148 159.996 40.4625 160.229C36.7729 160.865 33.0964 161.565 29.4588 162.458C28.0993 162.75 26.7264 162.923 25.3349 162.955C24.9742 162.964 24.6151 163.037 24.2552 163.08C23.9041 162.976 23.5592 162.814 23.2013 162.777C20.8139 162.53 18.6711 161.695 16.7929 160.196C16.596 159.945 16.4114 159.679 16.0618 159.623L16.0759 159.632C16.0004 159.553 15.9249 159.473 15.8494 159.393L15.8585 159.403C15.8322 159.13 15.6754 158.981 15.4117 158.934L15.4272 158.952C15.4034 158.744 15.288 158.608 15.0964 158.533C14.3647 157.58 13.6969 156.589 13.1976 155.491C13.1166 155.302 13.0355 155.112 12.9545 154.923L12.9577 154.964C12.8075 154.654 12.6573 154.345 12.5069 154.034L12.5147 154.062C12.4383 153.904 12.362 153.746 12.2858 153.588L12.2936 153.611C12.1975 153.295 12.1314 152.965 12.0011 152.663C10.2034 148.491 8.97381 144.152 8.14702 139.693C8.03248 139.075 7.86612 138.44 7.90816 137.825C7.97686 136.817 7.80399 135.834 7.78085 134.84C7.73121 132.694 7.66587 130.542 8.03671 128.408C8.09336 128.083 8.07533 127.745 8.09189 127.412C8.15891 127.219 8.22572 127.026 8.29279 126.833C8.30849 126.776 8.30741 126.719 8.28937 126.662C8.49902 125.993 8.68949 125.316 8.92205 124.654C9.56402 122.828 10.639 121.315 12.2064 120.158C13.5494 119.168 14.9541 118.293 16.541 117.741C16.5862 118.452 16.4812 119.145 16.2932 119.831C15.8118 121.586 15.49 123.375 15.2553 125.176C14.953 127.496 14.8363 129.84 15.0139 132.169C15.2647 135.46 15.7072 138.729 16.8883 141.851C17.4681 143.384 18.1556 144.863 19.0678 146.221C21.3514 149.618 24.4977 151.743 28.5417 152.488C29.4514 152.655 30.369 152.813 31.2897 152.878C32.0232 152.93 32.7674 152.839 33.5063 152.802C33.7276 152.79 33.9468 152.719 34.1674 152.717C36.0724 152.7 37.923 152.303 39.7681 151.896C42.7794 151.23 45.7226 150.322 48.6359 149.316C48.9444 149.209 49.2252 149.023 49.519 148.874C49.7949 149.216 50.0632 149.566 50.35 149.899C50.5868 150.173 50.8464 150.428 51.0957 150.691L51.0859 150.68C51.1587 150.763 51.2309 150.847 51.3037 150.93L51.2912 150.911C51.3797 151.039 51.4688 151.167 51.5573 151.295Z" fill="#EE204D"/>
<path d="M52.6456 174.613C52.6418 174.649 52.6489 174.692 52.6331 174.723C52.2329 175.466 52.3534 176.181 52.6494 176.94C53.3229 178.667 54.023 180.378 54.9919 181.966C56.2454 184.021 57.5093 186.069 58.7264 188.145C59.2114 188.973 59.6106 189.855 59.9973 190.735C60.2015 191.2 60.4497 191.78 59.999 192.188C59.5797 192.567 59.0126 192.353 58.5157 192.196C57.5044 191.876 56.6685 191.252 55.8886 190.571C54.8252 189.642 53.9372 188.549 53.116 187.401C51.649 185.348 50.3814 183.175 49.1615 180.971C48.5885 179.936 47.9748 178.924 47.3643 177.874C47.184 177.931 47.0281 177.98 46.8386 178.039C46.7441 177.844 46.6208 177.655 46.5567 177.447C46.1423 176.103 45.7382 174.755 45.339 173.406C45.2977 173.267 45.3108 173.112 45.2988 172.965C45.591 173.114 45.8914 173.25 46.1749 173.414C47.5984 174.24 49.1083 174.267 50.6535 173.887C51.1515 173.764 51.6327 173.573 52.1215 173.413C52.2959 173.812 52.4707 174.213 52.6456 174.613Z" fill="#234B8B"/>
<path d="M46.0556 159.366C47.3324 158.964 48.6386 158.699 49.9644 158.53C50.8242 158.801 51.2831 159.404 51.4135 160.28C51.4672 160.642 51.5221 161.003 51.5769 161.363C50.4413 161.592 49.4251 162.148 48.3551 162.554C47.8989 162.727 47.7365 163.161 47.7382 163.648C47.7441 165.204 48.1064 166.669 48.9537 167.979C49.4626 168.766 50.1806 169.258 51.1859 169.192C51.5927 169.166 52.0022 169.186 52.4106 169.185C52.1624 169.833 51.6307 170.149 51.0061 170.304C50.5814 170.41 50.1333 170.42 49.6956 170.474C48.0847 170.17 47.1331 169.099 46.4596 167.7C45.8443 166.422 45.4489 165.08 45.2371 163.677C45.098 162.756 45.0383 161.841 45.1361 160.91C45.2072 160.239 45.4543 159.706 46.0556 159.366Z" fill="#FDE2C8"/>
<path d="M52.4108 169.186C52.0023 169.187 51.5928 169.167 51.186 169.193C50.1807 169.259 49.4627 168.766 48.9538 167.98C48.1065 166.67 47.7443 165.205 47.7383 163.649C47.7367 163.162 47.8991 162.728 48.3553 162.555C49.4252 162.149 50.4414 161.593 51.5771 161.364C51.9839 163.048 52.4205 164.726 52.7833 166.42C52.9457 167.175 52.9718 167.964 52.6834 168.717C52.6193 168.883 52.5031 169.03 52.4108 169.186Z" fill="white"/>
<path d="M60.2271 199.315C60.1261 199.532 59.9528 199.644 59.7247 199.714C58.7058 200.025 57.6619 200.009 56.6349 199.857C53.5918 199.408 50.905 198.107 48.456 196.29C47.4447 195.54 46.4465 194.771 45.553 193.873C45.0583 193.375 44.451 192.987 43.9747 192.474C41.6474 189.974 39.4828 187.346 37.7272 184.399C36.1585 181.765 34.9443 178.993 34.2885 175.989C33.898 174.2 33.8254 172.385 33.9584 170.569C34.0066 169.915 34.2366 169.263 34.4561 168.636C34.7377 167.833 35.3797 167.282 36.048 166.823C36.7152 166.364 37.4431 165.963 38.1954 165.666C39.368 165.204 40.5841 164.852 41.7811 164.452C42.1384 164.332 42.4936 164.212 42.8331 164.497C43.0574 165.119 43.3241 165.729 43.4973 166.365C43.8835 167.786 44.2094 169.222 44.5879 170.645C44.7954 171.426 45.0599 172.192 45.2983 172.964C45.5905 173.113 45.8909 173.249 46.1744 173.413C47.5979 174.24 49.1078 174.266 50.653 173.887C51.151 173.764 51.6322 173.572 52.121 173.412C51.9945 172.97 51.8674 172.528 51.7408 172.087C51.7088 172.008 51.6762 171.93 51.6441 171.851C51.6083 171.772 51.5725 171.693 51.5361 171.614C51.4812 171.539 51.4258 171.464 51.371 171.389L51.3275 171.338C51.264 171.28 51.2004 171.223 51.1369 171.165L51.0951 171.139C50.956 171.071 50.8175 171.004 50.6785 170.936C50.6785 170.936 50.6415 170.928 50.641 170.928C50.326 170.777 50.0104 170.625 49.6954 170.474C48.0845 170.17 47.133 169.099 46.4595 167.7C45.8442 166.422 45.4488 165.08 45.2369 163.677C45.0979 162.756 45.0382 161.841 45.1359 160.91C45.2071 160.239 45.4542 159.706 46.0554 159.366C45.5405 159.406 45.0197 159.41 44.5124 159.494C43.159 159.721 41.8142 159.996 40.4619 160.229C36.7723 160.865 33.0958 161.565 29.4556 162.459C28.0986 162.75 26.7258 162.923 25.3343 162.955C24.9736 162.964 24.6144 163.037 24.2546 163.08C23.6385 163.607 23.4584 164.326 23.4509 165.083C23.4403 166.158 23.4221 167.24 23.5218 168.308C23.84 171.717 24.5353 175.055 25.5925 178.314C28.2627 186.542 32.8308 193.639 38.6004 200.008C39.3688 200.856 40.2582 201.605 41.1501 202.328C42.4388 203.371 43.9161 204.066 45.559 204.343C47.0358 204.591 48.525 204.535 49.9979 204.313C53.8476 203.734 57.4849 202.485 60.9532 200.733C61.378 200.519 61.7619 200.222 62.1649 199.964C61.5137 199.764 60.957 199.281 60.2271 199.315Z" fill="#203B68"/>
<path d="M44.8512 111.931C44.8474 111.935 44.8436 111.939 44.8404 111.943C44.8404 111.943 44.8398 111.945 44.8398 111.945L44.8512 111.931Z" fill="#F24F90"/>
<path d="M44.6286 112.159C44.628 112.159 44.627 112.159 44.6259 112.159C44.6226 112.162 44.6199 112.165 44.6172 112.168L44.6286 112.159Z" fill="#F24F90"/>
<path d="M47.3807 145.033C47.2232 144.708 47.0065 144.395 47.0809 144L47.0814 143.997C47.0195 144.027 46.9543 144.041 46.8859 144.041C46.0669 143.15 45.4032 142.191 45.5004 140.897C45.4222 140.68 45.344 140.464 45.2652 140.248C44.1703 137.328 43.165 134.38 42.4703 131.335C41.6827 127.88 41.3417 124.383 41.5425 120.84C41.5571 120.584 41.6273 120.332 41.6717 120.079C41.7251 119.752 41.7784 119.424 41.8318 119.096C41.9555 117.215 42.3106 115.396 43.2942 113.75C43.3431 113.088 43.7526 112.644 44.229 112.252C44.3229 112.175 44.4902 112.188 44.6249 112.159C44.6966 112.087 44.7683 112.015 44.84 111.943C44.8318 111.586 45.0502 111.346 45.2663 111.101C45.4803 110.858 45.6856 110.608 45.8952 110.361C45.4732 110.281 45.0426 110.231 44.6309 110.113C43.9585 109.921 43.2856 109.896 42.6012 109.993C41.7923 110.086 40.9773 110.14 40.1762 110.277C38.0485 110.641 35.9984 111.305 33.9434 111.948C30.8975 112.902 27.846 113.837 24.7988 114.786C24.3414 114.929 23.8946 115.106 23.4429 115.267C23.2615 115.274 23.0795 115.28 22.9904 115.479C22.7259 115.432 22.4808 115.443 22.3211 115.709C22.0419 115.873 21.7667 116.044 21.4817 116.198C20.6352 116.656 19.7824 117.102 18.9378 117.563C18.7759 117.652 18.6399 117.788 18.7473 118.069C19.2838 118.104 19.8138 117.944 20.3414 117.815C22.2852 117.341 24.2262 116.856 26.1658 116.365C30.554 115.254 35.0027 114.499 39.5109 114.093C39.6744 114.078 39.8422 114.112 40.083 114.128C39.9778 114.497 39.9092 114.781 39.8164 115.056C38.9921 117.504 38.7108 120.04 38.6308 122.6C38.5773 124.305 38.8237 125.995 39.0305 127.686C39.3649 130.42 40.065 133.07 40.9429 135.668C41.6545 137.775 42.5447 139.81 43.6875 141.734C44.5233 143.142 45.4825 144.455 46.4943 145.733C46.7914 146.108 47.1645 146.424 47.5094 146.761C47.7571 147.003 48.0417 147.164 48.4083 147.097C48.065 146.41 47.7163 145.725 47.3807 145.033Z" fill="#F24F90"/>
<path d="M127.305 150.956C127.324 150.827 127.344 150.698 127.363 150.57C127.343 150.699 127.324 150.828 127.305 150.956Z" fill="#EE214E"/>
<path d="M109.268 80.2965C109.185 80.1423 109.103 79.9875 109.021 79.8332C109.103 79.9875 109.185 80.1423 109.268 80.2965Z" fill="#EF2A66"/>
<path d="M108.361 78.7452C108.282 78.6274 108.204 78.5101 108.126 78.3922C108.204 78.5095 108.282 78.6274 108.361 78.7452Z" fill="#EF2A66"/>
<path d="M107.228 76.948C107.229 76.9513 107.231 76.9545 107.233 76.9583C107.235 76.9599 107.236 76.9621 107.238 76.9637L107.228 76.948Z" fill="#F24F90"/>
<path d="M107.011 76.7178C107.014 76.721 107.017 76.7243 107.02 76.727C107.022 76.7292 107.024 76.7313 107.026 76.7335L107.011 76.7178Z" fill="#F24F90"/>
<path d="M107.672 77.6171C107.674 77.6204 107.676 77.6242 107.678 77.628C107.679 77.6296 107.681 77.6318 107.683 77.6334L107.672 77.6171Z" fill="#F24F90"/>
<path d="M108.348 78.7222C108.35 78.7278 108.353 78.7334 108.356 78.7385C108.357 78.7407 108.359 78.743 108.361 78.7452L108.348 78.7222Z" fill="#F24F90"/>
<path d="M126.531 129.562C126.151 127.222 125.823 124.871 125.369 122.546C124.267 116.9 122.623 111.396 120.899 105.914C118.456 98.1431 115.244 90.7067 111.275 83.5956C110.698 82.5615 110.073 81.5535 109.471 80.534C109.396 80.4477 109.321 80.3613 109.246 80.275L109.268 80.2967C109.185 80.1424 109.103 79.9877 109.021 79.8334L109.034 79.8568C108.954 79.709 108.874 79.5608 108.793 79.4125C108.725 79.3359 108.658 79.2593 108.59 79.1822C108.512 79.0345 108.434 78.8867 108.357 78.7385C108.28 78.6233 108.203 78.5076 108.126 78.392L108.132 78.3675C108.055 78.2632 107.979 78.1584 107.902 78.0541L107.918 78.0737C107.839 77.9254 107.758 77.7766 107.678 77.6283C107.609 77.5528 107.541 77.4768 107.472 77.4013C107.393 77.2536 107.313 77.1064 107.233 76.9587C107.162 76.8815 107.091 76.8044 107.021 76.7273C106.945 76.6496 106.87 76.5714 106.794 76.4932C106.801 76.497 106.806 76.5008 106.812 76.5041C106.835 76.1619 106.697 75.9284 106.362 75.8268C106.377 75.4912 106.221 75.2706 105.904 75.1577C105.904 75.1609 105.905 75.1631 105.906 75.1664C105.832 75.0909 105.758 75.0159 105.684 74.9404C105.688 74.9421 105.69 74.9442 105.694 74.9453C105.727 74.5939 105.564 74.375 105.236 74.2675C105.236 74.2702 105.236 74.2724 105.237 74.2751C105.165 74.2023 105.094 74.1295 105.022 74.0568C105.07 73.8417 104.97 73.7037 104.79 73.6092C104.736 73.3659 104.621 73.1823 104.345 73.1541C104.345 73.1563 104.346 73.1584 104.346 73.1606C104.27 73.0846 104.195 73.008 104.119 72.932L104.128 72.9406C104.132 72.788 104.067 72.7033 103.911 72.7082C103.979 72.4839 103.864 72.3557 103.672 72.2683C103.673 72.2704 103.674 72.2732 103.675 72.2753C103.209 72.2683 102.963 71.9131 102.689 71.6252C101.61 70.4939 100.419 69.4935 99.1649 68.5658C96.629 66.6893 93.8396 65.3576 90.7704 64.6005C88.8124 64.1176 86.8795 64.1573 84.9465 64.7031C84.2605 64.897 83.6289 65.2001 83.0651 65.6357C82.9168 65.7503 82.8142 65.9105 82.9641 66.1701C83.1026 66.1935 83.2791 66.2505 83.454 66.2472C84.0465 66.2353 84.6451 66.2478 85.23 66.1685C86.9761 65.9322 88.7011 65.9659 90.4179 66.3939C94.0633 67.303 97.2248 69.1068 99.9926 71.6089C102.148 73.556 104.017 75.76 105.621 78.1834C106.256 79.142 106.924 80.08 107.514 81.0647C108.983 83.5125 110.478 85.9479 111.847 88.4511C113.54 91.5426 114.988 94.7589 116.326 98.0193C117.355 100.523 118.401 103.023 119.319 105.567C120.981 110.175 122.32 114.885 123.527 119.631C124.203 122.29 124.832 124.961 125.493 127.624C125.636 128.199 125.823 128.764 126 129.33C126.091 129.619 126.235 129.877 126.535 130.005C126.534 129.857 126.554 129.706 126.531 129.562Z" fill="#F24F90"/>
<path d="M108.785 79.3982C108.788 79.4027 108.791 79.4078 108.793 79.4123C108.794 79.4139 108.796 79.4151 108.797 79.4167L108.785 79.3982Z" fill="#F24F90"/>
<path d="M32.1455 131.275C32.1056 129.986 32.314 128.741 32.6464 127.523C32.8011 126.956 33.0484 126.404 33.3249 125.884C33.5744 125.414 33.9569 125.042 34.5622 125.092C35.1588 125.141 35.4927 125.542 35.6743 126.052C35.8724 126.609 36.0424 127.183 36.1531 127.763C36.6339 130.283 37.2483 132.767 38.1485 135.17C38.7731 136.838 39.4473 138.487 40.1181 140.137C40.6099 141.347 40.9458 142.595 41.1872 143.876C41.3101 144.527 41.1999 145.131 40.9579 145.724C40.7075 146.338 40.2346 146.641 39.581 146.683C39.0833 146.716 38.6278 146.601 38.2013 146.338C37.368 145.824 36.6689 145.17 36.1029 144.374C34.2423 141.754 33.0884 138.845 32.6001 135.677C32.3749 134.213 32.1022 132.751 32.1455 131.275Z" fill="#F24F93"/>
<path d="M36.1694 121.298C36.2142 122.131 35.9385 122.828 35.3019 123.373C34.8385 123.77 34.3338 123.765 33.9265 123.316C33.759 123.132 33.6125 122.887 33.5618 122.647C33.4141 121.95 33.4062 121.245 33.6905 120.573C33.7754 120.372 33.8857 120.165 34.0366 120.013C34.3601 119.686 34.7575 119.452 35.2336 119.595C35.7334 119.745 36.033 120.119 36.1253 120.634C36.1641 120.851 36.156 121.077 36.1694 121.298Z" fill="#F24F90"/>
<path d="M83.2029 152.268C82.756 152.047 82.5528 151.662 82.3443 151.277C80.4298 147.739 79.5043 145.666 79.249 144.335C79.6238 144.459 79.6129 144.464 80.124 145.664C80.3695 146.242 80.6622 146.8 80.9387 147.364C81.1994 147.895 81.466 148.423 81.73 148.953C82.0113 149.515 82.2992 150.074 82.5724 150.639C82.8233 151.16 83.1416 151.655 83.2029 152.268Z" fill="white"/>
<path d="M83.8353 153.37C83.7364 153.272 83.6284 153.182 83.5447 153.073C83.5208 153.042 83.5681 152.956 83.5827 152.895C83.6398 152.917 83.7354 152.925 83.7478 152.961C83.7924 153.092 83.8087 153.233 83.8353 153.37Z" fill="white"/>
<path d="M78.7127 142.673C78.6524 142.569 78.5921 142.465 78.5312 142.361C78.5758 142.346 78.6203 142.331 78.6649 142.316C78.679 142.436 78.6936 142.556 78.7078 142.677L78.7127 142.673Z" fill="white"/>
<path d="M78.708 142.677C78.7466 142.726 78.7851 142.776 78.8237 142.824C78.7868 142.774 78.7498 142.723 78.7129 142.673L78.708 142.677Z" fill="white"/>
<path d="M95.4268 162.046C95.4274 162.048 95.4279 162.051 95.4285 162.054C95.4309 162.055 95.4333 162.057 95.4357 162.057L95.4268 162.046Z" fill="#FDE2C8"/>
<path d="M95.1797 161.617C95.1797 161.617 95.1797 161.618 95.1797 161.618C95.1846 161.622 95.1895 161.625 95.1949 161.629L95.1797 161.617Z" fill="#FDE2C8"/>
<path d="M55.3258 153.812C55.3246 153.809 55.3235 153.808 55.3224 153.806C55.3173 153.805 55.3117 153.805 55.3066 153.805L55.3258 153.812Z" fill="#FDE2C8"/>
<path d="M100.529 167.634C100.527 167.639 100.527 167.642 100.526 167.646C100.53 167.647 100.533 167.647 100.537 167.647L100.529 167.634Z" fill="#FDE2C8"/>
<path d="M83.5447 153.072C83.5208 153.041 83.568 152.956 83.5827 152.895C83.6397 152.916 83.7353 152.924 83.7478 152.961C83.7924 153.091 83.8087 153.232 83.8353 153.369C83.7364 153.272 83.6283 153.181 83.5447 153.072ZM45.5224 140.335L45.5219 140.335H45.5224C45.5224 140.335 45.5224 140.335 45.5224 140.335ZM82.3444 151.276C80.4294 147.738 79.5039 145.665 79.2486 144.335C79.6234 144.459 79.6125 144.463 80.1236 145.663C80.3691 146.241 80.6618 146.799 80.9383 147.363C81.199 147.894 81.4656 148.422 81.7296 148.952C82.0109 149.514 82.2988 150.073 82.572 150.639C82.8229 151.16 83.1412 151.654 83.2025 152.268C82.7555 152.047 82.5524 151.661 82.3444 151.276ZM78.6648 142.316C78.6783 142.431 78.6919 142.546 78.7055 142.66C78.6474 142.561 78.5893 142.462 78.5311 142.362C78.5757 142.346 78.6202 142.331 78.6648 142.316ZM101.102 168.712C101.006 168.513 100.918 168.312 100.825 168.111L100.87 168.086C100.594 168.06 100.453 167.934 100.526 167.645C100.458 167.636 100.389 167.627 100.321 167.618C99.8209 167.146 99.2892 166.703 98.9856 166.062L98.9932 166.07C98.9177 165.993 98.8422 165.915 98.7668 165.838L98.7727 165.845C98.6766 165.796 98.5538 165.77 98.4876 165.694C97.485 164.551 96.4894 163.403 95.4961 162.252C95.4537 162.203 95.4483 162.122 95.4276 162.054C95.2354 161.972 95.1278 161.841 95.18 161.618C95.073 161.542 94.9654 161.467 94.8584 161.392C92.6235 158.455 90.8296 155.25 89.1416 151.984C87.5231 148.852 85.8758 145.733 84.3556 142.554C81.8339 137.281 80.0405 131.741 78.5632 126.096C77.2564 121.105 76.1186 116.077 75.2887 110.982C74.7271 107.534 74.4241 104.06 74.2432 100.573C74.0417 96.6758 74.0759 92.78 74.2747 88.8842C74.2915 88.2835 74.3084 87.6834 74.3252 87.0827C74.3518 87.0398 74.3665 86.9931 74.3681 86.9453C74.4317 85.9552 74.4469 84.9553 74.5702 83.969C74.8357 81.8465 75.1491 79.7294 75.2469 77.5895C75.2518 77.4825 75.1317 77.3695 75.0313 77.1903C74.3839 77.8589 73.7712 78.4335 73.3286 79.1607C73.5029 79.3497 73.4774 79.5491 73.3992 79.7783C73.1369 80.5495 72.8588 81.3185 72.6481 82.105C72.0517 84.3247 71.5412 86.558 71.2989 88.8565C71.1159 90.588 70.8661 92.3092 70.9052 94.0564C70.9106 94.2785 70.9264 94.5077 70.8824 94.7228C70.5636 96.2674 70.7422 97.8294 70.7026 99.3833C70.6966 99.6049 70.6939 99.8357 70.7488 100.048C70.9389 100.777 70.8987 101.52 70.9112 102.261C70.9236 103.003 70.9117 103.747 70.9682 104.485C71.0763 105.886 71.2262 107.284 71.3576 108.683C71.451 109.678 71.5216 110.675 71.6422 111.667C71.8252 113.173 72.0311 114.677 72.2489 116.178C72.4933 117.864 72.7203 119.553 73.0288 121.228C73.466 123.596 73.9238 125.963 74.461 128.31C74.965 130.513 75.5597 132.697 76.1653 134.876C76.3668 135.6 76.5129 136.308 76.4933 137.061C76.458 138.436 76.6476 139.796 76.8931 141.143C77.0989 142.271 77.3542 143.395 77.6714 144.498C78.1124 146.03 78.6322 147.54 79.3116 148.988C80.3864 151.277 81.6248 153.47 83.1466 155.496C83.2172 155.59 83.215 155.739 83.259 155.909C82.4916 155.889 81.9544 155.631 81.603 155.039C80.9795 153.987 80.3549 152.935 79.7423 151.877C79.3523 151.203 78.9874 150.515 78.6012 149.839C78.5301 149.714 78.4182 149.611 78.3128 149.509C78.215 149.415 77.9674 149.478 77.937 149.61C77.8968 149.786 77.8381 149.978 77.8718 150.147C77.9652 150.619 78.0646 151.096 78.2297 151.546C78.5094 152.311 78.8429 153.056 79.1492 153.811C79.2421 154.041 79.4289 154.27 79.1498 154.585C78.9059 154.531 78.6208 154.487 78.3481 154.403C77.497 154.141 76.659 153.832 75.7992 153.605C75.2192 153.452 74.7776 153.168 74.512 152.64C73.9472 151.514 73.3177 150.412 72.862 149.243C72.3238 147.864 71.9458 146.423 71.4874 145.011C71.3619 144.625 71.2099 144.245 71.0464 143.872C70.9991 143.764 70.8704 143.693 70.7732 143.599C70.4647 143.922 70.4853 144.263 70.4761 144.593C70.4457 145.638 70.6494 146.659 70.8422 147.675C71.1056 149.066 71.5678 150.397 72.1783 151.676C72.2836 151.895 72.4737 152.13 72.1696 152.416C71.9512 152.367 71.697 152.33 71.4575 152.251C69.4844 151.598 67.5101 150.948 65.5435 150.276C64.7364 150.001 63.925 149.722 63.1521 149.366C61.2659 148.497 59.372 147.636 57.5352 146.669C55.5305 145.614 53.6089 144.417 52.0757 142.695C51.632 142.196 51.1127 141.766 50.6701 141.267C50.0309 140.548 49.3845 139.828 48.8208 139.05C47.1143 136.696 45.7722 134.147 44.7349 131.424C43.7095 128.732 43.1745 125.943 42.8209 123.104C42.6748 121.928 42.5108 120.755 42.3544 119.581C42.3142 119.276 42.1176 119.138 41.8321 119.096C41.7787 119.423 41.7254 119.751 41.6722 120.079C41.6722 120.079 41.6722 120.079 41.6719 120.078C41.6276 120.331 41.5573 120.584 41.5427 120.84C41.342 124.383 41.683 127.879 42.4706 131.335C43.1653 134.38 44.1706 137.328 45.2655 140.248C45.3443 140.464 45.4225 140.68 45.5007 140.896C45.4035 142.19 46.0672 143.15 46.8862 144.04C46.9546 144.041 47.0198 144.026 47.0817 143.997L47.0812 144C47.0068 144.394 47.2235 144.708 47.381 145.033C47.7166 145.725 48.0653 146.409 48.4085 147.097C48.7784 147.689 49.1483 148.281 49.5187 148.874C49.7946 149.216 50.0629 149.566 50.3497 149.898C50.5865 150.173 50.8461 150.428 51.0954 150.691C51.0954 150.691 51.0954 150.691 51.0948 150.69C51.1643 150.77 51.2339 150.85 51.3034 150.93L51.2909 150.911C51.3794 151.039 51.4685 151.167 51.557 151.295C52.4217 152.273 53.3412 153.179 54.6208 153.607C54.8722 153.612 55.1471 153.537 55.3219 153.806C55.7173 153.843 56.1258 153.831 56.5049 153.93C58.7257 154.514 60.9508 155.087 63.1532 155.736C66.8138 156.814 70.4403 158.009 74.1129 159.041C78.5491 160.286 82.8647 161.825 87.0315 163.794C90.6498 165.504 94.2914 167.164 97.9244 168.843C98.4289 169.076 98.9384 169.297 99.4511 169.512C99.6895 169.612 99.9383 169.691 100.186 169.764C100.5 169.857 100.774 169.764 100.995 169.532C101.225 169.288 101.246 169.01 101.102 168.712Z" fill="#FDE2C8"/>
<path d="M45.8959 110.361C45.6863 110.608 45.481 110.858 45.267 111.101C45.0503 111.347 44.8309 111.587 44.8401 111.945C45.3528 111.42 45.8655 110.896 46.3782 110.371C46.2175 110.367 46.0567 110.364 45.8959 110.361Z" fill="#FDE2C8"/>
<path d="M44.2296 112.252C43.7533 112.644 43.3438 113.088 43.2949 113.75C43.7397 113.22 44.184 112.689 44.6283 112.159C44.4936 112.187 44.3241 112.174 44.2296 112.252Z" fill="#FDE2C8"/>
<path d="M100.537 167.647C100.537 167.643 100.537 167.64 100.536 167.636C100.534 167.636 100.532 167.635 100.529 167.634L100.537 167.647Z" fill="#EE214E"/>
<path d="M127.293 151.353C127.156 151.85 126.968 152.338 126.89 152.843C126.495 155.383 125.835 157.849 124.892 160.239C124.551 161.1 124.148 161.938 123.832 162.808C123.447 163.868 122.856 164.811 122.227 165.726C121.492 166.795 120.665 167.783 119.577 168.545C118.492 169.305 117.327 169.82 116.035 170.088C115.229 170.254 114.423 170.38 113.605 170.258C112.204 170.048 110.863 169.644 109.576 169.033C107.091 167.854 105.063 166.062 103.074 164.225C101.712 162.966 100.537 161.521 99.3903 160.067C96.7203 156.68 94.393 153.059 92.378 149.25C90.5564 145.806 88.8592 142.3 87.3944 138.683C85.5825 134.208 83.9575 129.669 82.6095 125.035C81.3864 120.83 80.3979 116.565 79.6049 112.259C79.209 110.109 78.8576 107.951 78.5306 105.79C78.3259 104.436 78.1493 103.073 78.0597 101.709C77.9658 100.268 77.7138 98.8361 77.7952 97.3843C77.8034 97.2387 77.755 97.091 77.7409 96.9433C77.6926 96.4279 77.5997 95.9114 77.6084 95.3965C77.6578 92.5435 77.4427 89.6883 77.7876 86.8363C77.925 85.7023 77.8164 84.5455 78.0163 83.4022C78.2205 82.2372 78.2987 81.051 78.4622 79.8784C78.9906 76.0836 79.9259 72.3844 81.1061 68.7433C81.4374 67.7223 81.7426 66.6931 82.0604 65.6677C81.6612 66.0484 81.2272 66.3987 80.8704 66.8153C79.8032 68.0617 78.9814 69.4635 78.3508 70.9783C77.5812 72.8271 76.9664 74.7258 76.4782 76.6675C75.7102 79.722 75.1649 82.8178 74.7369 85.9359C74.6864 86.3046 74.6777 86.6788 74.3687 86.9455C74.3671 86.9933 74.3524 87.04 74.3258 87.0829C74.6576 87.6929 74.5121 88.2897 74.2753 88.8845C74.0765 92.7803 74.0423 96.6761 74.2438 100.574C74.4246 104.06 74.7277 107.534 75.2893 110.982C76.1192 116.077 77.257 121.106 78.5637 126.096C80.041 131.741 81.8344 137.281 84.3561 142.554C85.8763 145.733 87.5236 148.852 89.1421 151.984C90.8301 155.25 92.6241 158.456 94.859 161.392C94.966 161.468 95.0735 161.543 95.1805 161.618C95.1284 161.841 95.2359 161.972 95.4282 162.054C95.4488 162.122 95.4543 162.204 95.4966 162.253C96.49 163.403 97.4856 164.552 98.4882 165.694C98.5544 165.77 98.6772 165.796 98.7733 165.845V165.844C98.8444 165.917 98.9156 165.99 98.9867 166.063C98.9862 166.063 98.9862 166.063 98.9862 166.063C99.2898 166.703 99.8215 167.147 100.321 167.619C100.384 167.55 100.447 167.482 100.509 167.414C100.518 167.488 100.527 167.562 100.536 167.635C100.782 167.685 100.927 167.809 100.87 168.086C100.87 168.086 100.826 168.112 100.826 168.113C101.376 168.127 101.659 168.558 102 168.883C103.558 170.372 105.195 171.757 107.042 172.88C108.349 173.675 109.73 174.281 111.235 174.604C113.598 175.11 115.795 174.73 117.837 173.436C119.135 172.613 120.215 171.55 121.179 170.367C122.711 168.484 123.878 166.384 124.814 164.152C125.839 161.712 126.465 159.162 126.828 156.547C127.067 154.824 127.356 153.104 127.293 151.353Z" fill="#EE214E"/>
<path d="M93.5176 73.5362C93.629 74.0565 93.9966 74.283 94.2747 74.5567C95.7813 76.0411 97.2391 77.5689 98.5013 79.2699C99.6489 80.8167 100.826 82.3451 101.899 83.9429C102.89 85.418 103.827 86.9382 104.665 88.5035C105.89 90.7895 106.998 93.1374 108.172 95.4506C108.959 97.0039 109.771 98.5447 110.578 100.088C110.682 100.286 110.823 100.472 111.161 100.336C111.172 100.149 111.24 99.9194 111.186 99.7239C110.862 98.5458 110.572 97.3526 110.154 96.2066C109.366 94.0472 108.359 91.9828 107.284 89.9488C106.453 88.3743 105.592 86.822 104.648 85.3105C102.538 81.9339 100.182 78.7615 97.2842 76.0096C96.4727 75.2394 95.6314 74.5241 94.6457 73.9891C94.3269 73.8159 94.0667 73.5155 93.5176 73.5362ZM103.001 91.2115C102.96 91.1637 102.92 91.1154 102.88 91.067C102.919 91.1165 102.958 91.1653 102.997 91.2142C103.052 91.4657 103.077 91.728 103.167 91.9654C103.47 92.76 103.793 93.548 104.117 94.335C105.213 97.0034 106.358 99.6527 107.3 102.384C107.601 103.254 108.028 104.082 108.413 104.923C108.503 105.119 108.646 105.298 108.788 105.465C108.929 105.63 109.295 105.548 109.332 105.331C109.379 105.047 109.397 104.748 109.366 104.462C109.235 103.237 108.795 102.103 108.378 100.951C107.431 98.3286 106.186 95.8547 104.771 93.4628C104.284 92.6405 103.771 91.8198 103.001 91.2115ZM85.1416 73.143C85.9574 71.8715 87.0539 70.8972 88.3623 70.1612C89.6902 69.4139 91.1018 69.3389 92.559 69.693C93.9494 70.0309 95.1828 70.6853 96.319 71.5391C97.9848 72.7905 99.4436 74.258 100.786 75.8444C102.151 77.4564 103.403 79.1526 104.583 80.9031C105.162 81.7623 105.719 82.6367 106.323 83.478C106.731 84.0461 107.203 84.5686 107.646 85.1123C108.175 86.1366 108.703 87.1598 109.232 88.1831C109.501 88.7501 109.757 89.3242 110.042 89.8836C112.191 94.1172 114.123 98.4437 115.625 102.952C116.199 104.674 116.7 106.419 117.278 108.14C117.525 108.873 117.883 109.567 118.191 110.281C118.325 110.689 118.458 111.097 118.592 111.506C118.592 111.506 118.584 111.477 118.584 111.478C118.641 111.692 118.699 111.906 118.757 112.12C119.175 113.957 119.594 115.794 120.012 117.632C120.447 119.541 120.881 121.451 121.316 123.36C121.382 123.648 121.456 123.935 121.526 124.222C121.623 124.917 121.706 125.614 121.82 126.306C122.438 130.073 122.836 133.863 123.026 137.674C123.168 140.521 123.265 143.372 123.371 146.221C123.471 148.926 123.404 151.626 123.078 154.316C122.958 155.306 122.796 156.292 122.653 157.279C122.263 158.63 121.888 159.987 121.287 161.265C120.925 162.034 120.543 162.796 120.127 163.537C119.634 164.417 118.957 165.154 118.175 165.792C118.09 165.883 118.004 165.974 117.918 166.065L117.927 166.057C117.601 166.206 117.275 166.356 116.948 166.505C115.7 167.08 114.415 167.385 113.041 167.037C113.04 166.851 113.009 166.66 113.044 166.482C113.238 165.533 113.271 164.574 113.263 163.611C113.262 163.5 113.266 163.385 113.296 163.28C113.514 162.518 113.469 161.738 113.471 160.961C113.474 159.146 113.482 157.331 113.469 155.516C113.462 154.334 113.433 153.158 113.308 151.974C113.165 150.62 113.197 149.245 113.037 147.883C112.908 146.784 112.872 145.674 112.758 144.572C112.648 143.506 112.501 142.445 112.353 141.385C112.168 140.068 111.979 138.751 111.769 137.438C111.524 135.904 111.274 134.371 110.992 132.844C110.743 131.499 110.442 130.163 110.171 128.82C110.095 128.442 109.969 128.108 109.6 127.921C109.626 127.824 109.652 127.727 109.677 127.629C109.971 127.207 110.31 126.809 110.55 126.359C111.256 125.037 111.646 123.608 111.812 122.124C112.054 119.967 111.992 117.825 111.161 115.782C110.757 114.789 110.302 113.809 109.778 112.875C108.697 110.95 107.159 109.49 105.128 108.575C104.86 108.455 104.602 108.314 104.339 108.183C104.282 107.893 104.257 107.594 104.163 107.317C103.854 106.406 103.509 105.507 103.196 104.597C102.098 101.41 100.779 98.3101 99.4148 95.2322C98.3954 92.9321 97.2575 90.6841 96.1344 88.4318C95.6233 87.4064 95.0345 86.419 94.4567 85.4289C93.7289 84.183 92.9767 82.9517 92.2342 81.7145C91.2425 80.0618 90.1036 78.5123 88.9027 77.0084C88.2803 76.229 87.6481 75.4566 86.9953 74.7028C86.4625 74.0874 85.9183 73.4737 85.1416 73.143Z" fill="#224B8B"/>
<path d="M85.1419 73.1431C85.9186 73.4739 86.4628 74.0876 86.9956 74.7029C87.6484 75.4568 88.2806 76.2291 88.903 77.0085C90.1038 78.5124 91.2428 80.0619 92.2345 81.7146C92.977 82.9519 93.7292 84.1831 94.457 85.429C95.0348 86.4192 95.6236 87.4066 96.1347 88.432C97.2578 90.6843 98.3957 92.9323 99.4151 95.2324C100.779 98.3103 102.099 101.41 103.196 104.597C103.51 105.507 103.854 106.407 104.164 107.317C104.258 107.594 104.283 107.894 104.339 108.183C104.195 108.16 104.05 108.136 103.905 108.113C103.118 107.751 102.275 107.618 101.427 107.51C100.271 107.225 99.0925 107.095 97.9085 107.05C95.3145 106.952 92.7222 107 90.1408 107.295C89.2245 107.4 88.3143 107.561 87.4007 107.696C86.3693 107.779 85.3385 107.887 84.3055 107.935C83.7341 107.962 83.2062 108.065 82.7234 108.372C82.5762 107.622 82.4192 106.874 82.2862 106.121C82.1775 105.51 82.0977 104.894 82.0048 104.281C81.9978 104.023 82.0081 103.763 81.9798 103.507C81.6692 100.711 81.5247 97.904 81.434 95.095C81.314 91.3931 81.4307 87.6971 81.868 84.0164C82.2041 81.184 82.7212 78.3886 83.6896 75.6925C83.7759 75.4524 83.8178 75.1961 83.8802 74.9479C83.8802 74.9479 83.8476 74.9908 83.8482 74.9908C83.9074 74.9017 83.9666 74.8127 84.0258 74.7236C84.3978 74.1968 84.7699 73.6699 85.1419 73.1431Z" fill="#213B69"/>
<path d="M87.2578 66.9276C87.3783 66.9494 87.6418 66.9635 87.8813 67.046C88.2951 67.1889 88.4087 67.7477 88.0882 68.0492C87.9302 68.198 87.7357 68.3213 87.538 68.4147C86.3578 68.9725 85.2928 69.6981 84.2891 70.5302C83.923 70.8338 83.495 71.0765 83.0654 71.2851C82.7298 71.4475 82.3208 71.5089 82.0205 71.2188C81.7044 70.9141 81.832 70.5274 81.996 70.1875C82.1399 69.8893 82.2866 69.5754 82.5033 69.332C83.6509 68.0432 85.0804 67.2432 86.7874 66.9548C86.8961 66.9363 87.009 66.9412 87.2578 66.9276Z" fill="#F24F90"/>
<path d="M89.4082 135.313C89.4082 135.316 89.4082 135.318 89.4082 135.32C89.4104 135.324 89.4125 135.328 89.4147 135.331L89.4082 135.313Z" fill="#EF2A66"/>
<path d="M123.078 154.317C122.958 155.307 122.796 156.293 122.653 157.28C122.263 158.631 121.888 159.989 121.287 161.266C120.925 162.035 120.543 162.797 120.127 163.538C119.634 164.418 118.957 165.155 118.175 165.792C118.092 165.881 118.009 165.97 117.926 166.059C117.6 166.208 117.274 166.357 116.948 166.507C115.7 167.081 114.415 167.386 113.041 167.038C112.246 167.068 111.542 166.704 110.797 166.519C110.77 166.552 110.744 166.585 110.719 166.619C110.718 166.619 110.718 166.619 110.718 166.619C110.276 166.391 109.834 166.162 109.392 165.934C109.25 165.85 109.108 165.766 108.966 165.682C108.427 165.358 107.869 165.064 107.354 164.705C104.672 162.837 102.498 160.469 100.618 157.814C98.9 155.386 97.3793 152.837 95.9884 150.212C94.2498 146.933 92.6264 143.596 91.185 140.173C91.0422 139.833 90.9558 139.47 90.8434 139.117C90.5083 138.289 90.1732 137.46 89.8381 136.632C89.5801 136.233 89.3938 135.81 89.4074 135.321C89.2765 135.108 89.1103 134.907 89.0239 134.677C87.8149 131.457 86.7379 128.195 85.971 124.838C85.889 124.48 85.8635 124.109 85.8119 123.745C84.6018 118.956 83.773 114.088 82.7965 109.25C82.7384 108.965 82.746 108.665 82.7232 108.373C82.576 107.623 82.419 106.875 82.286 106.122C82.1773 105.511 82.0975 104.895 82.0046 104.281C81.9976 104.024 82.0079 103.764 81.9796 103.508C81.669 100.712 81.5245 97.905 81.4338 95.0959C81.3138 91.394 81.4305 87.6981 81.8678 84.0173C82.2039 81.185 82.721 78.3895 83.6894 75.6935C83.7757 75.4534 83.8176 75.1971 83.88 74.9489L83.8474 74.9918C83.9066 74.9027 83.9664 74.8136 84.0256 74.7246C84.3976 74.1977 84.7697 73.6709 85.1417 73.1441C85.9575 71.8726 87.054 70.8983 88.3624 70.1623C89.6903 69.415 91.1019 69.34 92.5591 69.6942C93.9495 70.032 95.1829 70.6864 96.3191 71.5402C97.9849 72.7916 99.4437 74.2591 100.786 75.8456C102.151 77.4575 103.404 79.1537 104.583 80.9042C105.162 81.7634 105.719 82.6378 106.323 83.4791C106.731 84.0472 107.203 84.5697 107.645 85.1128C107.852 85.2508 108.166 85.3442 108.245 85.5354C108.166 85.3442 107.852 85.2508 107.646 85.1134C108.175 86.1377 108.703 87.1609 109.232 88.1842C109.501 88.7512 109.758 89.3253 110.042 89.8847C112.191 94.1183 114.123 98.4448 115.625 102.953C116.199 104.675 116.7 106.421 117.278 108.141C117.525 108.874 117.883 109.568 118.191 110.281C118.373 110.357 118.503 110.468 118.563 110.63C118.503 110.468 118.373 110.357 118.191 110.282C118.324 110.687 118.456 111.092 118.589 111.498C118.645 111.705 118.701 111.913 118.757 112.121C119.175 113.958 119.594 115.795 120.012 117.633C120.447 119.542 120.881 121.452 121.316 123.362C121.382 123.649 121.456 123.936 121.526 124.223V124.224C121.623 124.918 121.706 125.615 121.82 126.307C122.438 130.074 122.836 133.864 123.026 137.676C123.168 140.523 123.265 143.373 123.371 146.222C123.471 148.927 123.404 151.627 123.078 154.317ZM81.9954 70.1884C82.1393 69.8902 82.286 69.5763 82.5027 69.333C83.6503 68.0442 85.0798 67.2441 86.7868 66.9557C86.8954 66.9373 87.0084 66.9422 87.2571 66.9286C87.3777 66.9503 87.6411 66.9644 87.8806 67.047C88.2945 67.1898 88.408 67.7487 88.0876 68.0501C87.9295 68.1989 87.7351 68.3222 87.5374 68.4156C86.3572 68.9734 85.2921 69.6991 84.2884 70.5311C83.9224 70.8347 83.4944 71.0775 83.0648 71.286C82.7291 71.4484 82.3202 71.5098 82.0198 71.2198C81.7037 70.9151 81.8314 70.5284 81.9954 70.1884ZM127.33 139.166C127.2 137.583 127.16 135.992 127.024 134.41C126.899 132.938 126.7 131.474 126.534 130.006C126.234 129.877 126.09 129.62 125.999 129.331C125.822 128.765 125.635 128.2 125.492 127.625C124.831 124.962 124.202 122.291 123.526 119.632C122.319 114.886 120.98 110.176 119.318 105.568C118.4 103.023 117.354 100.524 116.326 98.0201C114.987 94.7598 113.539 91.5434 111.846 88.4519C110.477 85.9487 108.982 83.5133 107.513 81.0655C106.923 80.0808 106.255 79.1428 105.621 78.1842C104.016 75.7608 102.147 73.5568 99.9917 71.6097C97.224 69.1076 94.0625 67.3039 90.417 66.3947C88.7002 65.9667 86.9753 65.9331 85.2291 66.1693C84.6442 66.2486 84.0457 66.2361 83.4531 66.2481C83.2782 66.2513 83.1017 66.1943 82.9632 66.1709C82.8133 65.9113 82.916 65.7511 83.0642 65.6365C83.628 65.2009 84.2597 64.8979 84.9456 64.704C86.8786 64.1581 88.8116 64.1185 90.7695 64.6013C93.8387 65.3584 96.6282 66.6902 99.164 68.5666C100.418 69.4943 101.609 70.4947 102.688 71.626C102.963 71.9144 103.21 72.2718 103.679 72.2767C103.545 72.06 103.441 71.8178 103.274 71.6309C100.852 68.924 98.0262 66.7472 94.7348 65.1939C93.6611 64.6871 92.5509 64.2456 91.3729 64.0832C89.9114 63.8817 88.4363 63.779 86.9666 63.6351C86.8933 63.6275 86.8183 63.6313 86.745 63.6389C84.9657 63.8138 83.3624 64.3949 82.0595 65.6685C81.7417 66.694 81.4365 67.7232 81.1052 68.7442C79.925 72.3853 78.9898 76.0845 78.4613 79.8793C78.2978 81.0519 78.2196 82.2381 78.0154 83.4031C77.8155 84.5464 77.9241 85.7032 77.7867 86.8372C77.4419 89.6892 77.6569 92.5444 77.6075 95.3974C77.5988 95.9122 77.6917 96.4288 77.74 96.9442C77.7542 97.0919 77.8025 97.2396 77.7943 97.3852C77.7129 98.837 77.9649 100.269 78.0588 101.71C78.1485 103.074 78.325 104.437 78.5297 105.791C78.8567 107.952 79.2081 110.11 79.604 112.26C80.397 116.566 81.3855 120.831 82.6086 125.036C83.9566 129.67 85.5816 134.209 87.3935 138.684C88.8583 142.301 90.5555 145.807 92.3771 149.251C94.3921 153.06 96.7194 156.681 99.3894 160.068C100.536 161.522 101.711 162.967 103.073 164.226C105.062 166.063 107.09 167.855 109.575 169.034C110.862 169.645 112.203 170.049 113.604 170.259C114.422 170.381 115.228 170.255 116.034 170.088C117.326 169.821 118.491 169.306 119.576 168.546C120.664 167.784 121.491 166.796 122.227 165.727C122.855 164.812 123.446 163.869 123.831 162.808C124.147 161.939 124.551 161.101 124.891 160.24C125.835 157.85 126.494 155.384 126.889 152.844C126.967 152.339 127.155 151.85 127.292 151.354C127.296 151.222 127.3 151.089 127.304 150.957C127.324 150.828 127.343 150.699 127.362 150.57C127.406 150.094 127.481 149.617 127.488 149.14C127.533 145.814 127.6 142.488 127.33 139.166Z" fill="#EF2A66"/>
<path d="M108.57 128.212C107.399 126.939 106.304 125.602 105.506 124.059C105.001 123.083 104.576 122.067 104.115 121.068C104.016 120.96 103.884 120.869 103.823 120.744C103.092 119.227 102.608 117.645 102.551 115.946C102.535 115.468 102.469 114.99 102.398 114.516C102.304 113.886 102.269 113.259 102.449 112.643C102.578 112.202 102.576 111.785 102.458 111.335C102.245 110.518 102.392 109.715 102.718 108.948C102.938 108.43 103.303 108.097 103.906 108.113C103.118 107.751 102.275 107.619 101.427 107.51C101.02 108.625 100.617 109.742 100.468 110.929C100.413 111.369 100.357 111.81 100.331 112.252C100.307 112.659 100.332 113.069 100.321 113.477C100.249 116.224 100.779 118.854 101.795 121.403C102.248 122.539 102.605 123.712 103.005 124.868C103.324 125.786 103.073 126.554 102.352 127.164C101.988 127.472 101.603 127.797 101.17 127.973C98.7511 128.954 96.3945 128.944 94.196 127.364C93.8402 127.108 93.5155 126.792 93.2325 126.457C92.1897 125.22 91.5146 123.771 90.9704 122.27C90.008 119.614 89.2954 116.886 88.7181 114.123C88.2711 111.982 87.8393 109.839 87.401 107.696C86.3696 107.779 85.3388 107.887 84.3057 107.935C83.7344 107.962 83.2065 108.065 82.7236 108.372C82.7464 108.665 82.7388 108.964 82.797 109.25C83.7735 114.087 84.6023 118.955 85.8124 123.744C85.864 124.109 85.8895 124.479 85.9715 124.837C86.7384 128.194 87.8154 131.456 89.0244 134.676C89.1107 134.907 89.2769 135.107 89.4078 135.32C89.3942 135.809 89.5805 136.232 89.8391 136.632C90.1736 137.46 90.5087 138.288 90.8438 139.116C91.0361 139.201 91.2284 139.285 91.4206 139.369C92.1734 139.354 92.8708 139.129 93.5611 138.844C95.0373 138.234 96.4016 137.414 97.7735 136.61C100.391 135.075 102.947 133.441 105.424 131.686C106.753 130.744 108.023 129.728 109.057 128.45C108.892 128.373 108.684 128.335 108.57 128.212Z" fill="#0BAABD"/>
<path d="M117.919 166.066C118.005 165.975 118.091 165.884 118.176 165.793C118.091 165.883 118.005 165.975 117.919 166.066Z" fill="#F4751A"/>
<path d="M84.0262 74.7235C83.967 74.8126 83.9078 74.9017 83.8486 74.9907C83.9073 74.9017 83.967 74.8126 84.0262 74.7235Z" fill="#F4751A"/>
<path d="M8.0918 127.412C8.15882 127.219 8.22562 127.027 8.2927 126.833C8.22562 127.026 8.15882 127.219 8.0918 127.412Z" fill="#F36026"/>
<path d="M12.2841 153.605H12.2843C12.2752 153.677 12.2741 153.746 12.2871 153.807C12.2741 153.746 12.2752 153.677 12.2841 153.605ZM12.5071 154.035C12.5073 154.039 12.5073 154.043 12.5075 154.047C12.4345 153.896 12.3617 153.745 12.2887 153.595C12.1956 153.283 12.1292 152.96 12.0013 152.663C10.2037 148.492 8.97403 144.152 8.14723 139.694C8.03269 139.075 7.86633 138.44 7.90837 137.825C7.97707 136.817 7.8042 135.834 7.78106 134.841C7.73142 132.694 7.66608 130.542 8.03692 128.409C8.09357 128.083 8.07554 127.744 8.0921 127.412C8.15913 127.22 8.22593 127.027 8.293 126.834C8.3087 126.776 8.30762 126.719 8.28958 126.662C8.12621 126.589 7.96268 126.516 7.79931 126.444C7.79866 126.45 7.79844 126.457 7.79801 126.464C7.58928 126.44 7.38051 126.416 7.17173 126.392L7.16239 126.398C6.99755 126.638 6.75825 126.648 6.50386 126.613C6.50407 126.613 6.48713 126.616 6.48713 126.616C6.33625 126.675 6.18564 126.735 6.0346 126.795C4.72665 127.586 3.6283 128.582 2.93327 129.971C2.93305 131.264 2.9437 132.549 2.7731 133.845C2.61951 135.01 2.70624 136.211 2.72433 137.395C2.77457 140.722 3.42588 143.918 4.74278 146.989C5.39089 148.501 6.20878 149.892 7.2091 151.183C8.17547 152.43 9.33661 153.445 10.8102 154.064C11.3587 154.295 11.9107 154.507 12.52 154.496C12.6659 154.652 12.8119 154.808 12.9579 154.965C12.8077 154.654 12.6575 154.345 12.5071 154.035Z" fill="#224B8B"/>
<path d="M16.5033 160.548C16.5996 160.43 16.6962 160.312 16.7927 160.196C16.5973 159.947 16.4133 159.683 16.0686 159.625C15.9984 159.55 15.9284 159.476 15.8582 159.402C15.832 159.134 15.6797 158.987 15.4245 158.937C15.3969 158.738 15.2832 158.606 15.0963 158.532C14.3646 157.58 13.6967 156.589 13.1975 155.491C13.1164 155.302 13.0352 155.112 12.9542 154.923C12.9544 154.923 12.9575 154.964 12.9575 154.964C12.8116 154.808 12.6654 154.651 12.5194 154.496C11.9103 154.507 11.3583 154.295 10.8099 154.064C9.33626 153.445 8.17512 152.429 7.20875 151.183C6.20843 149.892 5.39054 148.501 4.74243 146.989C3.42553 143.918 2.77422 140.722 2.72398 137.394C2.70589 136.21 2.61916 135.01 2.77275 133.844C2.94334 132.549 2.9327 131.264 2.93292 129.971C2.2551 130.789 1.9326 131.781 1.63051 132.768C0.847004 135.33 0.799482 137.957 1.05002 140.598C1.32859 143.532 2.0637 146.366 3.01569 149.144C3.83439 151.534 4.81244 153.857 6.1117 156.033C6.87565 157.313 7.75165 158.504 8.82388 159.548C10.6667 161.343 12.9452 161.973 15.433 162.01C16.3465 162.024 16.627 161.629 16.5292 160.656C16.5256 160.619 16.5123 160.584 16.5033 160.548Z" fill="#203B68"/>
<path d="M42.8333 164.498C42.4911 165.1 42.4221 165.723 42.5128 166.42C42.6665 167.595 42.735 168.782 43.0223 169.936C43.5518 172.058 44.0488 174.191 44.6609 176.29C45.3463 178.64 46.1588 180.954 47.1848 183.182C48.8494 186.796 50.7096 190.298 53.2916 193.363C54.0791 194.298 54.8189 195.285 55.696 196.129C56.7616 197.154 57.9185 198.095 59.2513 198.781C59.581 198.95 59.9019 199.136 60.2273 199.316C60.1263 199.533 59.953 199.645 59.7249 199.715C58.706 200.026 57.6621 200.009 56.6351 199.858C53.592 199.409 50.9051 198.108 48.4562 196.291C47.4449 195.54 46.4467 194.772 45.5532 193.874C45.0584 193.376 44.4512 192.987 43.9749 192.475C41.6474 189.974 39.483 187.347 37.7274 184.4C36.1587 181.766 34.9445 178.994 34.289 175.99C33.8982 174.201 33.8256 172.386 33.9586 170.57C34.0068 169.916 34.2368 169.264 34.4563 168.637C34.7379 167.834 35.3799 167.283 36.0482 166.823C36.7154 166.365 37.4433 165.964 38.1956 165.667C39.3682 165.205 40.5843 164.853 41.7813 164.453C42.1386 164.333 42.4938 164.213 42.8333 164.498Z" fill="#234B8B"/>
<path d="M65.3811 195.19C65.2659 194.616 65.1019 194.031 64.8401 193.511C64.4257 192.688 63.9494 191.889 63.428 191.128C62.717 190.091 61.9447 189.095 61.1887 188.09C58.0495 183.91 55.1595 179.575 52.8409 174.877C52.7931 174.78 52.7111 174.7 52.6454 174.613C52.6416 174.649 52.6487 174.692 52.6324 174.722C52.2326 175.465 52.3532 176.181 52.6492 176.939C53.3227 178.667 54.0228 180.377 54.9917 181.966C56.2452 184.02 57.5091 186.069 58.7262 188.145C59.2112 188.973 59.6104 189.855 59.9971 190.734C60.2013 191.2 60.4495 191.78 59.9987 192.187C59.5794 192.567 59.0124 192.353 58.5155 192.196C57.5042 191.876 56.6683 191.252 55.8884 190.571C54.825 189.642 53.9369 188.549 53.1157 187.4C51.6488 185.348 50.3811 183.175 49.1613 180.971C48.5883 179.936 47.9746 178.923 47.3641 177.873C47.1838 177.93 47.0279 177.979 46.8384 178.039C46.7439 177.844 46.6206 177.655 46.5565 177.447C46.1421 176.102 45.738 174.755 45.3388 173.406C45.2975 173.267 45.3105 173.112 45.2986 172.965C45.0602 172.192 44.7957 171.427 44.5882 170.646C44.2096 169.223 43.8838 167.786 43.4976 166.365C43.3244 165.73 43.0577 165.119 42.8334 164.497C42.4912 165.099 42.4222 165.723 42.5129 166.42C42.6666 167.594 42.7351 168.782 43.0224 169.935C43.5519 172.058 44.0489 174.191 44.661 176.289C45.3464 178.64 46.1589 180.954 47.1849 183.182C48.8495 186.796 50.7097 190.297 53.2917 193.363C54.0792 194.297 54.819 195.285 55.6961 196.129C56.7617 197.154 57.9186 198.094 59.2514 198.78C59.5811 198.95 59.902 199.136 60.2274 199.315C60.9573 199.282 61.514 199.765 62.1652 199.964C63.101 199.561 63.8647 198.924 64.5327 198.174C65.2909 197.322 65.6054 196.314 65.3811 195.19Z" fill="#2F65B4"/>
<path d="M113.47 155.517C113.462 154.335 113.434 153.159 113.308 151.975C113.165 150.621 113.197 149.246 113.038 147.885C112.909 146.785 112.872 145.674 112.759 144.573C112.648 143.508 112.501 142.446 112.353 141.386C112.169 140.069 111.979 138.753 111.77 137.439C111.525 135.906 111.275 134.372 110.992 132.846C110.743 131.5 110.442 130.164 110.172 128.822C110.096 128.443 109.97 128.109 109.6 127.923C109.419 128.099 109.238 128.275 109.057 128.451C108.023 129.729 106.753 130.745 105.424 131.687C102.947 133.441 100.391 135.076 97.7734 136.611C96.4015 137.415 95.0372 138.234 93.561 138.844C92.8707 139.13 92.1733 139.354 91.4205 139.37C91.2283 139.286 91.036 139.202 90.8438 139.117C90.9562 139.47 91.0425 139.833 91.1854 140.173C92.6268 143.596 94.2502 146.933 95.9887 150.212C97.3797 152.837 98.9004 155.386 100.619 157.814C102.499 160.469 104.673 162.837 107.355 164.705C107.869 165.064 108.427 165.358 108.966 165.683L109.024 165.613C109.024 165.613 108.966 165.683 108.966 165.682C109.108 165.766 109.25 165.85 109.392 165.934C109.835 166.162 110.277 166.391 110.719 166.619C110.745 166.585 110.77 166.552 110.797 166.519C111.542 166.704 112.246 167.068 113.041 167.038C113.041 166.853 113.009 166.661 113.045 166.483C113.239 165.534 113.272 164.575 113.263 163.612C113.262 163.501 113.266 163.386 113.296 163.281C113.515 162.52 113.47 161.739 113.471 160.962C113.474 159.147 113.482 157.332 113.47 155.517Z" fill="#213B69"/>
<path d="M109.601 127.921C109.419 128.098 109.238 128.274 109.057 128.45C108.893 128.373 108.685 128.335 108.57 128.211C107.399 126.939 106.304 125.602 105.506 124.059C105.002 123.083 104.576 122.067 104.115 121.068C104.085 120.811 104.058 120.553 104.026 120.297C103.862 118.977 103.616 117.661 103.683 116.326C103.717 115.666 103.786 114.989 103.972 114.359C104.351 113.078 105.211 112.608 106.366 113.617C106.985 114.158 107.503 114.782 107.908 115.496C108.882 117.213 109.632 119.022 110.044 120.955C110.267 122.003 110.466 123.068 110.293 124.147C110.175 124.875 109.983 125.591 109.848 126.317C109.767 126.75 109.733 127.192 109.678 127.63C109.652 127.727 109.626 127.824 109.601 127.921Z" fill="#1CB4C7"/>
<path d="M109.678 127.63C109.734 127.192 109.768 126.75 109.848 126.317C109.983 125.591 110.176 124.875 110.293 124.147C110.467 123.068 110.267 122.002 110.044 120.955C109.633 119.022 108.882 117.213 107.909 115.496C107.504 114.782 106.985 114.158 106.366 113.617C105.212 112.608 104.351 113.078 103.973 114.358C103.786 114.988 103.717 115.666 103.684 116.326C103.616 117.661 103.862 118.977 104.026 120.296C104.058 120.553 104.086 120.811 104.116 121.068C104.016 120.961 103.884 120.869 103.823 120.743C103.092 119.226 102.608 117.644 102.551 115.945C102.535 115.468 102.47 114.99 102.399 114.516C102.304 113.886 102.27 113.259 102.45 112.643C102.578 112.202 102.577 111.785 102.459 111.335C102.246 110.518 102.393 109.715 102.719 108.947C102.938 108.43 103.304 108.097 103.906 108.113C104.051 108.136 104.195 108.16 104.34 108.183C104.603 108.314 104.861 108.455 105.129 108.575C107.16 109.49 108.698 110.95 109.779 112.875C110.303 113.809 110.758 114.789 111.163 115.782C111.993 117.825 112.055 119.967 111.813 122.125C111.647 123.608 111.258 125.037 110.552 126.359C110.311 126.809 109.972 127.208 109.678 127.63Z" fill="#59C8D2"/>
<path d="M93.5186 73.5361C94.0677 73.5154 94.3278 73.8158 94.6466 73.9891C95.6324 74.524 96.4737 75.2393 97.2851 76.0095C100.183 78.7615 102.539 81.9338 104.649 85.3104C105.593 86.8219 106.454 88.3742 107.285 89.9487C108.36 91.9827 109.367 94.0471 110.155 96.2065C110.573 97.3525 110.863 98.5457 111.187 99.7238C111.241 99.9193 111.173 100.149 111.162 100.336C110.823 100.472 110.683 100.286 110.579 100.088C109.771 98.5447 108.96 97.0038 108.173 95.4505C106.999 93.1373 105.891 90.7894 104.666 88.5034C103.828 86.9381 102.891 85.418 101.9 83.9428C100.827 82.345 99.6499 80.8166 98.5022 79.2698C97.24 77.5688 95.7823 76.041 94.2757 74.5566C93.9976 74.2829 93.6299 74.0564 93.5186 73.5361Z" fill="#2D66B4"/>
<path d="M103.001 91.212C103.771 91.8203 104.285 92.6409 104.771 93.4632C106.187 95.8551 107.432 98.329 108.379 100.952C108.795 102.103 109.236 103.238 109.367 104.463C109.398 104.749 109.38 105.047 109.332 105.331C109.296 105.549 108.93 105.63 108.789 105.465C108.647 105.298 108.504 105.12 108.414 104.923C108.029 104.083 107.602 103.255 107.301 102.384C106.358 99.6532 105.214 97.0038 104.117 94.3355C103.794 93.5485 103.471 92.7604 103.168 91.9658C103.077 91.7285 103.053 91.4661 102.998 91.2147L103.001 91.212Z" fill="#2D66B4"/>
<path d="M102.998 91.2144C102.959 91.1655 102.92 91.1166 102.881 91.0672C102.921 91.1155 102.961 91.1639 103.001 91.2117L102.998 91.2144Z" fill="#2D66B4"/>
<path d="M101.427 107.51C101.021 108.625 100.618 109.742 100.469 110.929C100.413 111.369 100.357 111.81 100.331 112.252C100.307 112.659 100.332 113.069 100.321 113.477C100.249 116.224 100.779 118.854 101.796 121.403C102.249 122.538 102.605 123.712 103.006 124.868C103.324 125.786 103.073 126.554 102.352 127.164C101.989 127.471 101.603 127.797 101.17 127.973C98.7515 128.954 96.3949 128.944 94.1964 127.364C93.8406 127.108 93.5158 126.791 93.2329 126.456C92.1901 125.22 91.515 123.771 90.9708 122.269C90.0083 119.614 89.2958 116.886 88.7184 114.123C88.2714 111.982 87.8397 109.838 87.4014 107.696C88.3149 107.561 89.2252 107.4 90.1414 107.295C92.7229 107 95.3152 106.952 97.9091 107.05C99.0931 107.095 100.272 107.225 101.427 107.51Z" fill="#1CB4C7"/>
<path d="M45.3545 160.499C45.6771 162.169 45.9449 163.77 46.3071 165.35C46.4961 166.173 46.8182 166.973 47.1435 167.756C47.3249 168.193 47.6101 168.596 47.8963 168.979C48.1662 169.339 48.5388 169.605 48.9928 169.691C49.8971 169.862 50.7623 169.729 51.5743 169.289C51.9317 169.096 52.1337 168.789 52.1066 168.385C52.0789 167.981 52.0284 167.573 51.9306 167.181C51.7057 166.283 51.4163 165.402 51.2066 164.501C50.8205 162.847 50.4729 161.183 50.0959 159.465C50.0063 159.465 49.8586 159.438 49.7244 159.469C48.2917 159.801 46.8606 160.142 45.3545 160.499ZM15.4108 160.725C15.2218 160.464 15.1476 160.34 15.0529 160.234C14.0079 159.065 13.1495 157.765 12.4005 156.394C11.1531 154.11 10.0921 151.739 9.27955 149.266C8.04818 145.518 7.27912 141.665 6.7674 137.758C6.31633 134.314 6.26903 130.876 6.93479 127.45C6.95494 127.346 6.93734 127.235 6.93734 127.059C6.72367 127.137 6.54439 127.174 6.39291 127.261C4.13684 128.547 2.76122 130.482 2.14619 132.992C1.56359 135.369 1.55767 137.78 1.76834 140.189C2.08678 143.829 2.93329 147.362 4.19284 150.791C4.8851 152.676 5.72058 154.495 6.80791 156.191C7.53369 157.323 8.38144 158.347 9.41126 159.22C11.1115 160.661 13.082 161.016 15.4108 160.725ZM42.8909 161.068C42.9039 161.301 42.9001 161.519 42.9294 161.732C43.2874 164.34 43.6909 166.939 44.3709 169.487C45.7059 174.487 47.653 179.245 50.0541 183.821C52.9669 189.372 56.4944 194.478 61.0507 198.828C61.256 199.024 61.4852 199.195 61.7481 199.416C62.3851 198.927 62.9891 198.499 63.5534 198.024C64.6603 197.093 64.8889 195.924 64.3404 194.616C64.0552 193.935 63.731 193.261 63.341 192.636C62.7528 191.694 62.1043 190.787 61.4597 189.881C60.148 188.039 58.8043 186.219 57.5052 184.368C55.5858 181.632 53.8554 178.779 52.4058 175.767C51.8127 174.534 51.3402 173.243 50.8183 171.977C50.7232 171.747 50.6548 171.505 50.5668 171.248C50.3365 171.248 50.154 171.238 49.9726 171.249C48.3194 171.352 47.1088 170.614 46.2675 169.245C45.9204 168.68 45.6282 168.071 45.3871 167.453C44.694 165.678 44.3454 163.825 44.2329 161.926C44.2118 161.564 44.1917 161.202 44.1705 160.834C43.6833 160.76 43.3047 160.848 42.8909 161.068ZM60.9871 199.759C60.3463 199.215 59.7711 198.798 59.2834 198.296C58.2748 197.259 57.2597 196.221 56.3413 195.106C51.9409 189.762 48.5545 183.822 46.0241 177.388C44.2253 172.814 42.8697 168.124 42.3516 163.218C42.282 162.559 42.2413 161.897 42.1837 161.189C41.8416 161.22 41.5467 161.227 41.259 161.277C40.3457 161.436 39.4367 161.622 38.5226 161.777C33.9512 162.55 29.399 163.455 24.761 163.77C24.5228 163.786 24.2909 163.895 24.0681 163.957C24.1225 164.699 24.1704 165.364 24.22 166.03C24.4797 169.514 24.9698 172.962 25.9158 176.332C28.048 183.93 31.6336 190.794 36.4239 197.041C37.5779 198.546 38.896 199.903 40.3452 201.134C42.905 203.309 45.8558 204.095 49.1569 203.687C53.1054 203.2 56.8089 201.937 60.3468 200.151C60.5391 200.053 60.7161 199.926 60.9871 199.759ZM126.523 142.124C126.52 138.9 126.197 135.128 125.745 131.369C125.284 127.538 124.631 123.736 123.822 119.961C121.976 111.341 119.366 102.964 115.877 94.864C113.538 89.4349 110.826 84.2052 107.522 79.2932C105.488 76.2681 103.25 73.4058 100.643 70.8461C99.0491 69.2808 97.3415 67.8584 95.4243 66.6988C94.1485 65.927 92.8108 65.2959 91.3693 64.8967C89.8062 64.4639 88.2301 64.359 86.635 64.6958C84.8351 65.0754 83.3355 65.9976 82.0304 67.2615C80.6813 68.5677 79.6645 70.114 78.8232 71.7803C77.6968 74.0103 76.9261 76.3685 76.3428 78.7919C75.3929 82.7404 74.9437 86.7557 74.8074 90.8052C74.6912 94.2557 74.7303 97.7056 74.9676 101.154C75.1849 104.303 75.5031 107.44 75.9713 110.56C76.6165 114.854 77.5127 119.099 78.5881 123.306C80.6791 131.482 83.4219 139.429 87.0379 147.063C89.4261 152.104 92.1569 156.945 95.4846 161.434C97.3236 163.915 99.331 166.247 101.627 168.32C103.092 169.642 104.655 170.831 106.385 171.789C107.624 172.475 108.919 173.019 110.303 173.342C113.585 174.109 116.476 173.367 118.978 171.112C119.894 170.287 120.663 169.337 121.337 168.308C122.276 166.873 123.009 165.336 123.617 163.736C125.105 159.819 125.819 155.735 126.231 151.589C126.524 148.631 126.572 145.662 126.523 142.124ZM55.7743 155.153C54.9199 155.11 54.1954 154.715 53.5697 154.195C52.8311 153.58 52.1294 152.91 51.4869 152.195C50.3431 150.924 49.3888 149.505 48.4959 148.047C45.5424 143.227 43.5149 138.035 42.2342 132.539C41.2683 128.394 40.7729 124.212 41.127 119.952C41.2966 117.912 41.6523 115.906 42.2956 113.961C42.5036 113.332 42.8089 112.732 43.0973 112.132C43.2015 111.915 43.3292 111.75 43.6768 111.752C44.0923 111.754 44.3378 111.394 44.4915 110.926C44.1895 110.907 43.9695 110.858 43.7599 110.886C42.9523 110.992 42.1289 111.051 41.346 111.258C36.3624 112.572 31.3801 113.894 26.4131 115.271C23.2314 116.153 20.1027 117.209 17.0468 118.466C15.6039 119.061 14.2122 119.753 12.9074 120.62C11.1461 121.79 9.90262 123.362 9.17576 125.339C8.94602 125.964 8.74783 126.605 8.59636 127.252C7.83387 130.513 7.87102 133.811 8.27858 137.103C8.52868 139.125 8.90295 141.134 9.28971 143.136C10.1044 147.35 11.5203 151.359 13.5417 155.15C14.2241 156.43 14.9869 157.659 15.9207 158.773C17.3523 160.481 19.1293 161.636 21.35 162.001C22.1502 162.132 22.9749 162.149 23.7891 162.155C25.7633 162.169 27.7115 161.867 29.6536 161.563C32.5852 161.103 35.5127 160.614 38.4352 160.098C42.3803 159.401 46.3125 158.631 50.1921 157.625C51.6259 157.254 53.0358 156.785 54.4414 156.314C55.0302 156.116 55.6341 155.89 56.0464 155.368C56.1045 155.329 56.1936 155.3 56.2136 155.247C56.2587 155.127 56.2685 154.994 56.2929 154.867C56.13 154.838 55.9671 154.809 55.8041 154.781C55.7944 154.905 55.784 155.029 55.7743 155.153ZM98.6515 167.256L98.614 167.216C98.5554 167.154 98.4967 167.093 98.4381 167.032L98.3924 166.982C98.3376 166.925 98.2833 166.867 98.2284 166.81C97.606 166.124 96.9581 165.461 96.3661 164.75C92.9781 160.684 90.1859 156.224 87.7207 151.554C84.0562 144.611 81.1951 137.341 78.9036 129.839C76.3716 121.55 74.7026 113.085 73.7114 104.482C73.3546 101.384 73.1699 98.2715 73.1025 95.154C73.0249 91.5879 73.1476 88.0288 73.6087 84.4898C73.8238 82.836 74.1252 81.1931 74.3811 79.5447C74.406 79.385 74.3843 79.2188 74.3843 78.8544C74.1019 79.1939 73.9352 79.3764 73.788 79.5735C73.1216 80.4653 72.4823 81.3777 71.7952 82.2533C66.338 89.2009 60.7503 96.0415 54.8064 102.581C51.1132 106.645 47.4319 110.727 43.2749 114.339C42.9457 114.625 42.7817 114.961 42.7024 115.38C42.1989 118.054 41.9958 120.742 42.1511 123.464C42.3298 126.589 42.861 129.653 43.6013 132.684C44.9124 138.05 46.8997 143.144 49.8097 147.858C50.7661 149.408 51.8122 150.892 52.9685 152.3C53.2688 152.666 53.6094 152.882 54.0819 152.952C56.6921 153.335 59.2448 153.982 61.7855 154.677C72.6078 157.635 83.1432 161.409 93.4538 165.821C95.055 166.506 96.6311 167.251 98.2186 167.968C98.7368 168.227 99.2538 168.488 99.7769 168.738C99.8132 168.755 99.8942 168.68 100.046 168.599C99.684 168.172 99.3456 167.76 98.8666 167.479L98.8351 167.447C98.7737 167.383 98.7129 167.319 98.6515 167.256ZM46.0247 109.649C46.4907 109.171 46.9045 108.75 47.3151 108.325C53.3617 102.077 59.0471 95.5108 64.5658 88.7968C67.6067 85.097 70.658 81.4054 73.5055 77.5525C73.7483 77.224 73.9867 76.8927 74.2344 76.5679C75.2055 75.2959 76.0501 73.9652 76.5964 72.4363C77.0711 71.1095 77.7826 69.881 78.5631 68.7013C79.2203 67.7074 79.9567 66.7776 80.8165 65.9493C83.9118 62.9665 87.549 62.0524 91.6968 63.1164C93.4756 63.5726 95.1044 64.3699 96.6523 65.3426C99.0909 66.8753 101.212 68.7828 103.17 70.8803C106.018 73.9326 108.442 77.3043 110.627 80.8525C114.238 86.7182 117.132 92.9321 119.567 99.3643C122.649 107.506 124.925 115.871 126.429 124.442C127.624 131.255 128.312 138.119 128.234 145.044C128.184 149.431 127.83 153.792 126.941 158.098C126.384 160.793 125.623 163.425 124.49 165.941C123.864 167.332 123.146 168.676 122.215 169.886C121.651 170.62 121.055 171.343 120.388 171.981C117.345 174.895 113.756 175.754 109.696 174.698C107.734 174.187 105.952 173.279 104.285 172.145C103.635 171.703 102.945 171.367 102.224 171.066C98.7308 169.61 95.2559 168.112 91.7593 166.666C83.2872 163.164 74.7048 159.962 65.904 157.374C63.4844 156.662 61.0453 156.018 58.6142 155.345C58.4394 155.296 58.2585 155.269 58.1157 155.239C58.0152 155.316 57.9299 155.348 57.9055 155.405C57.4596 156.462 56.6378 157.138 55.6184 157.569C54.6978 157.958 53.7457 158.272 52.8056 158.615C52.427 158.753 52.0441 158.877 51.6406 159.016C51.621 159.739 51.8002 160.385 51.9539 161.022C52.364 162.716 52.8344 164.394 53.2607 166.084C53.4149 166.693 53.5496 167.313 53.6295 167.935C53.7701 169.027 53.3758 169.899 52.44 170.507C52.3173 170.588 52.1978 170.674 52.0289 170.79C52.0821 170.996 52.1169 171.209 52.1918 171.407C52.9397 173.39 53.8961 175.274 54.9226 177.125C56.6536 180.247 58.6555 183.192 60.7493 186.077C61.7307 187.429 62.7235 188.773 63.6669 190.151C64.2741 191.037 64.8297 191.962 65.3549 192.899C65.7731 193.645 66.0539 194.45 66.1756 195.309C66.3358 196.439 66.093 197.468 65.3723 198.336C64.9264 198.873 64.4148 199.386 63.845 199.784C62.9348 200.419 61.9832 201.012 60.9937 201.512C57.5611 203.249 53.9494 204.465 50.1361 205.035C48.5888 205.266 47.0295 205.327 45.4729 205.101C43.5231 204.817 41.7749 204.039 40.184 202.891C38.9441 201.997 37.838 200.953 36.7952 199.841C35.2426 198.183 33.8655 196.387 32.6111 194.498C29.3114 189.527 26.6057 184.263 24.7835 178.567C23.4764 174.482 22.7118 170.295 22.4812 166.012C22.4435 165.313 22.4757 164.609 22.4757 163.89C21.4772 163.663 20.5247 163.523 19.6268 163.221C18.7199 162.915 17.867 162.449 16.8599 161.994C15.8589 162.318 14.6834 162.419 13.4932 162.396C11.6035 162.359 9.93591 161.733 8.47861 160.533C7.14416 159.435 6.08616 158.105 5.18849 156.638C3.90303 154.537 2.94453 152.288 2.17802 149.956C0.955346 146.237 0.165051 142.432 0.0216672 138.509C-0.0643089 136.161 0.087222 133.833 0.80979 131.575C1.65315 128.941 3.27127 126.943 5.75263 125.687C6.31041 125.404 6.91355 125.211 7.605 124.933C7.69662 124.735 7.84006 124.439 7.97242 124.139C8.83147 122.186 10.1479 120.615 11.9018 119.401C13.2203 118.489 14.6329 117.752 16.1027 117.123C19.4499 115.69 22.901 114.55 26.3861 113.508C31.1149 112.094 35.8884 110.847 40.6783 109.662C41.3966 109.484 42.1376 109.398 42.867 109.266C43.9158 109.076 44.9352 109.17 46.0247 109.649Z" fill="#050606"/>
<path d="M98.2188 167.969C98.2904 167.988 98.3621 168.007 98.4338 168.026C98.6391 168.082 98.889 168.233 99.0117 167.966C99.0649 167.851 98.9205 167.645 98.8662 167.48C99.3457 167.761 99.6841 168.173 100.046 168.6C99.8943 168.681 99.8134 168.756 99.777 168.739C99.2539 168.489 98.7369 168.228 98.2188 167.969Z" fill="#050606"/>
<path d="M98.3931 166.983C98.3382 166.925 98.2834 166.867 98.2285 166.81C98.2839 166.868 98.3382 166.925 98.3931 166.983Z" fill="#050606"/>
<path d="M98.615 167.216C98.5563 167.155 98.4971 167.094 98.4385 167.032C98.4977 167.094 98.5563 167.155 98.615 167.216Z" fill="#050606"/>
<path d="M98.8355 167.447C98.7741 167.383 98.7127 167.319 98.6514 167.256C98.7133 167.319 98.7741 167.383 98.8355 167.447Z" fill="#050606"/>
<path d="M76.4043 135.273C77.6616 139.041 78.869 142.916 80.5717 146.611C82.264 150.284 84.5288 153.627 86.7529 157.145C86.2587 157.137 86.0941 156.884 85.9176 156.69C84.5202 155.152 83.2036 153.552 82.1087 151.778C80.1285 148.57 78.7223 145.117 77.6882 141.504C77.1685 139.687 76.7465 137.848 76.4635 135.98C76.4238 135.719 76.419 135.454 76.4043 135.273Z" fill="#050606"/>
<path d="M70.953 143.685C71.949 146.351 73.1151 148.942 74.4262 151.468C74.8352 152.255 75.2762 153.025 75.6879 153.811C75.7813 153.99 75.8128 154.2 75.9339 154.597C75.5657 154.313 75.3495 154.181 75.1773 154.007C74.3643 153.186 73.6941 152.258 73.1955 151.215C72.106 148.939 71.2935 146.568 70.8335 144.082C70.8069 143.938 70.8166 143.788 70.8096 143.64C70.8492 143.681 70.897 143.696 70.953 143.685Z" fill="#050606"/>
<path d="M77.9365 148.931C79.6218 151.68 81.5146 154.274 83.2808 157C82.9387 157.156 82.8154 156.938 82.6807 156.811C81.2105 155.427 80.0265 153.831 79.1732 151.998C78.8615 151.329 78.5861 150.643 78.3064 149.959C78.169 149.622 78.0593 149.274 77.9365 148.931Z" fill="#050606"/>
<path d="M70.9532 143.684C70.8973 143.695 70.8495 143.68 70.8098 143.639C70.743 143.528 70.6681 143.42 70.617 143.302C70.6073 143.278 70.6866 143.209 70.7338 143.172C70.7479 143.162 70.8164 143.189 70.8234 143.21C70.8718 143.366 70.9109 143.525 70.9532 143.684Z" fill="#050606"/>
<path d="M108.547 127.452C108.669 127.34 108.791 127.254 108.88 127.141C109.768 126.018 110.382 124.765 110.669 123.357C111.06 121.436 110.962 119.517 110.587 117.612C110.249 115.895 109.699 114.245 108.774 112.741C107.547 110.743 105.855 109.308 103.629 108.534C103.44 108.469 103.221 108.493 102.961 108.47C102.831 109.905 102.642 111.261 102.709 112.638C102.844 115.441 103.441 118.144 104.479 120.746C105.195 122.539 106.038 124.273 107.149 125.861C107.549 126.432 107.931 127.03 108.547 127.452ZM107.901 128.278C106.915 127.349 106.174 126.421 105.595 125.384C104.999 124.318 104.426 123.232 103.939 122.114C103.467 121.029 103.059 119.908 102.731 118.772C102.405 117.636 102.187 116.466 101.967 115.301C101.74 114.095 101.669 112.866 101.754 111.644C101.835 110.476 102.018 109.315 102.164 108.083C101.504 107.974 100.888 107.856 100.267 107.774C97.8282 107.453 95.3765 107.473 92.9336 107.638C89.8997 107.844 86.8734 108.152 83.8444 108.422C83.6386 108.44 83.4371 108.508 83.247 108.55C83.3774 113.514 89.2773 134.543 91.5899 138.302C91.7479 138.242 91.9201 138.189 92.0798 138.111C95.5775 136.398 99.0122 134.568 102.317 132.502C103.828 131.557 105.297 130.553 106.659 129.4C107.05 129.069 107.422 128.712 107.901 128.278ZM92.1944 140.116C92.807 141.482 93.355 142.739 93.9313 143.983C95.9153 148.265 98.16 152.402 100.868 156.276C102.295 158.317 103.844 160.26 105.625 162.01C106.793 163.157 108.042 164.204 109.459 165.04C110.359 165.571 111.299 166.006 112.322 166.236C114.302 166.679 116.077 166.285 117.601 164.907C118.295 164.279 118.859 163.547 119.343 162.748C120.018 161.632 120.521 160.439 120.934 159.203C121.987 156.046 122.445 152.778 122.649 149.477C122.962 144.426 122.742 139.385 122.176 134.36C121.77 130.746 121.201 127.157 120.494 123.589C118.728 114.687 116.185 106.019 112.757 97.6139C110.667 92.4874 108.257 87.5189 105.311 82.8225C103.791 80.398 102.132 78.074 100.223 75.9352C98.959 74.5193 97.6012 73.2049 96.0506 72.1002C95.0175 71.3643 93.9269 70.7343 92.7093 70.3574C90.2261 69.5894 88.0987 70.1521 86.3542 72.0948C85.6297 72.9019 85.0654 73.8154 84.5891 74.7854C83.7662 76.4599 83.2258 78.231 82.8196 80.045C82.0956 83.2809 81.8045 86.5684 81.7236 89.875C81.5861 95.455 82.0511 100.998 82.8299 106.518C82.8538 106.686 82.9434 106.845 83.0151 107.045C83.8781 106.914 84.6787 106.782 85.482 106.674C88.7955 106.228 92.1232 105.944 95.4662 105.868C97.7712 105.814 100.064 105.925 102.333 106.395C106.681 107.294 109.641 109.848 111.321 113.912C112.342 116.38 112.785 118.96 112.687 121.633C112.591 124.249 111.723 126.561 110.049 128.573C109.19 129.606 108.202 130.503 107.152 131.335C105.58 132.583 103.901 133.677 102.185 134.714C99.293 136.462 96.3096 138.041 93.2844 139.543C92.9575 139.705 92.6376 139.882 92.1944 140.116ZM80.13 91.6678C80.0898 88.396 80.2881 85.1395 80.7964 81.9052C81.1891 79.4058 81.7681 76.9541 82.8055 74.6339C83.1226 73.9251 83.48 73.2267 83.8922 72.5695C84.2849 71.9438 84.7276 71.3366 85.2283 70.7946C87.4089 68.4358 90.0692 67.7623 93.134 68.665C94.5369 69.0778 95.7964 69.7898 96.9831 70.6322C98.5956 71.7765 100.019 73.1311 101.338 74.5981C103.155 76.6179 104.752 78.8029 106.223 81.0835C109.006 85.3991 111.315 89.9624 113.343 94.6724C116.963 103.079 119.676 111.774 121.619 120.714C122.533 124.923 123.259 129.163 123.749 133.44C124.206 137.424 124.489 141.424 124.432 145.437C124.381 149.078 124.122 152.703 123.364 156.276C122.955 158.205 122.406 160.089 121.579 161.884C121.002 163.137 120.302 164.315 119.371 165.342C118.244 166.583 116.903 167.464 115.231 167.795C114 168.04 112.796 167.922 111.602 167.575C110.305 167.199 109.128 166.576 108.015 165.826C106.468 164.782 105.101 163.53 103.827 162.174C101.786 160.002 100.023 157.616 98.4099 155.117C95.4211 150.491 92.9678 145.584 90.8355 140.515C87.1271 131.699 84.387 122.588 82.5361 113.206C81.7246 109.09 81.068 104.95 80.6357 100.779C80.3218 97.7524 80.1067 94.7158 80.13 91.6678Z" fill="#050606"/>
<path d="M28.6934 175.083C29.5373 177.092 30.29 178.941 31.0899 180.769C31.7138 182.196 32.369 183.611 33.0578 185.007C35.4406 189.836 38.4691 194.214 42.2562 198.055C42.6168 198.421 42.9492 198.814 43.3028 199.203C42.9747 199.413 42.8199 199.168 42.6641 199.052C40.7835 197.646 39.0604 196.073 37.5991 194.225C34.7689 190.646 32.5951 186.691 30.894 182.47C30.0204 180.302 29.2398 178.1 28.7756 175.801C28.74 175.623 28.7332 175.44 28.6934 175.083Z" fill="#050606"/>
<path d="M38.6973 189.296C39.8213 190.658 40.871 191.948 41.9415 193.221C43.0394 194.527 44.2206 195.755 45.5051 196.881C46.7429 197.965 48.0057 199.022 49.4275 200.274C46.8255 199.525 40.6154 194.012 38.6973 189.296Z" fill="#050606"/>
</svg>
