<svg width="88" height="16" viewBox="0 0 88 16" fill="none" xmlns="http://www.w3.org/2000/svg">
<path d="M3.6775 15L4.815 9.82368L1 6.3421L6.04 5.88158L8 1L9.96 5.88158L15 6.3421L11.185 9.82368L12.3225 15L8 12.2553L3.6775 15Z" fill="#FFB62A"/>
<path d="M21.6775 15L22.815 9.82368L19 6.3421L24.04 5.88158L26 1L27.96 5.88158L33 6.3421L29.185 9.82368L30.3225 15L26 12.2553L21.6775 15Z" fill="#FFB62A"/>
<path d="M39.6775 15L40.815 9.82368L37 6.3421L42.04 5.88158L44 1L45.96 5.88158L51 6.3421L47.185 9.82368L48.3225 15L44 12.2553L39.6775 15Z" fill="#FFB62A"/>
<path d="M57.6775 15L58.815 9.82368L55 6.3421L60.04 5.88158L62 1L63.96 5.88158L69 6.3421L65.185 9.82368L66.3225 15L62 12.2553L57.6775 15Z" fill="#FFB62A"/>
<path d="M75.6775 15L76.815 9.82368L73 6.3421L78.04 5.88158L80 1L81.96 5.88158L87 6.3421L83.185 9.82368L84.3225 15L80 12.2553L75.6775 15Z" fill="#FFB62A"/>
</svg>
