<svg width="150" height="30" viewBox="0 0 150 30" fill="none" xmlns="http://www.w3.org/2000/svg">
<path d="M50.4912 9.20312H52.1787V17.8604C52.1787 18.8213 51.9648 19.6211 51.5371 20.2598C51.1094 20.8984 50.541 21.3789 49.832 21.7012C49.1289 22.0176 48.3643 22.1758 47.5381 22.1758C46.6709 22.1758 45.8857 22.0176 45.1826 21.7012C44.4854 21.3789 43.9316 20.8984 43.5215 20.2598C43.1172 19.6211 42.915 18.8213 42.915 17.8604V9.20312H44.5938V17.8604C44.5938 18.5283 44.7168 19.0791 44.9629 19.5127C45.209 19.9463 45.5518 20.2686 45.9912 20.4795C46.4365 20.6904 46.9521 20.7959 47.5381 20.7959C48.1299 20.7959 48.6455 20.6904 49.085 20.4795C49.5303 20.2686 49.876 19.9463 50.1221 19.5127C50.3682 19.0791 50.4912 18.5283 50.4912 17.8604V9.20312ZM56.2217 14.3184V25.6562H54.5869V12.4902H56.0811L56.2217 14.3184ZM62.6289 17.166V17.3506C62.6289 18.042 62.5469 18.6836 62.3828 19.2754C62.2188 19.8613 61.9785 20.3711 61.6621 20.8047C61.3516 21.2383 60.9678 21.5752 60.5107 21.8154C60.0537 22.0557 59.5293 22.1758 58.9375 22.1758C58.334 22.1758 57.8008 22.0762 57.3379 21.877C56.875 21.6777 56.4824 21.3877 56.1602 21.0068C55.8379 20.626 55.5801 20.1689 55.3867 19.6357C55.1992 19.1025 55.0703 18.502 55 17.834V16.8496C55.0703 16.1465 55.2021 15.5166 55.3955 14.96C55.5889 14.4033 55.8438 13.9287 56.1602 13.5361C56.4824 13.1377 56.8721 12.8359 57.3291 12.6309C57.7861 12.4199 58.3135 12.3145 58.9111 12.3145C59.5088 12.3145 60.0391 12.4316 60.502 12.666C60.9648 12.8945 61.3545 13.2227 61.6709 13.6504C61.9873 14.0781 62.2246 14.5908 62.3828 15.1885C62.5469 15.7803 62.6289 16.4395 62.6289 17.166ZM60.9941 17.3506V17.166C60.9941 16.6914 60.9443 16.2461 60.8447 15.8301C60.7451 15.4082 60.5898 15.0391 60.3789 14.7227C60.1738 14.4004 59.9102 14.1484 59.5879 13.9668C59.2656 13.7793 58.8818 13.6855 58.4365 13.6855C58.0264 13.6855 57.6689 13.7559 57.3643 13.8965C57.0654 14.0371 56.8105 14.2275 56.5996 14.4678C56.3887 14.7021 56.2158 14.9717 56.0811 15.2764C55.9521 15.5752 55.8555 15.8857 55.791 16.208V18.4844C55.9082 18.8945 56.0723 19.2812 56.2832 19.6445C56.4941 20.002 56.7754 20.292 57.127 20.5146C57.4785 20.7314 57.9209 20.8398 58.4541 20.8398C58.8936 20.8398 59.2715 20.749 59.5879 20.5674C59.9102 20.3799 60.1738 20.125 60.3789 19.8027C60.5898 19.4805 60.7451 19.1113 60.8447 18.6953C60.9443 18.2734 60.9941 17.8252 60.9941 17.3506ZM66.4697 8.5V22H64.835V8.5H66.4697ZM68.6494 17.3506V17.1484C68.6494 16.4629 68.749 15.8271 68.9482 15.2412C69.1475 14.6494 69.4346 14.1367 69.8096 13.7031C70.1846 13.2637 70.6387 12.9238 71.1719 12.6836C71.7051 12.4375 72.3027 12.3145 72.9648 12.3145C73.6328 12.3145 74.2334 12.4375 74.7666 12.6836C75.3057 12.9238 75.7627 13.2637 76.1377 13.7031C76.5186 14.1367 76.8086 14.6494 77.0078 15.2412C77.207 15.8271 77.3066 16.4629 77.3066 17.1484V17.3506C77.3066 18.0361 77.207 18.6719 77.0078 19.2578C76.8086 19.8438 76.5186 20.3564 76.1377 20.7959C75.7627 21.2295 75.3086 21.5693 74.7754 21.8154C74.248 22.0557 73.6504 22.1758 72.9824 22.1758C72.3145 22.1758 71.7139 22.0557 71.1807 21.8154C70.6475 21.5693 70.1904 21.2295 69.8096 20.7959C69.4346 20.3564 69.1475 19.8438 68.9482 19.2578C68.749 18.6719 68.6494 18.0361 68.6494 17.3506ZM70.2754 17.1484V17.3506C70.2754 17.8252 70.3311 18.2734 70.4424 18.6953C70.5537 19.1113 70.7207 19.4805 70.9434 19.8027C71.1719 20.125 71.4561 20.3799 71.7959 20.5674C72.1357 20.749 72.5312 20.8398 72.9824 20.8398C73.4277 20.8398 73.8174 20.749 74.1514 20.5674C74.4912 20.3799 74.7725 20.125 74.9951 19.8027C75.2178 19.4805 75.3848 19.1113 75.4961 18.6953C75.6133 18.2734 75.6719 17.8252 75.6719 17.3506V17.1484C75.6719 16.6797 75.6133 16.2373 75.4961 15.8213C75.3848 15.3994 75.2148 15.0273 74.9863 14.7051C74.7637 14.377 74.4824 14.1191 74.1426 13.9316C73.8086 13.7441 73.416 13.6504 72.9648 13.6504C72.5195 13.6504 72.127 13.7441 71.7871 13.9316C71.4531 14.1191 71.1719 14.377 70.9434 14.7051C70.7207 15.0273 70.5537 15.3994 70.4424 15.8213C70.3311 16.2373 70.2754 16.6797 70.2754 17.1484ZM84.9531 20.374V15.4785C84.9531 15.1035 84.877 14.7783 84.7246 14.5029C84.5781 14.2217 84.3555 14.0049 84.0566 13.8525C83.7578 13.7002 83.3887 13.624 82.9492 13.624C82.5391 13.624 82.1787 13.6943 81.8682 13.835C81.5635 13.9756 81.3232 14.1602 81.1475 14.3887C80.9775 14.6172 80.8926 14.8633 80.8926 15.127H79.2666C79.2666 14.7871 79.3545 14.4502 79.5303 14.1162C79.7061 13.7822 79.958 13.4805 80.2861 13.2109C80.6201 12.9355 81.0186 12.7188 81.4814 12.5605C81.9502 12.3965 82.4717 12.3145 83.0459 12.3145C83.7373 12.3145 84.3467 12.4316 84.874 12.666C85.4072 12.9004 85.8232 13.2549 86.1221 13.7295C86.4268 14.1982 86.5791 14.7871 86.5791 15.4961V19.9258C86.5791 20.2422 86.6055 20.5791 86.6582 20.9365C86.7168 21.2939 86.8018 21.6016 86.9131 21.8594V22H85.2168C85.1348 21.8125 85.0703 21.5635 85.0234 21.2529C84.9766 20.9365 84.9531 20.6436 84.9531 20.374ZM85.2344 16.2344L85.252 17.377H83.6084C83.1455 17.377 82.7324 17.415 82.3691 17.4912C82.0059 17.5615 81.7012 17.6699 81.4551 17.8164C81.209 17.9629 81.0215 18.1475 80.8926 18.3701C80.7637 18.5869 80.6992 18.8418 80.6992 19.1348C80.6992 19.4336 80.7666 19.7061 80.9014 19.9521C81.0361 20.1982 81.2383 20.3945 81.5078 20.541C81.7832 20.6816 82.1201 20.752 82.5186 20.752C83.0166 20.752 83.4561 20.6465 83.8369 20.4355C84.2178 20.2246 84.5195 19.9668 84.7422 19.6621C84.9707 19.3574 85.0938 19.0615 85.1113 18.7744L85.8057 19.5566C85.7646 19.8027 85.6533 20.0752 85.4717 20.374C85.29 20.6729 85.0469 20.96 84.7422 21.2354C84.4434 21.5049 84.0859 21.7305 83.6699 21.9121C83.2598 22.0879 82.7969 22.1758 82.2812 22.1758C81.6367 22.1758 81.0713 22.0498 80.585 21.7979C80.1045 21.5459 79.7295 21.209 79.46 20.7871C79.1963 20.3594 79.0645 19.8818 79.0645 19.3545C79.0645 18.8447 79.1641 18.3965 79.3633 18.0098C79.5625 17.6172 79.8496 17.292 80.2246 17.0342C80.5996 16.7705 81.0508 16.5713 81.5781 16.4365C82.1055 16.3018 82.6943 16.2344 83.3447 16.2344H85.2344ZM95.1309 20.1543V8.5H96.7656V22H95.2715L95.1309 20.1543ZM88.7324 17.3506V17.166C88.7324 16.4395 88.8203 15.7803 88.9961 15.1885C89.1777 14.5908 89.4326 14.0781 89.7607 13.6504C90.0947 13.2227 90.4902 12.8945 90.9473 12.666C91.4102 12.4316 91.9258 12.3145 92.4941 12.3145C93.0918 12.3145 93.6133 12.4199 94.0586 12.6309C94.5098 12.8359 94.8906 13.1377 95.2012 13.5361C95.5176 13.9287 95.7666 14.4033 95.9482 14.96C96.1299 15.5166 96.2559 16.1465 96.3262 16.8496V17.6582C96.2617 18.3555 96.1357 18.9824 95.9482 19.5391C95.7666 20.0957 95.5176 20.5703 95.2012 20.9629C94.8906 21.3555 94.5098 21.6572 94.0586 21.8682C93.6074 22.0732 93.0801 22.1758 92.4766 22.1758C91.9199 22.1758 91.4102 22.0557 90.9473 21.8154C90.4902 21.5752 90.0947 21.2383 89.7607 20.8047C89.4326 20.3711 89.1777 19.8613 88.9961 19.2754C88.8203 18.6836 88.7324 18.042 88.7324 17.3506ZM90.3672 17.166V17.3506C90.3672 17.8252 90.4141 18.2705 90.5078 18.6865C90.6074 19.1025 90.7598 19.4688 90.9648 19.7852C91.1699 20.1016 91.4307 20.3506 91.7471 20.5322C92.0635 20.708 92.4414 20.7959 92.8809 20.7959C93.4199 20.7959 93.8623 20.6816 94.208 20.4531C94.5596 20.2246 94.8408 19.9229 95.0518 19.5479C95.2627 19.1729 95.4268 18.7656 95.5439 18.3262V16.208C95.4736 15.8857 95.3711 15.5752 95.2363 15.2764C95.1074 14.9717 94.9375 14.7021 94.7266 14.4678C94.5215 14.2275 94.2666 14.0371 93.9619 13.8965C93.6631 13.7559 93.3086 13.6855 92.8984 13.6855C92.4531 13.6855 92.0693 13.7793 91.7471 13.9668C91.4307 14.1484 91.1699 14.4004 90.9648 14.7227C90.7598 15.0391 90.6074 15.4082 90.5078 15.8301C90.4141 16.2461 90.3672 16.6914 90.3672 17.166ZM105.388 14.3184V25.6562H103.753V12.4902H105.247L105.388 14.3184ZM111.795 17.166V17.3506C111.795 18.042 111.713 18.6836 111.549 19.2754C111.385 19.8613 111.145 20.3711 110.828 20.8047C110.518 21.2383 110.134 21.5752 109.677 21.8154C109.22 22.0557 108.695 22.1758 108.104 22.1758C107.5 22.1758 106.967 22.0762 106.504 21.877C106.041 21.6777 105.648 21.3877 105.326 21.0068C105.004 20.626 104.746 20.1689 104.553 19.6357C104.365 19.1025 104.236 18.502 104.166 17.834V16.8496C104.236 16.1465 104.368 15.5166 104.562 14.96C104.755 14.4033 105.01 13.9287 105.326 13.5361C105.648 13.1377 106.038 12.8359 106.495 12.6309C106.952 12.4199 107.479 12.3145 108.077 12.3145C108.675 12.3145 109.205 12.4316 109.668 12.666C110.131 12.8945 110.521 13.2227 110.837 13.6504C111.153 14.0781 111.391 14.5908 111.549 15.1885C111.713 15.7803 111.795 16.4395 111.795 17.166ZM110.16 17.3506V17.166C110.16 16.6914 110.11 16.2461 110.011 15.8301C109.911 15.4082 109.756 15.0391 109.545 14.7227C109.34 14.4004 109.076 14.1484 108.754 13.9668C108.432 13.7793 108.048 13.6855 107.603 13.6855C107.192 13.6855 106.835 13.7559 106.53 13.8965C106.231 14.0371 105.977 14.2275 105.766 14.4678C105.555 14.7021 105.382 14.9717 105.247 15.2764C105.118 15.5752 105.021 15.8857 104.957 16.208V18.4844C105.074 18.8945 105.238 19.2812 105.449 19.6445C105.66 20.002 105.941 20.292 106.293 20.5146C106.645 20.7314 107.087 20.8398 107.62 20.8398C108.06 20.8398 108.438 20.749 108.754 20.5674C109.076 20.3799 109.34 20.125 109.545 19.8027C109.756 19.4805 109.911 19.1113 110.011 18.6953C110.11 18.2734 110.16 17.8252 110.16 17.3506ZM115.495 8.5V22H113.869V8.5H115.495ZM115.108 16.8848L114.432 16.8584C114.438 16.208 114.534 15.6074 114.722 15.0566C114.909 14.5 115.173 14.0166 115.513 13.6064C115.853 13.1963 116.257 12.8799 116.726 12.6572C117.2 12.4287 117.725 12.3145 118.299 12.3145C118.768 12.3145 119.189 12.3789 119.564 12.5078C119.939 12.6309 120.259 12.8301 120.522 13.1055C120.792 13.3809 120.997 13.7383 121.138 14.1777C121.278 14.6113 121.349 15.1416 121.349 15.7686V22H119.714V15.751C119.714 15.2529 119.641 14.8545 119.494 14.5557C119.348 14.251 119.134 14.0312 118.853 13.8965C118.571 13.7559 118.226 13.6855 117.815 13.6855C117.411 13.6855 117.042 13.7705 116.708 13.9404C116.38 14.1104 116.096 14.3447 115.855 14.6436C115.621 14.9424 115.437 15.2852 115.302 15.6719C115.173 16.0527 115.108 16.457 115.108 16.8848ZM123.353 17.3506V17.1484C123.353 16.4629 123.452 15.8271 123.651 15.2412C123.851 14.6494 124.138 14.1367 124.513 13.7031C124.888 13.2637 125.342 12.9238 125.875 12.6836C126.408 12.4375 127.006 12.3145 127.668 12.3145C128.336 12.3145 128.937 12.4375 129.47 12.6836C130.009 12.9238 130.466 13.2637 130.841 13.7031C131.222 14.1367 131.512 14.6494 131.711 15.2412C131.91 15.8271 132.01 16.4629 132.01 17.1484V17.3506C132.01 18.0361 131.91 18.6719 131.711 19.2578C131.512 19.8438 131.222 20.3564 130.841 20.7959C130.466 21.2295 130.012 21.5693 129.479 21.8154C128.951 22.0557 128.354 22.1758 127.686 22.1758C127.018 22.1758 126.417 22.0557 125.884 21.8154C125.351 21.5693 124.894 21.2295 124.513 20.7959C124.138 20.3564 123.851 19.8438 123.651 19.2578C123.452 18.6719 123.353 18.0361 123.353 17.3506ZM124.979 17.1484V17.3506C124.979 17.8252 125.034 18.2734 125.146 18.6953C125.257 19.1113 125.424 19.4805 125.646 19.8027C125.875 20.125 126.159 20.3799 126.499 20.5674C126.839 20.749 127.234 20.8398 127.686 20.8398C128.131 20.8398 128.521 20.749 128.854 20.5674C129.194 20.3799 129.476 20.125 129.698 19.8027C129.921 19.4805 130.088 19.1113 130.199 18.6953C130.316 18.2734 130.375 17.8252 130.375 17.3506V17.1484C130.375 16.6797 130.316 16.2373 130.199 15.8213C130.088 15.3994 129.918 15.0273 129.689 14.7051C129.467 14.377 129.186 14.1191 128.846 13.9316C128.512 13.7441 128.119 13.6504 127.668 13.6504C127.223 13.6504 126.83 13.7441 126.49 13.9316C126.156 14.1191 125.875 14.377 125.646 14.7051C125.424 15.0273 125.257 15.3994 125.146 15.8213C125.034 16.2373 124.979 16.6797 124.979 17.1484ZM138.03 12.4902V13.7383H132.889V12.4902H138.03ZM134.629 10.1787H136.255V19.6445C136.255 19.9668 136.305 20.21 136.404 20.374C136.504 20.5381 136.633 20.6465 136.791 20.6992C136.949 20.752 137.119 20.7783 137.301 20.7783C137.436 20.7783 137.576 20.7666 137.723 20.7432C137.875 20.7139 137.989 20.6904 138.065 20.6729L138.074 22C137.945 22.041 137.775 22.0791 137.564 22.1143C137.359 22.1553 137.11 22.1758 136.817 22.1758C136.419 22.1758 136.053 22.0967 135.719 21.9385C135.385 21.7803 135.118 21.5166 134.919 21.1475C134.726 20.7725 134.629 20.2686 134.629 19.6357V10.1787ZM139.331 17.3506V17.1484C139.331 16.4629 139.431 15.8271 139.63 15.2412C139.829 14.6494 140.116 14.1367 140.491 13.7031C140.866 13.2637 141.32 12.9238 141.854 12.6836C142.387 12.4375 142.984 12.3145 143.646 12.3145C144.314 12.3145 144.915 12.4375 145.448 12.6836C145.987 12.9238 146.444 13.2637 146.819 13.7031C147.2 14.1367 147.49 14.6494 147.689 15.2412C147.889 15.8271 147.988 16.4629 147.988 17.1484V17.3506C147.988 18.0361 147.889 18.6719 147.689 19.2578C147.49 19.8438 147.2 20.3564 146.819 20.7959C146.444 21.2295 145.99 21.5693 145.457 21.8154C144.93 22.0557 144.332 22.1758 143.664 22.1758C142.996 22.1758 142.396 22.0557 141.862 21.8154C141.329 21.5693 140.872 21.2295 140.491 20.7959C140.116 20.3564 139.829 19.8438 139.63 19.2578C139.431 18.6719 139.331 18.0361 139.331 17.3506ZM140.957 17.1484V17.3506C140.957 17.8252 141.013 18.2734 141.124 18.6953C141.235 19.1113 141.402 19.4805 141.625 19.8027C141.854 20.125 142.138 20.3799 142.478 20.5674C142.817 20.749 143.213 20.8398 143.664 20.8398C144.109 20.8398 144.499 20.749 144.833 20.5674C145.173 20.3799 145.454 20.125 145.677 19.8027C145.899 19.4805 146.066 19.1113 146.178 18.6953C146.295 18.2734 146.354 17.8252 146.354 17.3506V17.1484C146.354 16.6797 146.295 16.2373 146.178 15.8213C146.066 15.3994 145.896 15.0273 145.668 14.7051C145.445 14.377 145.164 14.1191 144.824 13.9316C144.49 13.7441 144.098 13.6504 143.646 13.6504C143.201 13.6504 142.809 13.7441 142.469 13.9316C142.135 14.1191 141.854 14.377 141.625 14.7051C141.402 15.0273 141.235 15.3994 141.124 15.8213C141.013 16.2373 140.957 16.6797 140.957 17.1484Z" fill="#969696"/>
<path d="M6.25 23.75H8.03125L20.25 11.5312L18.4688 9.75L6.25 21.9688V23.75ZM3.75 26.25V20.9375L20.25 4.46875C20.5 4.23958 20.776 4.0625 21.0781 3.9375C21.3802 3.8125 21.6979 3.75 22.0312 3.75C22.3646 3.75 22.6875 3.8125 23 3.9375C23.3125 4.0625 23.5833 4.25 23.8125 4.5L25.5312 6.25C25.7812 6.47917 25.9635 6.75 26.0781 7.0625C26.1927 7.375 26.25 7.6875 26.25 8C26.25 8.33333 26.1927 8.65104 26.0781 8.95312C25.9635 9.25521 25.7812 9.53125 25.5312 9.78125L9.0625 26.25H3.75ZM19.3438 10.6562L18.4688 9.75L20.25 11.5312L19.3438 10.6562Z" fill="#B4B7BC"/>
</svg>
