<svg width="24" height="24" viewBox="0 0 24 24" fill="none" xmlns="http://www.w3.org/2000/svg">
<rect x="6" y="7" width="12" height="10" fill="white"/>
<path d="M8.78506 22.3999L6.9887 19.3523L3.58506 18.5904L3.91597 15.0666L1.59961 12.3999L3.91597 9.73324L3.58506 6.20943L6.9887 5.44752L8.78506 2.3999L11.9996 3.78085L15.2142 2.3999L17.0105 5.44752L20.4142 6.20943L20.0832 9.73324L22.3996 12.3999L20.0832 15.0666L20.4142 18.5904L17.0105 19.3523L15.2142 22.3999L11.9996 21.0189L8.78506 22.3999ZM11.0069 15.7809L16.3487 10.3999L15.0251 9.01895L11.0069 13.0666L8.97415 11.0666L7.65052 12.3999L11.0069 15.7809Z" fill="#169B00"/>
</svg>
