<svg width="60" height="60" viewBox="0 0 60 60" fill="none" xmlns="http://www.w3.org/2000/svg">
<circle cx="30" cy="30" r="29.5" stroke="white"/>
<path d="M30 44.5C29.55 44.5 29.1187 44.4188 28.7062 44.2563C28.2937 44.0938 27.925 43.85 27.6 43.525L17.55 33.4375C16.675 32.5625 16.0312 31.5625 15.6187 30.4375C15.2062 29.3125 15 28.1375 15 26.9125C15 24.3375 15.8375 22.125 17.5125 20.275C19.1875 18.425 21.275 17.5 23.775 17.5C24.975 17.5 26.1062 17.7375 27.1687 18.2125C28.2312 18.6875 29.175 19.35 30 20.2C30.8 19.35 31.7312 18.6875 32.7937 18.2125C33.8562 17.7375 34.9875 17.5 36.1875 17.5C38.6875 17.5 40.7812 18.425 42.4687 20.275C44.1562 22.125 45 24.325 45 26.875C45 28.1 44.7875 29.275 44.3625 30.4C43.9375 31.525 43.3 32.525 42.45 33.4L32.3625 43.525C32.0375 43.85 31.675 44.0938 31.275 44.2563C30.875 44.4188 30.45 44.5 30 44.5ZM31.5 25C31.75 25 31.9875 25.0625 32.2125 25.1875C32.4375 25.3125 32.6125 25.475 32.7375 25.675L35.2875 29.5H41.5125C41.6875 29.075 41.8187 28.6438 41.9062 28.2063C41.9937 27.7688 42.0375 27.325 42.0375 26.875C41.9875 25.15 41.4125 23.6688 40.3125 22.4313C39.2125 21.1938 37.8375 20.575 36.1875 20.575C35.4125 20.575 34.6687 20.725 33.9562 21.025C33.2437 21.325 32.625 21.7625 32.1 22.3375L31.0875 23.425C30.9625 23.575 30.8 23.6938 30.6 23.7813C30.4 23.8688 30.2 23.9125 30 23.9125C29.8 23.9125 29.6 23.8688 29.4 23.7813C29.2 23.6938 29.025 23.575 28.875 23.425L27.8625 22.3375C27.3375 21.7625 26.725 21.3125 26.025 20.9875C25.325 20.6625 24.575 20.5 23.775 20.5C22.125 20.5 20.75 21.1313 19.65 22.3938C18.55 23.6563 18 25.15 18 26.875C18 27.325 18.0375 27.7688 18.1125 28.2063C18.1875 28.6438 18.3125 29.075 18.4875 29.5H25.5C25.75 29.5 25.9875 29.5625 26.2125 29.6875C26.4375 29.8125 26.6125 29.975 26.7375 30.175L28.05 32.125L30.075 26.05C30.175 25.75 30.3562 25.5 30.6187 25.3C30.8812 25.1 31.175 25 31.5 25ZM31.95 29.875L29.925 35.95C29.825 36.25 29.6375 36.5 29.3625 36.7C29.0875 36.9 28.7875 37 28.4625 37C28.2125 37 27.975 36.9375 27.75 36.8125C27.525 36.6875 27.35 36.525 27.225 36.325L24.675 32.5H20.85L29.7375 41.3875C29.7875 41.4375 29.8312 41.4688 29.8687 41.4813C29.9062 41.4938 29.95 41.5 30 41.5C30.05 41.5 30.0937 41.4938 30.1312 41.4813C30.1687 41.4688 30.2125 41.4375 30.2625 41.3875L39.1125 32.5H34.5C34.25 32.5 34.0125 32.4375 33.7875 32.3125C33.5625 32.1875 33.375 32.025 33.225 31.825L31.95 29.875Z" fill="white"/>
</svg>
