<svg width="39" height="39" viewBox="0 0 39 39" fill="none" xmlns="http://www.w3.org/2000/svg">
<path d="M38.4818 19.2386C38.4818 29.8642 29.8678 38.478 19.2411 38.478C8.61429 38.478 0 29.8642 0 19.2386C0 8.61382 8.61429 0 19.2411 0C29.8678 0 38.4818 8.61382 38.4818 19.2386Z" fill="#505050"/>
<path d="M18.8003 20.2953L18.1229 19.3258L12.7271 11.6089H15.05L19.4042 17.8363L20.0824 18.8067L25.7421 26.9014H23.4193L18.8003 20.2961V20.2953ZM20.872 17.888L27.2536 10.4706H25.7413L20.2003 16.9112L15.7742 10.4706H10.6699L17.3623 20.2098L10.6699 27.988H12.1821L18.0341 21.1866L22.708 27.988H27.8123L20.8712 17.888H20.872Z" fill="#A2A2A2"/>
</svg>
