<svg width="39" height="39" viewBox="0 0 39 39" fill="none" xmlns="http://www.w3.org/2000/svg">
<path d="M38.4821 19.2387C38.4821 29.8642 29.8681 38.4779 19.2414 38.4779C8.61461 38.4779 0 29.8642 0 19.2387C0 8.61387 8.61461 4.19617e-05 19.2414 4.19617e-05C29.8681 4.19617e-05 38.4821 8.61387 38.4821 19.2387Z" fill="#505050"/>
<path d="M22.418 19.6043L17.7158 21.9309C17.5309 22.031 16.9044 21.897 16.9044 21.6879V16.912C16.9044 16.6997 17.5366 16.5665 17.7206 16.6714L22.2226 19.1207C22.4115 19.2281 22.6094 19.501 22.418 19.6043ZM28.5864 16.799C28.5864 14.5345 26.7496 12.6979 24.4849 12.6979H13.997C11.7323 12.6979 9.89551 14.5345 9.89551 16.799V21.6791C9.89551 23.9435 11.7323 25.78 13.997 25.78H24.4849C26.7496 25.78 28.5864 23.9435 28.5864 21.6791V16.799Z" fill="#A2A2A2"/>
</svg>
